<?xml version="1.0" standalone="no"?>
<!DOCTYPE svg PUBLIC "-//W3C//DTD SVG 1.1//EN" "http://www.w3.org/Graphics/SVG/1.1/DTD/svg11.dtd" >
<svg>
<metadata>
Created by FontForge 20090914 at Thu Mar 10 14:21:40 2022
 By www-data
Copyright 2013 Adobe Systems Incorporated. All rights reserved.
</metadata>
<defs>
<font id="NautilusPompilius" horiz-adv-x="995" >
  <font-face 
    font-family="Nautilus Pompilius"
    font-weight="400"
    font-stretch="normal"
    units-per-em="2048"
    panose-1="2 0 0 0 0 0 0 0 0 0"
    ascent="1536"
    descent="-512"
    x-height="1034"
    cap-height="1610"
    bbox="-702 -788.001 2299.29 1950"
    underline-thickness="102"
    underline-position="-102"
    unicode-range="U+000D-U+25FC"
  />
<missing-glyph horiz-adv-x="748" 
d="M68 0v1365h544v-1365h-544zM136 68h408v1229h-408v-1229z" />
    <glyph glyph-name=".notdef" horiz-adv-x="748" 
d="M68 0v1365h544v-1365h-544zM136 68h408v1229h-408v-1229z" />
    <glyph glyph-name="glyph1" horiz-adv-x="2048" 
 />
    <glyph glyph-name="glyph1" horiz-adv-x="2048" 
 />
    <glyph glyph-name="uni000D" unicode="&#xd;" horiz-adv-x="2048" 
 />
    <glyph glyph-name="space" unicode=" " horiz-adv-x="512" 
 />
    <glyph glyph-name="exclam" unicode="!" horiz-adv-x="569" 
d="M39 94c2 40 17.332 74 45.999 102s63 42 103 42s73.5 -14 100.5 -42s39.5 -62 37.5 -102c-3.33301 -40 -19.5 -73.833 -48.5 -101.5s-63.5 -41.5 -103.5 -41.5s-73.167 13.833 -99.5 41.5s-38.166 61.5 -35.499 101.5zM144.999 389l198.999 1036
c9.33301 44.667 30.333 77.667 63 99s70.334 32 113.001 32c38 0 70.667 -8.66699 98 -26l-288 -1071c-7.33301 -29.333 -22 -51.333 -44 -66s-47 -22 -75 -22c-24.667 0 -46.667 6 -66 18z" />
    <glyph glyph-name="quotedbl" unicode="&#x22;" horiz-adv-x="720" 
d="M57 1077c52 59.333 78.001 116 78.001 170c0 21.333 -7.83301 49.166 -23.5 83.499s-23.5 63.833 -23.5 88.5c0 37.333 13.667 69.5 41 96.5s60.666 40.5 99.999 40.5c41.333 0 76 -14.333 104 -43s42 -62.667 42 -102c0 -72 -29.833 -147.667 -89.5 -227
s-121.5 -132.666 -185.5 -159.999c-12 0 -22.167 4.83301 -30.5 14.5s-12.5 22.5 -12.5 38.5zM422.001 1077c52 59.333 78.001 116 78.001 170c0 21.333 -7.83301 49.166 -23.5 83.499s-23.5 63.833 -23.5 88.5c0 37.333 13.667 69.5 41 96.5s60.666 40.5 99.999 40.5
c41.333 0 75.833 -14.167 103.5 -42.5s41.5 -62.5 41.5 -102.5c0 -72 -29.833 -147.667 -89.5 -227s-121.167 -132.666 -184.5 -159.999c-12 0 -22.167 4.83301 -30.5 14.5s-12.5 22.5 -12.5 38.5z" />
    <glyph glyph-name="numbersign" unicode="#" horiz-adv-x="1110" 
d="M23 481c-10.667 36 -7.16602 67.833 10.501 95.5s46.167 41.5 85.5 41.5h151l66 310h-211c-10.667 36 -7.16699 67.833 10.5 95.5s46.167 41.5 85.5 41.5h146l96 451c92 -4.66699 130.333 -45.667 115 -123l-70 -328h293l96 451c92 -4.66699 130.333 -45.667 115 -123
l-70 -328h215c5.33301 -42.667 1.33301 -76.167 -12 -100.5s-41.333 -36.5 -84 -36.5h-150l-65 -310h209c5.33301 -42.667 1.16602 -76.167 -12.501 -100.5s-41.834 -36.5 -84.501 -36.5h-143l-106 -497c-37.333 -3.33301 -67.833 6.5 -91.5 29.5s-31.5 53.833 -23.5 92.5
l80 375h-293l-107 -497c-37.333 -3.33301 -67.666 6.5 -90.999 29.5s-31 53.833 -23 92.5l80 375h-217zM412.001 618h293l65 310h-293z" />
    <glyph glyph-name="dollar" unicode="$" horiz-adv-x="1167" 
d="M66 373c0 44 7.16797 86.1689 21.501 126.502s34.666 76.5 60.999 108.5s60.5 57.5 102.5 76.5s88.667 28.5 140 28.5c36 0 67.5 -11.833 94.5 -35.5s40.5 -54.167 40.5 -91.5c0 -20.667 -4.66699 -42.667 -14 -66c-65.333 22 -121 15.667 -167 -19
s-69 -82.334 -69 -143.001c0 -58.667 19.333 -109.5 58 -152.5s91.334 -64.5 158.001 -64.5c80 0 141.167 27.167 183.5 81.5s63.5 122.166 63.5 203.499c0 44.667 -7.5 86.5 -22.5 125.5s-34.5 73.333 -58.5 103s-50.667 58.667 -80 87l-87.5 87
c-29 29.667 -55.5 60.667 -79.5 93s-43.5 70.5 -58.5 114.5s-22.5 91.333 -22.5 142c0 107.333 36 197.833 108 271.5s164.333 115.5 277 125.5l30 149c6.66699 32.667 21.834 56.667 45.501 72s50.834 23 81.501 23c30 0 53.333 -6.33301 70 -19l-63 -239
c70.667 -19.333 124.167 -54.666 160.5 -105.999s54.5 -107 54.5 -167c0 -55.333 -15.167 -102.666 -45.5 -141.999s-70.5 -59 -120.5 -59c-20 0 -42.167 7.16699 -66.5 21.5s-41.833 34.5 -52.5 60.5c32 9.33301 57.333 29.666 76 60.999s28 65 28 101
c0 36.667 -10.667 67.667 -32 93s-52.333 38 -93 38c-60.667 0 -107.834 -24 -141.501 -72s-50.5 -106.667 -50.5 -176c0 -39.333 7.83301 -77.166 23.5 -113.499s36.167 -69 61.5 -98s53.166 -57.833 83.499 -86.5l91 -88c30.333 -30 58.166 -61.167 83.499 -93.5
s45.833 -69.833 61.5 -112.5s23.5 -87.667 23.5 -135c0 -148.667 -47.167 -267.834 -141.5 -357.501s-215.833 -137.5 -364.5 -143.5l-65 -246c-6 -21.333 -16.833 -37.333 -32.5 -48s-33.5 -16 -53.5 -16c-16.667 0 -32.667 5 -48 15l58 303
c-100 20.667 -176.833 66.667 -230.5 138s-80.5 151.666 -80.5 240.999z" />
    <glyph glyph-name="percent" unicode="%" horiz-adv-x="1585" 
d="M37 922c0 54.667 5.00098 110.167 15.001 166.5s26.667 112.5 50 168.5s51.666 105.667 84.999 149s75.833 78.5 127.5 105.5s108.5 40.5 170.5 40.5c52.667 0 97 -8.33301 133 -25s63.333 -40.834 82 -72.501s31.667 -66 39 -103s11 -80.5 11 -130.5
c0 -54.667 -5 -110.167 -15 -166.5s-26.667 -112.666 -50 -168.999s-51.833 -106.333 -85.5 -150s-76.334 -79.167 -128.001 -106.5s-108.5 -41 -170.5 -41c-52.667 0 -97 8.5 -133 25.5s-63.167 41.5 -81.5 73.5s-31.166 66.667 -38.499 104s-11 81 -11 131zM244.001 889
c0 -98.667 29.334 -148 88.001 -148c33.333 0 63.166 15.667 89.499 47s47 69 62 113s27.333 91.5 37 142.5s16.167 93.833 19.5 128.5s5 61 5 79c0 100 -28.667 150 -86 150c-33.333 0 -63.333 -15.333 -90 -46s-47.5 -67.667 -62.5 -111s-27.5 -90.5 -37.5 -141.5
s-16.667 -94.333 -20 -130s-5 -63.5 -5 -83.5zM382.002 30c-17.333 30.667 -17 64.333 1 101l709 1405c41.333 0 69.833 -14 85.5 -42s13.5 -63 -6.5 -105l-708 -1405c-36.667 0 -63.667 15.333 -81 46zM825.002 316.999c0 54.667 4.99902 110.164 14.999 166.497
s26.667 112.5 50 168.5s51.833 105.833 85.5 149.5s76.334 79 128.001 106s108.5 40.5 170.5 40.5c52.667 0 97 -8.33301 133 -25s63.167 -41 81.5 -73s31.166 -66.5 38.499 -103.5s11 -80.5 11 -130.5c0 -54.667 -5 -110.167 -15 -166.5s-26.667 -112.666 -50 -168.999
s-51.666 -106.166 -84.999 -149.499s-75.833 -78.666 -127.5 -105.999s-108.5 -41 -170.5 -41c-52.667 0 -97 8.33301 -133 25s-63.333 41.167 -82 73.5s-31.667 67 -39 104s-11 80.5 -11 130.5zM1032 284.996c0 -98.667 29.334 -148 88.001 -148
c33.333 0 63.166 15.667 89.499 47s47 69 62 113s27.333 91.5 37 142.5s16.167 93.833 19.5 128.5s5 61 5 79c0 100 -28.667 150 -86 150c-33.333 0 -63.333 -15.333 -90 -46s-47.5 -67.667 -62.5 -111s-27.5 -90.5 -37.5 -141.5s-16.667 -94.333 -20 -130
s-5 -63.5 -5 -83.5z" />
    <glyph glyph-name="ampersand" unicode="&#x26;" horiz-adv-x="1705" 
d="M78 383c0 61.333 12.1641 120.668 36.4971 178.001s61.833 109.333 112.5 156s111 80 181 100c-60.667 126.667 -91 244 -91 352c0 61.333 15.333 120 46 176s74.334 101.833 131.001 137.5s119.334 53.5 188.001 53.5c104 0 184.333 -26.167 241 -78.5
s85 -121.166 85 -206.499c0 -122.667 -53.333 -184 -160 -184c-20 0 -42.167 7.16699 -66.5 21.5s-41.833 34.5 -52.5 60.5c30.667 15.333 54.334 37.833 71.001 67.5s25 59.167 25 88.5c0 36 -12.833 64.333 -38.5 85s-58.5 31 -98.5 31
c-56.667 0 -101.167 -20.667 -133.5 -62s-48.5 -104.666 -48.5 -189.999c0 -113.333 42.333 -228.333 127 -345s193 -226.667 325 -330c26 74.667 39 155 39 241c0 30 -2 60.667 -6 92c-40 -2 -70 -15.667 -90 -41c-18 23.333 -27 47.666 -27 72.999s7.66699 48.333 23 69
s38.833 37.667 70.5 51s68.167 20 109.5 20c38 0 86.5 -5 145.5 -15s110.333 -15 154 -15s84.5 10 122.5 30c16.667 -21.333 24.834 -45.666 24.501 -72.999s-7.5 -52.5 -21.5 -75.5s-35 -42.5 -63 -58.5s-59 -24 -93 -24c-24.667 0 -49.667 2.33301 -75 7
s-54.166 11.334 -86.499 20.001s-56.5 14.667 -72.5 18c9.33301 -54.667 14 -102.334 14 -143.001c0 -100.667 -13.667 -190.334 -41 -269.001c155.333 -102.667 278.333 -162.667 369 -180c0 -85.333 -19.167 -150.833 -57.5 -196.5s-78.5 -61.5 -120.5 -47.5
c-96.667 33.333 -206.667 97.666 -330 192.999c-58 -60.667 -124.833 -106.834 -200.5 -138.501s-152.834 -47.5 -231.501 -47.5c-71.333 0 -135.333 11 -192 33s-102.334 51.833 -137.001 89.5s-61.167 80 -79.5 127s-27.5 96.833 -27.5 149.5zM316.997 416.002
c0 -70.667 20.001 -129.667 60.001 -177s98 -71 174 -71c102 0 192 37 270 111c-146.667 136 -265.334 280 -356.001 432c-46.667 -33.333 -83 -76.833 -109 -130.5s-39 -108.5 -39 -164.5z" />
    <glyph glyph-name="quotesingle" unicode="'" horiz-adv-x="270" 
d="M-41 1104l82 289c16.667 48.667 39 84.667 67 108s58.333 35 91 35c28 0 51.667 -6.66699 71 -20l-170 -355c-23.333 -47.333 -53.333 -71 -90 -71c-17.333 0 -34.333 4.66699 -51 14z" />
    <glyph glyph-name="parenleft" unicode="(" horiz-adv-x="778" 
d="M129 293c0 114.667 13.5 228.668 40.5 342.001s67.833 225 122.5 335s128 214.833 220 314.5s198.333 186.834 319 261.501c44.667 -18 70 -47.333 76 -88c-102.667 -88 -190 -183.5 -262 -286.5s-126.833 -208.667 -164.5 -317s-64.334 -213 -80.001 -314
s-23.5 -206.833 -23.5 -317.5c0 -107.333 16 -214.333 48 -321s75.333 -197.667 130 -273c-21.333 -37.333 -54.666 -61 -99.999 -71c-57.333 45.333 -107.833 99.166 -151.5 161.499s-77.667 126.666 -102 192.999s-42.5 131.333 -54.5 195s-18 125.5 -18 185.5z" />
    <glyph glyph-name="parenright" unicode=")" horiz-adv-x="757" 
d="M-123 -354c354 302 531 713.666 531 1235c0 107.333 -16.167 214.333 -48.5 321s-75.833 197.667 -130.5 273c21.333 37.333 55 61 101 71c57.333 -45.333 107.833 -99.166 151.5 -161.499s77.667 -126.666 102 -192.999s42.333 -131.333 54 -195
s17.5 -125.5 17.5 -185.5c0 -114.667 -13.5 -228.667 -40.5 -342s-67.833 -225 -122.5 -335s-128 -214.833 -220 -314.5s-198.333 -186.834 -319 -261.501c-44.667 18 -70 47.333 -76 88z" />
    <glyph glyph-name="asterisk" unicode="*" horiz-adv-x="997" 
d="M149.5 996.5c7 25 24.833 46.5 53.5 64.5l135 86l-158 135c3.33301 20.667 13.5 38.667 30.5 54s37.5 23.833 61.5 25.5s49.333 -8.5 76 -30.5l94 -86l50 234c31.333 11.333 61.833 5.16602 91.5 -18.501s39.167 -59.167 28.5 -106.5l-24 -109l196 129
c19.333 -9.33301 34.166 -24 44.499 -44s12 -42.5 5 -67.5s-24.833 -46.5 -53.5 -64.5l-135 -86l158 -135c-3.33301 -20.667 -13.5 -38.667 -30.5 -54s-37.5 -23.833 -61.5 -25.5s-49.333 8.5 -76 30.5l-96 86l-47 -232c-31.333 -11.333 -62 -5.16602 -92 18.501
s-39.667 59.167 -29 106.5l22 107l-194 -129c-19.333 9.33301 -34.166 24 -44.499 44s-12 42.5 -5 67.5z" />
    <glyph glyph-name="plus" unicode="+" horiz-adv-x="1054" 
d="M155 726c-0.666992 20 3.16406 39.665 11.4971 58.998s23.333 36 45 50s47.5 21 77.5 21h180l63 279c38.667 14 76.334 6.5 113.001 -22.5s48.334 -72.167 35.001 -129.5l-29 -127h250c10 -15.333 15.333 -33.166 16 -53.499s-3 -39.833 -11 -58.5
s-22.667 -34.334 -44 -47.001s-47.333 -19 -78 -19h-174l-61 -293c-14 -10 -30.833 -12.5 -50.5 -7.5s-38.167 13.333 -55.5 25s-30.666 29.834 -39.999 54.501s-10.666 51.334 -3.99902 80.001l31 141h-258c-10.667 12 -16.334 28 -17.001 48z" />
    <glyph glyph-name="comma" unicode="," horiz-adv-x="485" 
d="M-43 -242c36 30.667 63.668 64 83.001 100s30 69.5 32 100.5s0 59 -6 84s-15 45.5 -27 61.5c5.33301 38 21.833 70.167 49.5 96.5s60.834 39.5 99.501 39.5c41.333 0 74 -13 98 -39s36 -59 36 -99c0 -76 -31.333 -152.833 -94 -230.5s-141.334 -133.167 -236.001 -166.5
c-12.667 -4 -23.334 -0.5 -32.001 10.5s-9.66699 25.167 -3 42.5z" />
    <glyph glyph-name="hyphen" unicode="-" horiz-adv-x="686" 
d="M16 535c0 36.667 16.667 67.667 50 93s77.666 38 132.999 38c30 0 70.333 -3.16699 121 -9.5s87.334 -9.5 110.001 -9.5c42 0 79.667 10.333 113 31c16 -26 24 -50.667 24 -74c0 -39.333 -16.667 -74 -50 -104s-76 -45 -128 -45c-28 0 -67.833 7.83301 -119.5 23.5
s-93.167 23.5 -124.5 23.5c-46 0 -80 -13.667 -102 -41c-18 25.333 -27 50 -27 74z" />
    <glyph glyph-name="period" unicode="." horiz-adv-x="532" 
d="M39 94c2 40 17.332 74 45.999 102s63 42 103 42s73.5 -14 100.5 -42s39.5 -62 37.5 -102c-3.33301 -40 -19.5 -73.833 -48.5 -101.5s-63.5 -41.5 -103.5 -41.5s-73.167 13.833 -99.5 41.5s-38.166 61.5 -35.499 101.5z" />
    <glyph glyph-name="slash" unicode="/" horiz-adv-x="786" 
d="M-1 30c-17.333 30.667 -17 64.333 1 101l709 1405c41.333 0 69.833 -14 85.5 -42s13.5 -63 -6.5 -105l-708 -1405c-36.667 0 -63.667 15.333 -81 46z" />
    <glyph glyph-name="zero" unicode="0" horiz-adv-x="1101" 
d="M41 506c0 62.667 3.83301 126.5 11.5 191.5s20.167 131.333 37.5 199s38.666 132.334 63.999 194.001s56.666 119.834 93.999 174.501s78.666 101.834 123.999 141.501s98.333 71.167 159 94.5s125.334 35 194.001 35c60.667 0 113.667 -9.16699 159 -27.5
s81.666 -42.5 108.999 -72.5s49.333 -68.167 66 -114.5s28 -93.833 34 -142.5s9 -104.334 9 -167.001s-3.83301 -126.5 -11.5 -191.5s-20.167 -131.333 -37.5 -199s-38.666 -132.334 -63.999 -194.001s-56.666 -119.834 -93.999 -174.501
s-78.666 -101.834 -123.999 -141.501s-98.333 -71.167 -159 -94.5s-125.334 -35 -194.001 -35c-60.667 0 -113.667 9.16699 -159 27.5s-81.666 42.5 -108.999 72.5s-49.333 68.167 -66 114.5s-28 93.833 -34 142.5s-9 104.334 -9 167.001zM307 451
c0 -104.667 13.833 -186.5 41.5 -245.5s66.5 -88.5 116.5 -88.5c41.333 0 79.666 13.833 114.999 41.5s65.333 63.667 90 108s47 96 67 155s36 118.5 48 178.5s22 120.833 30 182.5s13.5 115.667 16.5 162s4.5 87.166 4.5 122.499c0 104.667 -13.833 186.5 -41.5 245.5
s-66.5 88.5 -116.5 88.5c-41.333 0 -79.666 -13.833 -114.999 -41.5s-65.333 -63.667 -90 -108s-47 -96 -67 -155s-36 -118.5 -48 -178.5s-22 -120.833 -30 -182.5s-13.5 -115.667 -16.5 -162s-4.5 -87.166 -4.5 -122.499z" />
    <glyph glyph-name="one" unicode="1" horiz-adv-x="616" 
d="M82 0l244.003 1139c-60 -23.333 -118 -35 -174 -35c-12.667 0 -24.167 7.66699 -34.5 23s-15.833 32.5 -16.5 51.5s4.66602 37.167 15.999 54.5c46 10 89.833 25.167 131.5 45.5s81.667 46.333 120 78s70.333 60.5 96 86.5s56.5 59 92.5 99
c37.333 6 70.666 -1.33301 99.999 -22l-301 -1416c-9.33301 -44.667 -30.333 -77.667 -63 -99s-70.334 -32 -113.001 -32c-37.333 0 -70 9 -98 27z" />
    <glyph glyph-name="two" unicode="2" horiz-adv-x="1019" 
d="M47.5 149.5c7.66699 49.667 21.8291 94.1631 42.4961 133.496c22.667 44 52.667 89 90 135s76.166 88.5 116.499 127.5l126.5 121c44 41.667 85.5 83.5 124.5 125.5s74.333 85 106 129s56.667 92.333 75 145s27.5 106.334 27.5 161.001c0 60 -16 105.333 -48 136
s-71.333 46 -118 46c-56.667 0 -102.334 -18.167 -137.001 -54.5s-52 -85.833 -52 -148.5c0 -28 8.33301 -61.333 25 -100c-68.667 -26 -124.334 -24.167 -167.001 5.5s-64 79.167 -64 148.5c0 57.333 18.833 108.333 56.5 153s85.667 78 144 100s120.5 33 186.5 33
c54 0 105.333 -7.33301 154 -22s92.834 -36.334 132.501 -65.001s71.334 -67.167 95.001 -115.5s35.5 -103.5 35.5 -165.5c0 -60 -12 -117.333 -36 -172s-56 -104 -96 -148s-84.5 -86.5 -133.5 -127.5s-99.833 -81.167 -152.5 -120.5s-102.334 -78.166 -149.001 -116.499
s-89.167 -80.666 -127.5 -126.999s-66.166 -92.833 -83.499 -139.5c76 0 137.667 0.666992 185 2s98.833 4.33301 154.5 9s101.834 11.834 138.501 21.501s72.834 23 108.501 40s66.834 37.833 93.501 62.5c35.333 -81.333 45.333 -150.5 30 -207.5
s-44.333 -100.833 -87 -131.5s-90.667 -46 -144 -46c-76 0 -160.833 6 -254.5 18s-177.167 26.667 -250.5 44c-17.333 -16 -39.666 -26.833 -66.999 -32.5s-53.666 -5.16699 -78.999 1.5c-8.66699 44.667 -9.16699 91.834 -1.5 141.501z" />
    <glyph glyph-name="three" unicode="3" horiz-adv-x="1038" 
d="M43 307c0 38 5.33301 75.1631 16 111.496s26.5 69.833 47.5 100.5s49.167 55.334 84.5 74.001s75.333 28 120 28c38 0 70.667 -13.667 98 -41s38.333 -65.666 33 -114.999c-56.667 13.333 -101.167 5.5 -133.5 -23.5s-48.5 -70.5 -48.5 -124.5
c0 -55.333 14.667 -100.833 44 -136.5s72 -53.5 128 -53.5c74 0 134.833 36.333 182.5 109s71.5 170.667 71.5 294c0 182.667 -87.333 261.334 -262 236.001c-18.667 32 -20.667 68 -6 108c82 70.667 152.333 136 211 196s110.334 125.333 155.001 196
c-18.667 0.666992 -62.334 6.16699 -131.001 16.5s-128.667 15.5 -180 15.5c-40 0 -82.5 -6.16699 -127.5 -18.5s-80.833 -26.5 -107.5 -42.5c-27.333 92.667 -20.5 165.667 20.5 219s100.167 80 177.5 80c58 0 128.5 -6.83301 211.5 -20.5s142.167 -20.5 177.5 -20.5
c69.333 0 137.666 16.333 204.999 49c32.667 -5.33301 56.667 -20.333 72 -45c-24.667 -102.667 -80.667 -208.167 -168 -316.5s-190.333 -211.833 -309 -310.5c58.667 -5.33301 109.834 -18 153.501 -38s77.667 -45 102 -75s42.333 -62.167 54 -96.5
s17.5 -71.5 17.5 -111.5c0 -98.667 -21.5 -191.167 -64.5 -277.5s-103.833 -156.166 -182.5 -209.499s-165.667 -80 -261 -80c-125.333 0 -223.5 28.333 -294.5 85s-106.5 136 -106.5 238z" />
    <glyph glyph-name="four" unicode="4" horiz-adv-x="1050" 
d="M41 522c67.333 70 144.165 182.834 230.498 338.501s129.5 275.167 129.5 358.5c0 54 -9 100.5 -27 139.5s-43 67.5 -75 85.5c51.333 59.333 107.333 90 168 92c56 1.33301 98.667 -12.167 128 -40.5s44 -74.833 44 -139.5c0 -80 -43.167 -201.333 -129.5 -364
s-172.833 -287.334 -259.5 -374.001c35.333 6 72.833 8.33301 112.5 7s68.834 -3.33301 87.501 -6s44.334 -6.66699 77.001 -12s59.667 -9 81 -11l168 809c9.33301 44.667 30.333 77.667 63 99s70.334 32 113.001 32c38 0 71 -9 99 -27l-187 -895c28 8 58 20.333 90 37
c22 -78.667 20 -138.5 -6 -179.5s-69 -65.833 -129 -74.5l-61 -293c-9.33301 -44.667 -30.333 -77.667 -63 -99s-70.334 -32 -113.001 -32c-38 0 -71 9 -99 27l84 401c-20 1.33301 -48 4 -84 8s-61.833 6.5 -77.5 7.5s-43 2.16699 -82 3.5s-71.833 0 -98.5 -4
c-28.667 -1.33301 -60.667 -7 -96 -17c-46 25.333 -75.333 66.333 -88 123z" />
    <glyph glyph-name="five" unicode="5" horiz-adv-x="1042" 
d="M25 307c0 38 5.33301 75.1699 16 111.503s26.5 69.833 47.5 100.5s49.167 55.334 84.5 74.001s75.333 28 120 28c38 0 70.667 -13.667 98 -41s38.333 -65.666 33 -114.999c-56.667 13.333 -101.167 5.5 -133.5 -23.5s-48.5 -70.5 -48.5 -124.5
c0 -55.333 14.667 -100.833 44 -136.5s72 -53.5 128 -53.5c76 0 137.333 34.333 184 103s70 168.667 70 300c0 75.333 -17.667 137.666 -53 186.999s-88.666 74 -159.999 74c-40.667 0 -90.667 -8.33301 -150 -25c-16 3.33301 -33.167 11.666 -51.5 24.999
s-31.833 28.333 -40.5 45l141 698c84.667 -14.667 160.167 -24.834 226.5 -30.501s140 -5.16699 221 1.5s153.167 23 216.5 49c2.66699 -30.667 4 -57 4 -79c0 -72.667 -17.167 -131.167 -51.5 -175.5s-86.166 -66.5 -155.499 -66.5c-100.667 0 -228.334 16.333 -383.001 49
l-86 -391c58.667 18 116.667 27 174 27c71.333 0 134.166 -9.83301 188.499 -29.5s97.5 -46.834 129.5 -81.501s56 -73.334 72 -116.001s24 -89.334 24 -140.001c0 -98.667 -21.5 -191.167 -64.5 -277.5s-103.833 -156.166 -182.5 -209.499s-165.667 -80 -261 -80
c-125.333 0 -223.5 28.333 -294.5 85s-106.5 136 -106.5 238z" />
    <glyph glyph-name="six" unicode="6" horiz-adv-x="1071" 
d="M43 498c0 80 7.49805 161.833 22.498 245.5s36.5 165.667 64.5 246s63.5 156 106.5 227s90.667 133.333 143 187s112.333 96 180 127s138.5 46.5 212.5 46.5c90.667 0 156.334 -19.333 197.001 -58s61 -85.667 61 -141c0 -15.333 -3 -31.833 -9 -49.5
s-15.333 -35.667 -28 -54s-31.667 -32.166 -57 -41.499s-54.666 -11.333 -87.999 -6c21.333 148.667 -17 223 -115 223c-49.333 0 -96 -17.5 -140 -52.5s-82.333 -82.667 -115 -143s-60.667 -127 -84 -200s-42 -150.833 -56 -233.5c85.333 76.667 173.333 115 264 115
c118 0 208.667 -35.333 272 -106s95 -159 95 -265c0 -54.667 -7.16699 -109.167 -21.5 -163.5s-36.666 -106.833 -66.999 -157.5s-66.5 -95.334 -108.5 -134.001s-92.833 -69.667 -152.5 -93s-124.167 -35 -193.5 -35c-64 0 -120.833 13.5 -170.5 40.5
s-89.834 64.333 -120.501 112s-53.667 102.167 -69 163.5s-23 128 -23 200zM312.998 530c0 -148.667 12.667 -253.335 38 -314.002s66 -91 122 -91c40.667 0 79.5 23.5 116.5 70.5s65.833 104.333 86.5 172s31 133.5 31 197.5c0 62.667 -16.5 113.834 -49.5 153.501
s-82.833 59.5 -149.5 59.5c-54.667 0 -116.667 -24.333 -186 -73c-6 -59.333 -9 -117.666 -9 -174.999z" />
    <glyph glyph-name="seven" unicode="7" horiz-adv-x="860" 
d="M70 1237c-27.333 94 -20 174.17 22 240.503s100.667 99.5 176 99.5c70.667 0 134.5 -7.16699 191.5 -21.5l158.5 -39c48.667 -11.667 102.667 -14.834 162 -9.50098c47.333 3.33301 102 15.666 164 36.999c17.333 -20 28.833 -41.5 34.5 -64.5
s1.83398 -43.833 -11.499 -62.5c-100.667 -113.333 -188.167 -230.5 -262.5 -351.5s-131.833 -237.833 -172.5 -350.5s-70.5 -219 -89.5 -319s-28.5 -196.667 -28.5 -290c0 -44.667 -18 -77.667 -54 -99s-76.667 -32 -122 -32c-38 0 -71 9 -99 27c0 90 12 185.167 36 285.5
s54.833 195.333 92.5 285s81.5 178.667 131.5 267s99.5 167.166 148.5 236.499s97.833 132 146.5 188c-55.333 -2 -120.333 3.16699 -195 15.5s-139.334 18.5 -194.001 18.5c-38.667 0 -81 -6.33301 -127 -19s-82 -26.667 -108 -42z" />
    <glyph glyph-name="eight" unicode="8" horiz-adv-x="993" 
d="M43 365c0 97.333 26.8311 185.33 80.498 263.997s134.834 142.667 243.501 192c-44.667 41.333 -79.167 84.333 -103.5 129s-36.5 97.334 -36.5 158.001c0 69.333 12.5 133.166 37.5 191.499s58 106 99 143s86.5 65.667 136.5 86s101 30.5 153 30.5
c102.667 0 184.167 -28.333 244.5 -85s91.5 -127.334 93.5 -212.001c2 -68 -18.167 -136.333 -60.5 -205s-103.166 -126.667 -182.499 -174c31.333 -24.667 58.5 -49.667 81.5 -75s45.333 -55.666 67 -90.999s38.167 -76.666 49.5 -123.999s17 -99.666 17 -156.999
s-9.66699 -111 -29 -161s-45.666 -93 -78.999 -129s-72 -67 -116 -93s-90.667 -45.5 -140 -58.5s-99.333 -19.5 -150 -19.5c-82 0 -154.333 18.333 -217 55s-109.834 84.334 -141.501 143.001s-47.5 122.667 -47.5 192zM290.998 380.997
c0 -69.333 15.8369 -125.668 47.5039 -169.001s80.5 -65 146.5 -65c57.333 0 106.166 20.667 146.499 62s60.5 99.333 60.5 174c0 42.667 -6.33301 82.167 -19 118.5s-31.334 69 -56.001 98s-48.834 54.167 -72.501 75.5s-52.834 45.333 -87.501 72
c-6.66699 4.66699 -11.667 8.33398 -15 11.001c-46.667 -50 -83.5 -108.167 -110.5 -174.5s-40.5 -133.833 -40.5 -202.5zM473.002 1202c0 -30 4.66797 -57.334 14.001 -82.001s24.833 -48.167 46.5 -70.5s41.167 -40.333 58.5 -54s42.666 -32.167 75.999 -55.5
c22.667 25.333 43.667 58.5 63 99.5s33 83.667 41 128s10.5 86 7.5 125s-16.5 71 -40.5 96s-57.333 37.167 -100 36.5c-45.333 -1.33301 -84.333 -21.166 -117 -59.499s-49 -92.833 -49 -163.5z" />
    <glyph glyph-name="nine" unicode="9" horiz-adv-x="1081" 
d="M53 180c0 12 1.66895 24.833 5.00195 38.5s9.5 28.334 18.5 44.001s20 29.334 33 41.001s30.5 20.5 52.5 26.5s46.667 6.66699 74 2c-21.333 -148.667 16.667 -223 114 -223c65.333 0 125.666 30.667 180.999 92s100.166 137.666 134.499 228.999s60.833 193 79.5 305
c-85.333 -74.667 -173.333 -112 -264 -112c-60 0 -113.833 11.667 -161.5 35s-86 55.166 -115 95.499s-51.167 86 -66.5 137s-23 105.833 -23 164.5c0 48.667 7.16699 97.334 21.5 146.001s36.5 95.5 66.5 140.5s66 85 108 120s92.833 63 152.5 84s124.167 31.5 193.5 31.5
c64 0 120.833 -13.5 170.5 -40.5s89.834 -64.333 120.501 -112s53.667 -102.167 69 -163.5s23 -128 23 -200c0 -80 -7.5 -161.833 -22.5 -245.5s-36.5 -165.667 -64.5 -246s-63.5 -156 -106.5 -227s-90.667 -133.333 -143 -187s-112.333 -96 -180 -127
s-138.5 -46.5 -212.5 -46.5c-90.667 0 -156.334 19.167 -197.001 57.5s-61 85.166 -61 140.499zM377.002 1055c0 -51.333 6.50098 -97 19.501 -137s34.667 -73 65 -99s68.166 -39 113.499 -39c57.333 0 119 24 185 72c6.66699 65.333 10 124 10 176
c0 148.667 -12.667 253.5 -38 314.5s-66 91.5 -122 91.5c-38 0 -72.333 -11.833 -103 -35.5s-55.167 -54.334 -73.5 -92.001s-32.333 -78.167 -42 -121.5s-14.5 -86.666 -14.5 -129.999z" />
    <glyph glyph-name="colon" unicode=":" horiz-adv-x="425" 
d="M8 211c2 40 17.499 73.833 46.499 101.5s63.5 41.5 103.5 41.5s73.333 -13.833 100 -41.5s39 -61.5 37 -101.5c-3.33301 -40 -19.5 -73.833 -48.5 -101.5s-63.5 -41.5 -103.5 -41.5s-73.167 13.833 -99.5 41.5s-38.166 61.5 -35.499 101.5zM85.999 813
c2 40 17.499 73.833 46.499 101.5s63.5 41.5 103.5 41.5s73.333 -13.833 100 -41.5s39 -61.5 37 -101.5c-3.33301 -40 -19.5 -73.833 -48.5 -101.5s-63.5 -41.5 -103.5 -41.5s-73.167 13.833 -99.5 41.5s-38.166 61.5 -35.499 101.5z" />
    <glyph glyph-name="semicolon" unicode=";" horiz-adv-x="485" 
d="M-43 -242c36 30.667 63.668 64 83.001 100s30 69.5 32 100.5s0 59 -6 84s-15 45.5 -27 61.5c5.33301 38 21.833 70.167 49.5 96.5s60.834 39.5 99.501 39.5c41.333 0 74 -13 98 -39s36 -59 36 -99c0 -76 -31.333 -152.833 -94 -230.5s-141.334 -133.167 -236.001 -166.5
c-12.667 -4 -23.334 -0.5 -32.001 10.5s-9.66699 25.167 -3 42.5zM115.001 813c2 40 17.332 73.833 45.999 101.5s63 41.5 103 41.5s73.333 -13.833 100 -41.5s39 -61.5 37 -101.5c-3.33301 -40 -19.333 -73.833 -48 -101.5s-63 -41.5 -103 -41.5s-73.167 13.833 -99.5 41.5
s-38.166 61.5 -35.499 101.5z" />
    <glyph glyph-name="less" unicode="&#x3c;" horiz-adv-x="688" 
d="M-10 547c131.333 117.333 288.336 278.33 471.003 482.997c25.333 28 54.666 44.5 87.999 49.5s63.833 0.833008 91.5 -12.5s50.5 -31.666 68.5 -54.999c-181.333 -200 -342.666 -356.333 -483.999 -469c80 -138 199 -291.667 357 -461
c-24.667 -23.333 -52.334 -41.166 -83.001 -53.499s-61.834 -16.166 -93.501 -11.499s-57.5 20 -77.5 46l-37 48.5l-38.5 50.5l-35.5 47l-37.5 50l-34 46c-15.667 21.333 -27.334 37.833 -35.001 49.5l-31 46c-13 19 -23.833 35.667 -32.5 50l-28.5 47
c-10.333 17 -19.833 33.5 -28.5 49.5z" />
    <glyph glyph-name="equal" unicode="=" horiz-adv-x="731" 
d="M25 530c0 31.333 11.832 59.998 35.499 85.998s56.834 39 99.501 39h465c10.667 -17.333 16 -37.666 16 -60.999c0 -31.333 -11.333 -58.666 -34 -81.999s-55.667 -35 -99 -35h-465c-12 12 -18 29.667 -18 53zM93.999 857.998c0 31.333 11.832 59.998 35.499 85.998
s56.834 39 99.501 39h465c11.333 -18 17 -38.333 17 -61c0 -31.333 -11.333 -58.666 -34 -81.999s-55.667 -35 -99 -35h-465c-12.667 12.667 -19 30.334 -19 53.001z" />
    <glyph glyph-name="greater" unicode="&#x3e;" horiz-adv-x="688" 
d="M-20 82c94 102.667 178.164 191.002 252.497 265.002s150.5 142 228.5 204c-77.333 136.667 -195.666 290.334 -354.999 461.001c24.667 23.333 52.334 41.166 83.001 53.499s61.834 16 93.501 11s57.5 -20.5 77.5 -46.5l46.5 -60.5l48.5 -63.5l42.5 -57l46.5 -63
l40 -56.5c18 -25.667 32.167 -46.667 42.5 -63l35.5 -57c13.333 -21.667 25.333 -42.5 36 -62.5c-128.667 -114.667 -285.667 -276 -471 -484c-25.333 -28 -54.5 -44.333 -87.5 -49s-63.333 -0.333984 -91 12.999s-50.5 31.666 -68.5 54.999z" />
    <glyph glyph-name="question" unicode="?" horiz-adv-x="722" 
d="M10 1257c0 88.667 35.167 164.168 105.5 226.501s157.5 93.5 261.5 93.5c59.333 0 114.5 -11 165.5 -33s93.5 -57 127.5 -105s51 -105 51 -171c0 -44.667 -5.33301 -86 -16 -124s-28 -74.667 -52 -110s-45.5 -64.166 -64.5 -86.499s-46.5 -51.5 -82.5 -87.5l-63.5 -67.5
c-13.667 -15 -32 -37.667 -55 -68s-40 -57.5 -51 -81.5s-21 -53.167 -30 -87.5s-13.5 -69.833 -13.5 -106.5c0 -36 -16 -61.833 -48 -77.5s-75.333 -15.167 -130 1.5c0 51.333 4.16699 100 12.5 146s17.333 84.167 27 114.5s24.834 63.833 45.501 100.5
s36.834 63.5 48.501 80.5l56.5 78.5c25.333 33.333 44.666 59.666 57.999 78.999s28.333 44.833 45 76.5s28.667 64.167 36 97.5s11 69.666 11 108.999c0 47.333 -10.833 83.5 -32.5 108.5s-47.834 37.5 -78.501 37.5c-48.667 0 -86.834 -16.333 -114.501 -49
s-41.5 -71.667 -41.5 -117c0 -44 14.333 -77.333 43 -100c-25.333 -30 -58.666 -45 -99.999 -45c-80.667 0 -121 55.667 -121 167zM49 121.001c2 40 17.499 73.833 46.499 101.5s63.5 41.5 103.5 41.5s73.333 -13.833 100 -41.5s39 -61.5 37 -101.5
c-3.33301 -40 -19.5 -74 -48.5 -102s-63.5 -42 -103.5 -42s-73.167 14 -99.5 42s-38.166 62 -35.499 102z" />
    <glyph glyph-name="at" unicode="@" horiz-adv-x="1331" 
d="M-74 557c0 83.333 10.1621 162.67 30.4951 238.003s52.333 145.666 96 210.999s96.834 121.666 159.501 168.999s138.834 84.5 228.501 111.5s188.5 40.5 296.5 40.5c82.667 0 157.334 -9.66699 224.001 -29s122.5 -45.666 167.5 -78.999s82.667 -73 113 -119
s52.166 -94.5 65.499 -145.5s20 -104.833 20 -161.5c0 -87.333 -23.167 -172.833 -69.5 -256.5s-111.833 -153.334 -196.5 -209.001s-176.334 -83.5 -275.001 -83.5c-88 0 -133 47 -135 141c-66 -94 -136.333 -141 -211 -141c-32 0 -59.667 7.83301 -83 23.5
s-40.666 36.167 -51.999 61.5s-19.333 50.5 -24 75.5s-7 50.5 -7 76.5c0 76.667 13.833 153 41.5 229s66.5 137.667 116.5 185c60.667 54.667 122 82 184 82c66 0 110 -24 132 -72c22 42.667 59.333 64 112 64c28.667 0 51.334 -6.33301 68.001 -19l-99 -467
c-15.333 -70.667 0.666992 -106 48 -106c46.667 0 89.667 19.667 129 59s69.833 90.166 91.5 152.499s32.5 127.5 32.5 195.5c0 66 -7.5 125.167 -22.5 177.5s-38.667 98.5 -71 138.5s-75.666 70.833 -129.999 92.5s-118.833 32.5 -193.5 32.5
c-118.667 0 -222.167 -30.5 -310.5 -91.5s-154.666 -142.667 -198.999 -245s-66.5 -217.5 -66.5 -345.5c0 -152.667 39.167 -275.167 117.5 -367.5s194.833 -138.5 349.5 -138.5c82 0 160.667 13.667 236 41s130.666 61.333 165.999 102
c24.667 -5.33301 42.167 -16.333 52.5 -33s14 -33.5 11 -50.5s-9.83301 -32.167 -20.5 -45.5c-32.667 -43.333 -85.5 -78 -158.5 -104s-165.833 -39 -278.5 -39c-109.333 0 -207.666 16.167 -294.999 48.5s-159.333 77.5 -216 135.5s-100 126.5 -130 205.5
s-45 165.5 -45 259.5zM452.995 492.004c0 -26.667 6.16797 -47.667 18.501 -63s28.5 -23 48.5 -23c47.333 0 93 26.333 137 79l76 367c-60 38.667 -115.333 29.667 -166 -27c-38.667 -43.333 -67.334 -94.833 -86.001 -154.5s-28 -119.167 -28 -178.5z" />
    <glyph glyph-name="A" unicode="A" horiz-adv-x="1325" 
d="M-78 264c0 102.667 58.001 154.001 174.001 154.001c39.333 0 73.666 -11.667 102.999 -35c-28.667 -65.333 -43 -135.666 -43 -210.999v-18c35.333 13.333 69.666 34.5 102.999 63.5s71.833 75 115.5 138s87.5 141 131.5 234s93.333 214 148 363s111 320.167 169 513.5
h-41c-86 0 -149.833 -19.667 -191.5 -59s-62.5 -86.333 -62.5 -141c0 -47.333 13.667 -87 41 -119c-30.667 -14 -60 -21 -88 -21c-50 0 -90.167 19.167 -120.5 57.5s-45.5 84.166 -45.5 137.499c0 34 6.5 66.667 19.5 98s32.667 60.666 59 87.999s62 49.166 107 65.499
s96.5 24.5 154.5 24.5c57.333 0 122.833 -4.5 196.5 -13.5s134.834 -17.667 183.501 -26s103 -13.833 163 -16.5c10.667 -0.666992 20.667 -1 30 -1c45.333 0 80.333 5.33301 105 16c19.333 -11.333 29 -29 29 -53c0 -21.333 -6.5 -40 -19.5 -56s-30.5 -24 -52.5 -24h-8
l-233 -1093c-5.33301 -24.667 -8 -46.334 -8 -65.001c0 -58 25 -87 75 -87c30 0 65.167 11 105.5 33s74.833 45.333 103.5 70c23.333 -10 35 -26.667 35 -50c0 -15.333 -6.33301 -30.333 -19 -45c-60 -60.667 -121.333 -109.5 -184 -146.5s-119.334 -55.5 -170.001 -55.5
c-24.667 0 -48.167 2.5 -70.5 7.5s-44 13.167 -65 24.5s-37.833 26.333 -50.5 45s-21.667 41.667 -27 69c-2 10.667 -3.33301 22.334 -4 35.001c0 18.667 2.66699 39.334 8 62.001l70 332h-230c-88.667 -204.667 -174.667 -351.667 -258 -441s-170.666 -134 -261.999 -134
c-52.667 0 -95.167 24.5 -127.5 73.5s-48.5 117.833 -48.5 206.5zM668.001 678.001h203.998l164 770c-61.333 6.66699 -98.666 10.667 -111.999 12c-89.333 -313.333 -174.666 -574 -255.999 -782z" />
    <glyph glyph-name="B" unicode="B" horiz-adv-x="1275" 
d="M66 1200c0 54.667 20.835 106.001 62.502 154.001s95.667 88 162 120s140.166 57.167 221.499 75.5s162 27.5 242 27.5c53.333 0 101.166 -2.66699 143.499 -8s82.5 -14.666 120.5 -27.999s69.5 -31 94.5 -53s44.833 -50.5 59.5 -85.5s22 -75.833 22 -122.5
c0 -81.333 -28.667 -163.5 -86 -246.5s-136 -151.167 -236 -204.5l2 -2c102.667 0 180 -24 232 -72s78 -110.667 78 -188c0 -62.667 -16.5 -128 -49.5 -196s-77.667 -130.833 -134 -188.5s-126.833 -105.167 -211.5 -142.5s-173.667 -56 -267 -56
c-115.333 0 -213 14.333 -293 43s-120 66 -120 112c0 24 6.66699 45.667 20 65s33.666 33.333 60.999 42c29.333 -25.333 61 -47.333 95 -66l233 1102c9.33301 44.667 30.333 77.667 63 99s70.334 32 113.001 32c38 0 71 -9 99 -27l-119 -555
c81.333 24.667 150.833 80 208.5 166s86.5 172 86.5 258c0 78.667 -20.167 136 -60.5 172s-102.833 54 -187.5 54c-68.667 0 -136.334 -13.333 -203.001 -40s-123.167 -66.334 -169.5 -119.001s-69.5 -111.667 -69.5 -177c0 -48.667 13.333 -88.334 40 -119.001
c-29.333 -13.333 -58.666 -20 -87.999 -20c-50 0 -90 19 -120 57s-45 83.667 -45 137zM520.002 115.001h2.00098c68.667 0 134 21.5 196 64.5s111.5 98.667 148.5 167s55.5 138.5 55.5 210.5c0 55.333 -15.167 99.5 -45.5 132.5s-74.833 49.5 -133.5 49.5
c-28.667 0 -59.334 -4 -92.001 -12z" />
    <glyph glyph-name="C" unicode="C" 
d="M51 582c0 128.667 18.167 253.834 54.5 375.501s84.833 227.834 145.5 318.501s133.334 163.5 218.001 218.5s172.667 82.5 264 82.5c48 0 90.667 -7.66699 128 -23s67.166 -35.5 89.499 -60.5s39.166 -52.5 50.499 -82.5s17 -61.333 17 -94
c0 -56.667 -15.5 -105.667 -46.5 -147s-70.833 -62 -119.5 -62c-21.333 0 -44.166 7.16699 -68.499 21.5s-41.833 34.5 -52.5 60.5c30 12 53.333 32 70 60c16 26.667 24 53.334 24 80.001c0 29.333 -10.667 54.666 -32 75.999c-20.667 21.333 -50 32 -88 32
c-58.667 0 -116.167 -38.333 -172.5 -115s-102.5 -179 -138.5 -307s-54 -261.333 -54 -400c0 -62.667 5.5 -120 16.5 -172s27.667 -98.5 50 -139.5s52.5 -73 90.5 -96s82 -34.5 132 -34.5c117.333 0 239.333 35.667 366 107c23.333 -10 35 -26.667 35 -50
c0 -18 -6 -33 -18 -45c-134.667 -134.667 -300.667 -202 -498 -202c-78 0 -147.167 16.167 -207.5 48.5s-108.833 76.666 -145.5 132.999s-64.167 119.666 -82.5 189.999s-27.5 145.833 -27.5 226.5z" />
    <glyph glyph-name="D" unicode="D" horiz-adv-x="1415" 
d="M-74 127c0 48 19.3262 90.998 57.9932 128.998s90.334 57 155.001 57c42.667 0 95.334 -18.333 158.001 -55c24.667 40 45 95.333 61 166l183 858c9.33301 44.667 30.333 77.667 63 99s70.334 32 113.001 32c37.333 0 70 -9 98 -27l-194 -890
c-32 -141.333 -82 -255.333 -150 -342c55.333 -26 108 -39 158 -39c64 0 123.5 17.167 178.5 51.5s101.5 79.833 139.5 136.5s70.667 121.834 98 195.501s47.333 149.834 60 228.501s19 157.334 19 236.001c0 56.667 -4.16699 110 -12.5 160s-22.166 97 -41.499 141
s-43.166 81.667 -71.499 113s-63.666 56.166 -105.999 74.499s-89.833 27.5 -142.5 27.5c-79.333 0 -149.833 -9.16699 -211.5 -27.5s-111 -43.166 -148 -74.499s-64.833 -66.666 -83.5 -105.999s-28 -81.333 -28 -126c0 -48.667 13.333 -88.334 40 -119.001
c-29.333 -13.333 -58.666 -20 -87.999 -20c-50 0 -90 19 -120 57s-45 83.667 -45 137c0 52 15.167 100.5 45.5 145.5s74.666 84.833 132.999 119.5s134 62 227 82s198.5 30 316.5 30c103.333 0 194.5 -16.333 273.5 -49s141.833 -77.5 188.5 -134.5
s81.5 -121.333 104.5 -193s34.5 -149.5 34.5 -233.5c0 -92 -10.167 -184.333 -30.5 -277s-51.166 -181.334 -92.499 -266.001s-90.666 -159.667 -147.999 -225s-125.833 -117.5 -205.5 -156.5s-164.834 -58.5 -255.501 -58.5c-92 0 -182 30 -270 90
c-78.667 -60 -171.334 -90 -278.001 -90c-53.333 0 -97.166 12.833 -131.499 38.5s-51.5 60.5 -51.5 104.5zM48.9932 185.998c0 -15.333 6.83301 -27.668 20.5 -37.001s31.5 -14 53.5 -14c45.333 0 86.333 18.333 123 55c-44 37.333 -79 56 -105 56
c-27.333 0 -49.5 -6.16699 -66.5 -18.5s-25.5 -26.166 -25.5 -41.499z" />
    <glyph glyph-name="E" unicode="E" 
d="M86 389c0 103.333 32.168 200.166 96.501 290.499s151.5 152.5 261.5 186.5c-54.667 36 -95.5 80.333 -122.5 133s-40.5 109.334 -40.5 170.001c0 50.667 10 100.167 30 148.5s48 91.833 84 130.5s82.333 69.834 139 93.501s119 35.5 187 35.5
c111.333 0 194.833 -24.333 250.5 -73s83.5 -109 83.5 -181c0 -59.333 -15.667 -110 -47 -152s-71.666 -63 -120.999 -63c-20 0 -42.167 7.16699 -66.5 21.5s-41.833 34.5 -52.5 60.5c30 8.66699 54.167 27.667 72.5 57s27.5 60.666 27.5 93.999
c0 34 -10.167 62.667 -30.5 86s-50.166 35 -89.499 35c-75.333 0 -135.166 -29.833 -179.499 -89.5s-66.5 -129.5 -66.5 -209.5c0 -69.333 17.833 -131.333 53.5 -186s87.5 -90.334 155.5 -107.001c0.666992 -5.33301 1 -10.333 1 -15c0 -22 -7.33301 -42.667 -22 -62
c-64.667 -4.66699 -121.5 -26.167 -170.5 -64.5s-85.333 -84 -109 -137s-35.5 -108.167 -35.5 -165.5c0 -74 20.667 -136.167 62 -186.5s101.666 -75.5 180.999 -75.5c65.333 0 131.166 9.5 197.499 28.5s126.166 48.5 179.499 88.5c23.333 -10 35 -26.667 35 -50
c0 -18 -6 -33 -18 -45c-67.333 -67.333 -149.5 -117.833 -246.5 -151.5s-194.5 -50.5 -292.5 -50.5c-64.667 0 -122.334 11 -173.001 33s-91.167 52 -121.5 90s-53.333 80.833 -69 128.5s-23.5 98.834 -23.5 153.501z" />
    <glyph glyph-name="F" unicode="F" horiz-adv-x="991" 
d="M66 1169c0 54 9.33594 103 28.0029 147s44 80.167 76 108.5s67.167 53 105.5 74s79.666 37 123.999 48s85.333 18.833 123 23.5s74.5 7 110.5 7c44.667 0 99.167 -3.83301 163.5 -11.5l164.5 -19.5c20.667 -2.66699 43 -4 67 -4c28 0 58.667 1.66699 92 5
c60 6.66699 117.333 22 172 46c8 -32 12 -62 12 -90c0 -50.667 -13 -94.667 -39 -132c-40 -58 -97.667 -87 -173 -87c-8.66699 0 -17.834 0.5 -27.501 1.5s-20.334 3 -32.001 6l-31 8c-9 2.33301 -20.5 6.16602 -34.5 11.499l-33 12.5c-8 3 -20.167 8.16699 -36.5 15.5
l-34 15c-6.33301 2.66699 -18.5 8.16699 -36.5 16.5s-29.333 13.5 -34 15.5l-115 -536c14 -1.33301 36.833 -4.33301 68.5 -9s55.334 -7.66699 71.001 -9s35.334 -0.333008 59.001 3s45.5 9.66602 65.5 18.999c13.333 -16 19.333 -33.667 18 -53s-6.83301 -37.5 -16.5 -54.5
s-24.834 -31.333 -45.501 -43s-43.667 -17.5 -69 -17.5c-18 0 -36.833 1.83301 -56.5 5.5s-41.667 8.83398 -66 15.501s-42.833 11.334 -55.5 14.001l-129 -606c-9.33301 -44.667 -30.333 -77.667 -63 -99s-70.334 -32 -113.001 -32c-47.333 0 -83.333 8.66699 -108 26
l325 1442c-35.333 -3.33301 -69.5 -12.666 -102.5 -27.999s-63.167 -36.333 -90.5 -63s-49.333 -61 -66 -103s-25 -88.667 -25 -140c0 -48.667 13.333 -88.334 40 -119.001c-29.333 -13.333 -58 -20 -86 -20c-50.667 0 -91.167 18.667 -121.5 56s-45.5 82 -45.5 134z" />
    <glyph glyph-name="G" unicode="G" horiz-adv-x="1171" 
d="M51 582c0 128.667 18.166 253.832 54.499 375.499s84.833 227.834 145.5 318.501s133.334 163.5 218.001 218.5s172.667 82.5 264 82.5c115.333 0 197.333 -40 246 -120c25.333 -42 38 -87.333 38 -136c0 -22 -2.33301 -44.333 -7 -67c-14 -66.667 -43.333 -115 -88 -145
c-24 -16 -50 -24 -78 -24c-20 0 -42.167 7.16699 -66.5 21.5s-41.833 34.5 -52.5 60.5c34 20 57.667 50.333 71 91c6.66699 18 10 35.667 10 53c0 20 -4.33301 39 -13 57c-16 32.667 -45.333 49 -88 49c-44 0 -88 -22.333 -132 -67s-83.167 -103.334 -117.5 -176.001
s-62.166 -158.5 -83.499 -257.5s-32 -199.167 -32 -300.5c0 -62.667 5.5 -120 16.5 -172s27.667 -98.5 50 -139.5s52.5 -73 90.5 -96s82 -34.5 132 -34.5c64 0 122.833 34.333 176.5 103s84.834 163.334 93.501 284.001c-12.667 -2.66699 -34.167 -8.33398 -64.5 -17.001
s-56.833 -15.167 -79.5 -19.5s-45 -6.5 -67 -6.5c-34 0 -65 8 -93 24s-49 35.667 -63 59c-14.667 24 -22 50 -22 78c0 26.667 8.33301 50.334 25 71.001c36.667 -20 75.5 -30 116.5 -30s89.667 5 146 15s102.5 15 138.5 15c34 0 64.167 -6.33301 90.5 -19s46 -28.5 59 -47.5
s19.5 -40.167 19.5 -63.5s-7.33301 -45.666 -22 -66.999c-14.667 14.667 -34.334 23 -59.001 25c-8 -101.333 -28 -191.166 -60 -269.499s-71.833 -140.5 -119.5 -186.5s-99.334 -80.5 -155.001 -103.5s-114.167 -34.5 -175.5 -34.5c-78 0 -147.167 16.167 -207.5 48.5
s-108.833 76.666 -145.5 132.999s-64.167 119.666 -82.5 189.999s-27.5 145.833 -27.5 226.5z" />
    <glyph glyph-name="H" unicode="H" horiz-adv-x="1376" 
d="M66 1321c0 34 6.50293 66.6719 19.5029 98.0049s32.667 60.666 59 87.999s62 49.166 107 65.499s96.5 24.5 154.5 24.5c36.667 0 79 -4.5 127 -13.5s88 -17.5 120 -25.5c32.667 -8 67.667 -13.333 105 -16c6.66699 -0.666992 13 -1 19 -1c27.333 0 47.666 5 60.999 15
c18.667 -11.333 28 -29 28 -53c0 -21.333 -6.33301 -40 -19 -56s-30 -24 -52 -24h-19l-117 -542c90.667 0 194.667 5.33301 312 16l108 508c9.33301 44.667 30.333 77.667 63 99s70.334 32 113.001 32c35.333 0 68.333 -9 99 -27l-254 -1179
c-4.66699 -25.333 -7.33398 -47.333 -8.00098 -66c0 -22 3.66699 -39.333 11 -52c12.667 -22.667 34 -34 64 -34s65.167 11 105.5 33s74.833 45.333 103.5 70c23.333 -10 35 -26.667 35 -50c0 -16 -6 -31 -18 -45c-68.667 -64 -131.667 -113.667 -189 -149
s-113.333 -53 -168 -53c-26.667 0 -50.834 2.66699 -72.501 8s-42.834 14.5 -63.501 27.5s-36.334 30.667 -47.001 53s-18 50.833 -22 85.5c-1.33301 9.33301 -2 18.666 -2 27.999c0 28 4.33301 59.667 13 95l108 514c-95.333 -33.333 -201.666 -51.333 -318.999 -54
l-133 -626c-9.33301 -44.667 -30.333 -77.667 -63 -99s-70.334 -32 -113.001 -32c-48 0 -84.333 8.66699 -109 26l330 1456h-11c-86 0 -149.667 -19.667 -191 -59s-62 -86.333 -62 -141c0 -48.667 13.333 -88.334 40 -119.001c-31.333 -14 -60.666 -21 -87.999 -21
c-50 0 -90 19.167 -120 57.5s-45 84.166 -45 137.499z" />
    <glyph glyph-name="I" unicode="I" horiz-adv-x="784" 
d="M66 1321c0 34 6.50098 66.6709 19.501 98.0039s32.667 60.666 59 87.999s62 49.166 107 65.499s96.5 24.5 154.5 24.5c36.667 0 79 -4.5 127 -13.5s88 -17.5 120 -25.5c32.667 -8 67.667 -13.333 105 -16c6.66699 -0.666992 13 -1 19 -1c27.333 0 47.666 5 60.999 15
c18.667 -11.333 28 -29 28 -53c0 -21.333 -6.33301 -40 -19 -56s-30 -24 -52 -24h-19l-278 -1308c-9.33301 -44.667 -30.333 -77.667 -63 -99s-70.334 -32 -113.001 -32c-48 0 -84.333 8.66699 -109 26l330 1456h-11c-86 0 -149.667 -19.667 -191 -59s-62 -86.333 -62 -141
c0 -48.667 13.333 -88.334 40 -119.001c-31.333 -14 -60.666 -21 -87.999 -21c-50 0 -90 19.167 -120 57.5s-45 84.166 -45 137.499z" />
    <glyph glyph-name="J" unicode="J" horiz-adv-x="1097" 
d="M35 -113c0 77.333 23.332 144.832 69.999 202.499s108.667 86.5 186 86.5c74 0 125 -21 153 -63c13.333 -21.333 20 -46.666 20 -75.999s-6.66699 -62.666 -20 -99.999c-25.333 24 -57.333 36 -96 36c-48.667 0 -85.667 -14.167 -111 -42.5s-38 -61.833 -38 -100.5
c0 -32 12.5 -60.5 37.5 -85.5s58.167 -37.5 99.5 -37.5c62 0 112 33.833 150 101.5s76.667 190.167 116 367.5l281 1290c-85.333 0 -148.666 -19.667 -189.999 -59s-62 -86.333 -62 -141c0 -47.333 13.667 -87 41 -119c-30.667 -14 -60 -21 -88 -21
c-50 0 -90.167 19.167 -120.5 57.5s-45.5 84.166 -45.5 137.499c0 34 6.5 66.667 19.5 98s32.667 60.666 59 87.999s62 49.166 107 65.499s96.5 24.5 154.5 24.5c36.667 0 79 -4.5 127 -13.5s88 -17.5 120 -25.5s67 -13.333 105 -16c6.66699 -0.666992 13 -1 19 -1
c27.333 0 47.666 5 60.999 15c19.333 -11.333 29 -29 29 -53c0 -21.333 -6.5 -40 -19.5 -56s-30.5 -24 -52.5 -24c-11.333 0 -19.666 0.666992 -24.999 2l-280 -1329c-36 -168 -96.5 -294.667 -181.5 -380s-192.5 -128 -322.5 -128c-51.333 0 -97 8.5 -137 25.5
s-71.667 39.833 -95 68.5s-41 60.334 -53 95.001s-18 71.334 -18 110.001z" />
    <glyph glyph-name="K" unicode="K" horiz-adv-x="1351" 
d="M66 1321c0 34 6.49512 66.667 19.4951 98s32.667 60.666 59 87.999s62 49.166 107 65.499s96.5 24.5 154.5 24.5c36.667 0 79 -4.5 127 -13.5s88 -17.5 120 -25.5c32.667 -8 67.667 -13.333 105 -16c6.66699 -0.666992 13 -1 19 -1c27.333 0 47.666 5 60.999 15
c18.667 -11.333 28 -29 28 -53c0 -21.333 -6.33301 -40 -19 -56s-30 -24 -52 -24h-19l-133 -628l49 16c46 26.667 88.167 57.834 126.5 93.501s71.333 74.334 99 116.001s51.834 82.667 72.501 123s39 85 55 134s28.667 91.5 38 127.5s19 77 29 123
c20.667 10.667 46 16 76 16c36 0 68.5 -11.5 97.5 -34.5s43.5 -52.5 43.5 -88.5c0 -92.667 -33.667 -188.167 -101 -286.5s-160.666 -195.166 -279.999 -290.499c44 -444 125.333 -666 244 -666c26.667 0 54.834 10 84.501 30s54.834 44.333 75.501 73
c20 -8.66699 30 -24.667 30 -48c0 -18 -7.66699 -40.667 -23 -68s-36.166 -54.666 -62.499 -81.999s-60.333 -50.666 -102 -69.999s-85.5 -29 -131.5 -29c-45.333 0 -86.5 14.833 -123.5 44.5s-67.5 67.667 -91.5 114s-44.833 102.166 -62.5 167.499s-31.167 129 -40.5 191
s-16.666 128.333 -21.999 199l-105 -14l-120 -571c-9.33301 -44.667 -30.333 -77.667 -63 -99s-70.334 -32 -113.001 -32c-48 0 -84.333 8.66699 -109 26l330 1456h-11c-86 0 -149.667 -19.667 -191 -59s-62 -86.333 -62 -141c0 -48.667 13.333 -88.334 40 -119.001
c-31.333 -14 -60.666 -21 -87.999 -21c-50 0 -90 19.167 -120 57.5s-45 84.166 -45 137.499z" />
    <glyph glyph-name="L" unicode="L" horiz-adv-x="1052" 
d="M-93 64c-10.667 20.667 -16 41.666 -16 62.999c0 24 6.33301 48.667 19 74c26 52.667 69 87 129 103c21.333 6 43.666 9 66.999 9c59.333 0 119 -7.33301 179 -22c15.333 36.667 29 81 41 133l221 1049c-76.667 -2 -135.5 -23.167 -176.5 -63.5
s-61.5 -93.166 -61.5 -158.499c0 -30.667 9.66699 -66 29 -106c-34.667 -8 -65.334 -12 -92.001 -12c-9.33301 0 -18.666 0.666992 -27.999 2c-33.333 4 -60.166 15.333 -80.499 34s-35 39.667 -44 63s-13.5 49 -13.5 77c0 190.667 111.667 286 335 286h9
c36 0 78.167 -4 126.5 -12s88.333 -15.5 120 -22.5s66.5 -11.167 104.5 -12.5c4.66699 0 9 -0.333008 13 -1c31.333 0 54 5.33301 68 16c19.333 -11.333 29 -29.333 29 -54c0 -21.333 -6.5 -39.833 -19.5 -55.5s-30.5 -23.5 -52.5 -23.5h-22l-203 -934
c-24.667 -106 -57.667 -193.667 -99 -263c114.667 -35.333 206.334 -53 275.001 -53c65.333 0 122.5 10.167 171.5 30.5s88.167 43.833 117.5 70.5c22.667 -10 34 -26.667 34 -50c0 -14 -10.333 -34.333 -31 -61s-47.167 -54 -79.5 -82s-72.333 -52.333 -120 -73
s-94.834 -31 -141.501 -31c-77.333 0 -142 10 -194 30s-99.333 47.333 -142 82c-86.667 -72 -194 -108 -322 -108c-74 0 -124 25.333 -150 76zM24 209.999c-6 -8.66699 -9.00195 -17 -9.00195 -25c0 -10 5 -19 15 -27c14 -11.333 36 -17 66 -17
c54.667 0 101.334 23.333 140.001 70c-40.667 23.333 -83 35 -127 35c-39.333 0 -67.666 -12 -84.999 -36z" />
    <glyph glyph-name="M" unicode="M" horiz-adv-x="1943" 
d="M-6 264c0 102.667 58.001 154.004 174.001 154.004c38.667 0 72.667 -11.667 102 -35c-28.667 -65.333 -43 -135.666 -43 -210.999v-18c35.333 13.333 69.833 34.5 103.5 63.5s72.167 75 115.5 138s87.166 141 131.499 234s93.833 214 148.5 363s111 320.167 169 513.5
h-10c-86 0 -149.833 -19.667 -191.5 -59s-62.5 -86.333 -62.5 -141c0 -47.333 13.667 -87 41 -119c-30.667 -14 -60 -21 -88 -21c-50 0 -90.167 19.167 -120.5 57.5s-45.5 84.166 -45.5 137.499c0 34 6.5 66.667 19.5 98s32.667 60.666 59 87.999s62 49.166 107 65.499
s96.5 24.5 154.5 24.5c36.667 0 79 -4.5 127 -13.5s88 -17.5 120 -25.5c32.667 -8 67.667 -13.333 105 -16c6.66699 -0.666992 13 -1 19 -1c27.333 0 47.666 5 60.999 15c19.333 -11.333 29 -29 29 -53c0 -21.333 -6.5 -40 -19.5 -56s-30.5 -24 -52.5 -24h-2l-74 -1089
l475 1071c35.333 87.333 94 131 176 131c47.333 0 85 -9 113 -27l-168 -1179c-2.66699 -22 -4 -41.333 -4 -58c0.666992 -26.667 4.33398 -47 11.001 -61c12 -22 32.333 -33 61 -33c30 0 65.167 11 105.5 33s74.833 45.333 103.5 70c22.667 -10 34 -26.667 34 -50
c0 -16 -6 -31 -18 -45c-130 -134.667 -247.333 -202 -352 -202c-30.667 0 -58.834 4 -84.501 12s-49.5 20.667 -71.5 38c-21.333 17.333 -36.666 42.666 -45.999 75.999c-5.33301 18.667 -7.66602 39.667 -6.99902 63c0 16.667 1.33301 34.667 4 54l137 926l-446 -1049
c-17.333 -44.667 -40.333 -75.834 -69 -93.501s-63.667 -26.5 -105 -26.5c-38.667 0 -71.667 8.66699 -99 26l74 908l10 239c-90.667 -290 -177.334 -522 -260.001 -696s-161.5 -297 -236.5 -369s-154.5 -108 -238.5 -108c-52.667 0 -95.167 24.5 -127.5 73.5
s-48.5 117.833 -48.5 206.5z" />
    <glyph glyph-name="N" unicode="N" horiz-adv-x="1374" 
d="M0 264c0 102.667 58 154.006 174 154.006c38.667 0 72.667 -11.667 102 -35c-28.667 -65.333 -43 -135.666 -43 -210.999v-10c160 102.667 300 530 420 1282l-6 22h-2c-86 0 -149.833 -19.667 -191.5 -59s-62.5 -86.333 -62.5 -141c0 -47.333 13.667 -87 41 -119
c-30.667 -14 -60 -21 -88 -21c-50 0 -90.167 19.167 -120.5 57.5s-45.5 84.166 -45.5 137.499c0 34 6.5 66.667 19.5 98s32.667 60.666 59 87.999s62 49.166 107 65.499s96.5 24.5 154.5 24.5c36.667 0 79 -4.5 127 -13.5s88 -17.5 120 -25.5
c32.667 -8 67.667 -13.333 105 -16c6.66699 -0.666992 13 -1 19 -1c27.333 0 47.666 5 60.999 15c19.333 -11.333 29 -29 29 -53c0 -21.333 -6.5 -40 -19.5 -56s-30.5 -24 -52.5 -24h-2l221 -956c66 258 99 480.667 99 668s-36.333 330.666 -109 429.999
c39.333 35.333 95.333 53 168 53c90 0 135 -56.667 135 -170c0 -230 -52.333 -529 -157 -897l-160 -557c-19.333 -6.66699 -37 -10 -53 -10c-40.667 0 -66 22.333 -76 67l-256 1116c-27.333 -157.333 -55.833 -298.333 -85.5 -423s-59.667 -229.334 -90 -314.001
s-60.666 -156.834 -90.999 -216.501s-61.333 -105.834 -93 -138.501s-62 -56 -91 -70s-59.167 -21 -90.5 -21c-52.667 0 -95.167 24.5 -127.5 73.5s-48.5 117.833 -48.5 206.5z" />
    <glyph glyph-name="O" unicode="O" horiz-adv-x="1085" 
d="M6 582c0 75.333 7.00098 151.832 21.001 229.499s34.167 153.5 60.5 227.5s59.833 143.5 100.5 208.5s86 122 136 171s107.333 87.667 172 116s132.667 42.5 204 42.5c68.667 0 129.334 -14 182.001 -42s94.834 -66.5 126.501 -115.5s55.5 -104.667 71.5 -167
s24 -130.166 24 -203.499c0 -80.667 -7.16699 -162.834 -21.5 -246.501s-34.833 -165 -61.5 -244s-60.334 -153.333 -101.001 -223s-85.834 -130.5 -135.501 -182.5s-106.5 -93.167 -170.5 -123.5s-130.667 -45.5 -200 -45.5c-67.333 0 -127.5 15.833 -180.5 47.5
s-95.833 75.334 -128.5 131.001s-57.334 119 -74.001 190s-25 147.5 -25 229.5zM295.001 626.999c0 -54 4.16406 -103.669 12.4971 -149.002s20.833 -85.666 37.5 -120.999s38.834 -63 66.501 -83s59.834 -30 96.501 -30s73.834 10.333 111.501 31s74.5 53 110.5 97
s68 96.667 96 158s50.667 136.833 68 226.5s26 186.5 26 290.5c0 117.333 -19.5 208.333 -58.5 273s-88.5 97 -148.5 97c-48 0 -94.167 -16.5 -138.5 -49.5s-83 -76.667 -116 -131s-62 -115.666 -87 -183.999s-44 -139.333 -57 -213s-19.5 -144.5 -19.5 -212.5z" />
    <glyph glyph-name="P" unicode="P" horiz-adv-x="1292" 
d="M66 1200c0 78.667 31.9961 146.835 95.9961 204.502s149.333 100.834 256 129.501s227.334 43 362.001 43c87.333 0 163.833 -9.33301 229.5 -28s117.834 -44.667 156.501 -78s67.334 -70.833 86.001 -112.5s28 -87.5 28 -137.5c0 -90 -16.667 -173.333 -50 -250
s-78.333 -140.834 -135 -192.501s-122.834 -92 -198.501 -121s-155.5 -43.5 -239.5 -43.5h-30l-105 -499c-9.33301 -44.667 -30.333 -77.667 -63 -99s-70.334 -32 -113.001 -32c-47.333 0 -83.333 8.66699 -108 26l286 1276c9.33301 43.333 29.833 75.333 61.5 96
s67.834 31 108.501 31c36.667 0 69 -9 97 -27l-144 -675c108.667 5.33301 199.334 53.833 272.001 145.5s109 207.5 109 347.5c0 81.333 -23.667 147.5 -71 198.5s-120 76.5 -218 76.5c-82 0 -154 -10 -216 -30s-110 -46.667 -144 -80s-59.167 -68.833 -75.5 -106.5
s-24.5 -76.834 -24.5 -117.501c0 -48.667 13.333 -88.334 40 -119.001c-29.333 -13.333 -58.666 -20 -87.999 -20c-50 0 -90 19 -120 57s-45 83.667 -45 137z" />
    <glyph glyph-name="Q" unicode="Q" horiz-adv-x="1114" 
d="M6 582c0 75.333 7 151.832 21 229.499s34.167 153.5 60.5 227.5s59.833 143.5 100.5 208.5s86 122 136 171s107.333 87.667 172 116s132.667 42.5 204 42.5c68.667 0 129.334 -14 182.001 -42s94.834 -66.5 126.501 -115.5s55.5 -104.667 71.5 -167
s24 -130.166 24 -203.499c0 -130 -17.167 -260 -51.5 -390s-86 -250 -155 -360s-149.167 -192 -240.5 -246c32 -74.667 66.667 -125.667 104 -153s85.333 -41 144 -41c53.333 0 110.666 22.333 171.999 67c17.333 -12 27.333 -28.667 30 -50c0.666992 -4.66699 1 -9 1 -13
c0 -14.667 -4 -26.334 -12 -35.001c-28 -41.333 -68.167 -73.833 -120.5 -97.5s-103.833 -35.5 -154.5 -35.5c-49.333 0 -91.5 3.83301 -126.5 11.5s-69 22 -102 43s-62.5 50.667 -88.5 89s-50.667 87.5 -74 147.5c-2 0 -4.83301 -0.333008 -8.5 -1s-6.16699 -1 -7.5 -1
c-67.333 0 -127.5 15.833 -180.5 47.5s-95.833 75.334 -128.5 131.001s-57.334 119 -74.001 190s-25 147.5 -25 229.5zM295 626.999c0 -54 4.16406 -103.669 12.4971 -149.002s20.833 -85.666 37.5 -120.999s38.834 -63 66.501 -83s59.834 -30 96.501 -30
s73.834 10.333 111.501 31s74.5 53 110.5 97s68 96.667 96 158s50.667 136.833 68 226.5s26 186.5 26 290.5c0 117.333 -19.5 208.333 -58.5 273s-88.5 97 -148.5 97c-48 0 -94.167 -16.5 -138.5 -49.5s-83 -76.667 -116 -131s-62 -115.666 -87 -183.999
s-44 -139.333 -57 -213s-19.5 -144.5 -19.5 -212.5z" />
    <glyph glyph-name="R" unicode="R" horiz-adv-x="1400" 
d="M66 1200c0 78.667 31.9941 146.833 95.9941 204.5s149.333 100.834 256 129.501s227.334 43 362.001 43c87.333 0 163.833 -9.33301 229.5 -28s117.834 -44.667 156.501 -78s67.334 -70.833 86.001 -112.5s28 -87.5 28 -137.5c0 -93.333 -29.333 -187.666 -88 -282.999
s-135 -172.333 -229 -231c48 -352.667 124.333 -529 229 -529c30 0 65.5 11 106.5 33s75.167 45.333 102.5 70c23.333 -10 35 -26.667 35 -50c0 -15.333 -6.33301 -30.333 -19 -45c-127.333 -134.667 -245.333 -202 -354 -202c-41.333 0 -79.333 12.5 -114 37.5
s-63.667 57.5 -87 97.5s-44.166 88.5 -62.499 145.5s-32.833 113.833 -43.5 170.5s-19.667 117.667 -27 183c-30.667 -2.66699 -54.667 -4 -72 -4h-28l-107 -499c-9.33301 -44.667 -30.333 -77.667 -63 -99s-70.334 -32 -113.001 -32c-47.333 0 -83.333 8.66699 -108 26
l288 1276c9.33301 43.333 29.833 75.333 61.5 96s67.834 31 108.501 31c36.667 0 69 -9 97 -27l-144 -675c50.667 4 99.834 21.833 147.501 53.5s88.167 71 121.5 118s60 99 80 156s30 112.167 30 165.5c0 81.333 -23.667 147.5 -71 198.5s-120 76.5 -218 76.5
c-82 0 -154 -10 -216 -30s-110 -46.667 -144 -80s-59.167 -68.833 -75.5 -106.5s-24.5 -76.834 -24.5 -117.501c0 -48.667 13.333 -88.334 40 -119.001c-29.333 -13.333 -58.666 -20 -87.999 -20c-50 0 -90 19 -120 57s-45 83.667 -45 137z" />
    <glyph glyph-name="S" unicode="S" horiz-adv-x="1167" 
d="M66 373c0 44 7.1709 86.166 21.5039 126.499s34.666 76.5 60.999 108.5s60.5 57.5 102.5 76.5s88.667 28.5 140 28.5c36 0 67.5 -11.833 94.5 -35.5s40.5 -54.167 40.5 -91.5c0 -20.667 -4.66699 -42.667 -14 -66c-25.333 8.66699 -49.333 13 -72 13
c-35.333 0 -67 -10.667 -95 -32c-46 -34.667 -69 -82.334 -69 -143.001c0 -58.667 19.333 -109.5 58 -152.5s91.334 -64.5 158.001 -64.5c80 0 141.167 27.167 183.5 81.5s63.5 122.166 63.5 203.499c0 44.667 -7.5 86.5 -22.5 125.5s-34.5 73.333 -58.5 103
s-50.667 58.667 -80 87l-87.5 87c-29 29.667 -55.5 60.667 -79.5 93s-43.5 70.5 -58.5 114.5s-22.5 91.333 -22.5 142c0 114.667 40.833 209.834 122.5 285.501s184.834 113.5 309.501 113.5c56 0 105.833 -8.66699 149.5 -26s78.5 -40.166 104.5 -68.499s45.5 -59 58.5 -92
s19.5 -67.167 19.5 -102.5c0 -55.333 -15.167 -102.666 -45.5 -141.999s-70.5 -59 -120.5 -59c-20 0 -42.167 7.16699 -66.5 21.5s-41.833 34.5 -52.5 60.5c32 9.33301 57.333 29.666 76 60.999s28 65 28 101c0 36.667 -10.667 67.667 -32 93s-52.333 38 -93 38
c-60.667 0 -107.834 -24 -141.501 -72s-50.5 -106.667 -50.5 -176c0 -39.333 7.83301 -77.166 23.5 -113.499s36.167 -69 61.5 -98s53.166 -57.833 83.499 -86.5l91 -88c30.333 -30 58.166 -61.167 83.499 -93.5s45.833 -69.833 61.5 -112.5s23.5 -87.667 23.5 -135
c0 -154.667 -50.833 -277.167 -152.5 -367.5s-231.167 -135.5 -388.5 -135.5c-68.667 0 -130.334 11.167 -185.001 33.5s-98.334 52.333 -131.001 90s-57.667 79.167 -75 124.5s-26 92.333 -26 141z" />
    <glyph glyph-name="T" unicode="T" horiz-adv-x="954" 
d="M66 1169c0 54 9.33398 102.999 28.001 146.999s44 80.167 76 108.5s67.167 53 105.5 74s79.666 37 123.999 48s85.333 18.833 123 23.5s74.5 7 110.5 7c44.667 0 99.167 -3.83301 163.5 -11.5l164.5 -19.5c20.667 -2.66699 43 -4 67 -4c28 0 58.667 1.66699 92 5
c60 6.66699 117.333 22 172 46c8 -32 12 -62 12 -90c0 -50.667 -13 -94.667 -39 -132c-40 -58 -97.667 -87 -173 -87c-50 0 -132 25.333 -246 76l-264 -1245c-9.33301 -44.667 -30.333 -77.667 -63 -99s-70.334 -32 -113.001 -32c-48 0 -84.333 8.66699 -109 26l326 1440
c-13.333 2.66699 -23 4 -29 4c-37.333 0 -74.166 -6.83301 -110.499 -20.5s-70 -33.667 -101 -60s-56 -61.666 -75 -105.999s-28.5 -94.166 -28.5 -149.499c0 -48.667 13.333 -88.334 40 -119.001c-29.333 -13.333 -58 -20 -86 -20c-50.667 0 -91.167 18.667 -121.5 56
s-45.5 82 -45.5 134z" />
    <glyph glyph-name="U" unicode="U" horiz-adv-x="1314" 
d="M66 1321c0 34 6.50391 66.6699 19.5039 98.0029s32.667 60.666 59 87.999s62 49.166 107 65.499s96.5 24.5 154.5 24.5c36.667 0 79 -4.5 127 -13.5s88 -17.5 120 -25.5c32.667 -8 67.667 -13.333 105 -16c6.66699 -0.666992 13 -1 19 -1c27.333 0 47.666 5 60.999 15
c18.667 -11.333 28 -29 28 -53c0 -21.333 -6.33301 -40 -19 -56s-30 -24 -52 -24h-15l-174 -823c-22.667 -106 -34 -188.333 -34 -247c0 -60.667 10.333 -102.334 31 -125.001c20 -22.667 51.667 -33.667 95 -33c57.333 0 113.666 34.833 168.999 104.5
s102.5 157.334 141.5 263.001s70.5 221.334 94.5 347.001s36 243.834 36 354.501c0 132.667 -24 233.667 -72 303c37.333 46 86.333 72.667 147 80c8.66699 0.666992 16.667 1 24 1c34.667 0 62 -9.33301 82 -28c25.333 -24 39.333 -50.667 42 -80
c2.66699 -36 4 -62.667 4 -80c-0.666992 -78.667 -10.5 -169.834 -29.5 -273.501s-45.333 -210.167 -79 -319.5s-75.167 -216.833 -124.5 -322.5s-102 -200 -158 -283s-118.333 -150 -187 -201s-137.334 -76.5 -206.001 -76.5c-73.333 0 -131.333 22.667 -174 68
c-42.667 46.667 -69.334 119.334 -80.001 218.001c-2.66699 24 -4.33398 49.667 -5.00098 77c0 85.333 13 186.666 39 303.999l173 815h-3c-86 0 -149.667 -19.667 -191 -59s-62 -86.333 -62 -141c0 -48.667 13.333 -88.334 40 -119.001
c-31.333 -14 -60.666 -21 -87.999 -21c-50 0 -90 19.167 -120 57.5s-45 84.166 -45 137.499z" />
    <glyph glyph-name="V" unicode="V" horiz-adv-x="1372" 
d="M104 1321c0 34 6.49609 66.6699 19.4961 98.0029s32.667 60.666 59 87.999s62 49.166 107 65.499s96.5 24.5 154.5 24.5c36.667 0 79 -4.5 127 -13.5s88 -17.5 120 -25.5s67 -13.333 105 -16c6.66699 -0.666992 13.334 -1 20.001 -1c28 0 48.333 5 61 15
c18.667 -11.333 28 -29 28 -53c0 -21.333 -6.33301 -40 -19 -56s-30 -24 -52 -24h-11l17 -1161l194 369c28 53.333 54.5 108.666 79.5 165.999s49 121.333 72 192s40.167 138.334 51.5 203.001c8.66699 48.667 13 97.667 13 147c0 15.333 -0.666992 31 -2 47
c-4 65.333 -17.333 122 -40 170c43.333 41.333 95.333 62 156 62c46.667 0 80.834 -13 102.501 -39s32.5 -54 32.5 -84c0 -48 -5.16699 -99 -15.5 -153s-27.333 -112.5 -51 -175.5s-45 -117.333 -64 -163s-47.5 -104.5 -85.5 -176.5l-81.5 -152.5l-83.5 -150.5l-239 -424
c-25.333 -45.333 -50.666 -77.833 -75.999 -97.5s-56.666 -29.5 -93.999 -29.5c-47.333 0 -85 9 -113 27l-35 1466c-82.667 -2 -144 -22.5 -184 -61.5s-60 -85.167 -60 -138.5c0 -47.333 13.667 -87 41 -119c-30.667 -14 -60 -21 -88 -21c-50 0 -90.167 19.167 -120.5 57.5
s-45.5 84.166 -45.5 137.499z" />
    <glyph glyph-name="W" unicode="W" horiz-adv-x="1937" 
d="M104 1321c0 34 6.5 66.6699 19.5 98.0029s32.667 60.666 59 87.999s62 49.166 107 65.499s96.5 24.5 154.5 24.5c36.667 0 79 -4.5 127 -13.5s88 -17.5 120 -25.5s67 -13.333 105 -16c6.66699 -0.666992 13.334 -1 20.001 -1c28 0 48.333 5 61 15
c18.667 -11.333 28 -29 28 -53c0 -21.333 -6.33301 -40 -19 -56s-30 -24 -52 -24h-11l15 -1091l346 1093c12.667 38 32.167 66 58.5 84s56.5 27 90.5 27c42.667 0 75 -7.66699 97 -23l73 -1239l150 373c22.667 57.333 43.334 114.333 62.001 171s36 121 52 193
c15.333 71.333 25.666 138.333 30.999 201c1.33301 20 2.33301 40.667 3 62c-0.666992 42 -4.33398 84.333 -11.001 127c-10.667 63.333 -29.667 118 -57 164c16 16 38.5 28.833 67.5 38.5s58.167 14.5 87.5 14.5c94.667 0 142 -56 142 -168
c0 -165.333 -94.333 -465 -283 -899l-195 -447c-36 -87.333 -94 -131 -174 -131c-46.667 0 -84 9 -112 27l-72 1077l-309 -973c-36 -87.333 -94 -131 -174 -131c-47.333 0 -85 9 -113 27l-37 1466c-82.667 -2 -144 -22.5 -184 -61.5s-60 -85.167 -60 -138.5
c0 -47.333 13.667 -87 41 -119c-30.667 -14 -60 -21 -88 -21c-50 0 -90.167 19.167 -120.5 57.5s-45.5 84.166 -45.5 137.499z" />
    <glyph glyph-name="X" unicode="X" horiz-adv-x="1269" 
d="M-20 264c0 102.667 57.999 154.002 173.999 154.002c38.667 0 72.667 -11.667 102 -35c-28.667 -65.333 -43 -135.666 -43 -210.999v-16c60.667 28 130.667 86.167 210 174.5s161 208.833 245 361.5l-164 772c-73.333 -6.66699 -127.5 -28.834 -162.5 -66.501
s-52.5 -81.5 -52.5 -131.5c0 -47.333 13.667 -87 41 -119c-31.333 -14 -60.666 -21 -87.999 -21c-50 0 -90.167 19.167 -120.5 57.5s-45.5 84.166 -45.5 137.499c0 34 6.5 66.667 19.5 98s32.667 60.666 59 87.999s62 49.166 107 65.499s96.5 24.5 154.5 24.5
c36.667 0 79 -4.5 127 -13.5s88 -17.5 120 -25.5c32.667 -8 67.667 -13.333 105 -16c6.66699 -0.666992 13 -1 19 -1c27.333 0 47.666 5 60.999 15c19.333 -11.333 29 -29 29 -53c0 -21.333 -6.5 -40 -19.5 -56s-30.5 -24 -52.5 -24h-6l104 -505
c67.333 92.667 116.333 195.334 147 308.001c23.333 84.667 35 169.667 35 255c0 28 -1.33301 56 -4 84c48.667 35.333 94 53 136 53c22.667 0 42.334 -4.16699 59.001 -12.5s28.834 -19 36.501 -32s13 -25.5 16 -37.5s4.5 -23.667 4.5 -35
c0 -73.333 -10.333 -143.5 -31 -210.5s-51 -129.833 -91 -188.5s-82 -111.5 -126 -158.5s-96.333 -96.5 -157 -148.5l110 -533c10.667 -56 36.667 -84 78 -84c30 0 65.5 11 106.5 33s75.167 45.333 102.5 70c23.333 -10 35 -26.667 35 -50
c0 -15.333 -6.33301 -30.333 -19 -45c-127.333 -134.667 -245.333 -202 -354 -202c-51.333 0 -95.833 15.833 -133.5 47.5s-62.834 78.5 -75.501 140.5l-73 344c-96.667 -170.667 -192.667 -302 -288 -394s-182.333 -138 -261 -138c-52.667 0 -95.167 24.5 -127.5 73.5
s-48.5 117.833 -48.5 206.5z" />
    <glyph glyph-name="Y" unicode="Y" horiz-adv-x="1331" 
d="M139 1321c0 34 6.5 66.6709 19.5 98.0039s32.667 60.666 59 87.999s62 49.166 107 65.499s96.5 24.5 154.5 24.5c36.667 0 79 -4.5 127 -13.5s88 -17.5 120 -25.5s66.667 -13.333 104 -16c7.33301 -0.666992 14 -1 20 -1c27.333 0 47.666 5 60.999 15
c19.333 -11.333 29 -29 29 -53c0 -21.333 -6.5 -40 -19.5 -56s-30.5 -24 -52.5 -24h-6l156 -645c90 132 152.333 261.333 187 388c21.333 78.667 32 159.667 32 243c0 51.333 -4 103.333 -12 156c35.333 35.333 80.333 53 135 53c43.333 0 74.333 -13 93 -39
c16.667 -22.667 25 -45.334 25 -68.001c0 -3.33301 -0.333008 -6.66602 -1 -9.99902c-11.333 -128.667 -58 -272.5 -140 -431.5s-176 -305.833 -282 -440.5l-107 -498c-10.667 -50.667 -34.167 -87.834 -70.5 -111.501s-78.166 -35.5 -125.499 -35.5c-42 0 -79 10 -111 30
l135 619l-213 831c-71.333 -7.33301 -124.333 -29.833 -159 -67.5s-52 -81.167 -52 -130.5c0 -47.333 13.667 -87 41 -119c-30.667 -14 -60 -21 -88 -21c-50 0 -90.167 19.167 -120.5 57.5s-45.5 84.166 -45.5 137.499z" />
    <glyph glyph-name="Z" unicode="Z" horiz-adv-x="974" 
d="M-180 127c0 48 19.334 90.999 58.001 128.999s90.334 57 155.001 57c47.333 0 102.666 -6 165.999 -18c8.66699 13.333 20 34.333 34 63l521 1033h-35c-32.667 -0.666992 -75 -0.333984 -127 0.999023c-40.667 0.666992 -76 1.33398 -106 2.00098
c-24 0 -44.333 -0.333008 -61 -1c-38 -1.33301 -83.167 -9.16602 -135.5 -23.499s-98.833 -36.5 -139.5 -66.5c-36 40 -54 81.333 -54 124c0 48.667 15.833 89.167 47.5 121.5s78.834 48.5 141.501 48.5c79.333 0 195.166 -12.167 347.499 -36.5s272.5 -36.5 360.5 -36.5
c20.667 0 40.834 3.16699 60.501 9.5s33.834 13.833 42.501 22.5c22.667 -7.33301 34 -25 34 -53c0 -21.333 -7.83301 -41.833 -23.5 -61.5s-38.5 -31.167 -68.5 -34.5l-506 -1004c-37.333 -72 -73.333 -130 -108 -174c106.667 -32.667 194 -49 262 -49
c65.333 0 122.5 10.167 171.5 30.5s88.167 43.833 117.5 70.5c23.333 -10 35 -26.667 35 -50c0 -14 -10.333 -34.333 -31 -61s-47.334 -54 -80.001 -82s-72.834 -52.333 -120.501 -73s-94.834 -31 -141.501 -31c-78.667 0 -143.667 10.333 -195 31s-99 49 -143 85
c-96 -77.333 -195.667 -116 -299 -116c-54 0 -97.5 12 -130.5 36s-49.5 59.667 -49.5 107zM-56.999 185.999c0 -14.667 6.5 -26.834 19.5 -36.501s31.5 -14.5 55.5 -14.5c46 0 90 27.333 132 82c-40 19.333 -78.333 29 -115 29c-27.333 0 -49.5 -6.16699 -66.5 -18.5
s-25.5 -26.166 -25.5 -41.499z" />
    <glyph glyph-name="bracketleft" unicode="[" horiz-adv-x="864" 
d="M63.5 -231c1.66699 20.667 4.50293 43 8.50293 67c22.667 106.667 81.167 350 175.5 730s155.166 652 182.499 816c-43.333 14 -65 47.667 -65 101c0 43.333 14.167 75 42.5 95s64.5 30 108.5 30c47.333 0 79.333 -24.667 96 -74c6 0 30.167 7.83301 72.5 23.5
s75.5 23.5 99.5 23.5c34.667 0 64.834 -7.33301 90.501 -22s44.334 -32.834 56.001 -54.501s16.667 -46 15 -73s-10.834 -52.167 -27.501 -75.5c-36 20 -82 30 -138 30c-44.667 0 -95.667 -2.66699 -153 -8c-26 -143.333 -81 -396.333 -165 -759
s-137.667 -602.334 -161 -719.001c60 18.667 106.333 28 139 28c27.333 0 53 -5.16699 77 -15.5s43.5 -24 58.5 -41s26.5 -35.333 34.5 -55s10.667 -40.167 8 -61.5s-10.667 -40.666 -24 -57.999c-34.667 20 -75.334 30 -122.001 30s-101.334 -5 -164.001 -15
s-111.334 -15 -146.001 -15c-36 0 -61.833 6.83301 -77.5 20.5s-22.667 30.834 -21 51.501z" />
    <glyph glyph-name="bracketright" unicode="]" horiz-adv-x="823" 
d="M-121.5 -126.5c1.66699 27 10.832 52.168 27.499 75.501c37.333 -20.667 83 -31 137 -31c42.667 0 94 2.66699 154 8c26 144 80.667 398.167 164 762.5s136.333 603.166 159 716.499c-62 -19.333 -107.667 -29 -137 -29c-27.333 0 -53 5.16699 -77 15.5
s-43.5 24 -58.5 41s-26.5 35.5 -34.5 55.5s-10.667 40.667 -8 62s10.667 40.666 24 57.999c34.667 -20 75.5 -30 122.5 -30s101.833 5 164.5 15s111.334 15 146.001 15c36 0 61.833 -6.83301 77.5 -20.5s22.667 -31 21 -52s-4.5 -43.5 -8.5 -67.5
c-22.667 -107.333 -81.5 -350.833 -176.5 -730.5s-156.5 -651.5 -184.5 -815.5c45.333 -14 68 -47.333 68 -100c0 -43.333 -14.333 -75 -43 -95s-65 -30 -109 -30c-47.333 0 -79.333 24.667 -96 74c-6 0 -30.167 -7.83301 -72.5 -23.5s-75.5 -23.5 -99.5 -23.5
c-34.667 0 -64.834 7.33301 -90.501 22s-44.167 32.834 -55.5 54.501s-16.166 46 -14.499 73z" />
    <glyph glyph-name="underscore" unicode="_" horiz-adv-x="1015" 
d="M25 -4c0 31.333 11.832 60 35.499 86s56.834 39 99.501 39h786c11.333 -18 17 -38.667 17 -62c0 -31.333 -11.5 -58.5 -34.5 -81.5s-56.167 -34.5 -99.5 -34.5h-786c-12 12 -18 29.667 -18 53z" />
    <glyph glyph-name="a" unicode="a" horiz-adv-x="1073" 
d="M-23 328c0 118.667 22.998 232.834 68.998 342.501s109.167 199 189.5 268s166.5 103.5 258.5 103.5c90 0 160.333 -22.333 211 -67c33.333 39.333 79.666 59 138.999 59c36.667 0 68.667 -8.66699 96 -26l-143 -678c-6 -26 -9 -49 -9 -69c0 -55.333 23.333 -83 70 -83
c36 0 73.833 10.167 113.5 30.5s73.5 44.5 101.5 72.5c23.333 -10 35 -26.667 35 -50c0 -16 -6 -31 -18 -45c-50 -56.667 -108.167 -104.5 -174.5 -143.5s-126.5 -58.5 -180.5 -58.5c-55.333 0 -101 15.667 -137 47s-53.667 84.333 -53 159
c-45.333 -63.333 -94.666 -113.5 -147.999 -150.5s-108 -55.5 -164 -55.5c-40.667 0 -76.667 7.83301 -108 23.5s-56.166 35.5 -74.499 59.5s-33.166 52 -44.499 84s-19 62.167 -23 90.5s-6 57.166 -6 86.499zM230.998 342c0 -48.667 10.167 -85.333 30.5 -110
s47.166 -37 80.499 -37s69.333 12 108 36s71.667 55 99 93l115 548c-33.333 11.333 -65.666 17 -96.999 17c-58.667 0 -110.667 -17.667 -156 -53s-80.5 -81.333 -105.5 -138s-43.667 -115.167 -56 -175.5s-18.5 -120.5 -18.5 -180.5z" />
    <glyph glyph-name="b" unicode="b" horiz-adv-x="931" 
d="M-21 319c0.666992 66.667 9.66602 140.001 26.999 220.001l148 686c6 26.667 1.66699 43 -13 49s-30.334 -1 -47.001 -21c-20.667 19.333 -31 40.666 -31 63.999c0 15.333 13.667 34.5 41 57.5s61.833 43.333 103.5 61s79.834 26.5 114.501 26.5
c68 0 102 -26.333 102 -79c0 -10 -1.33301 -21 -4 -33l-96 -476c90 106.667 183.333 160 280 160c79.333 0 141.833 -28.5 187.5 -85.5s68.5 -134.833 68.5 -233.5c0 -84.667 -19.333 -171.5 -58 -260.5s-88.167 -167.667 -148.5 -236s-129.666 -124.5 -207.999 -168.5
s-154.5 -66 -228.5 -66c-54.667 0 -100.167 14 -136.5 42s-62.5 67.333 -78.5 118c-15.333 48 -23 103.667 -23 167v8zM224.999 340.001c0 -96.667 33.667 -145 101 -145c47.333 0 92.333 22.833 135 68.5s76.834 105.167 102.501 178.5s38.5 149.333 38.5 228
c0 54 -10 93.667 -30 119s-46.667 38 -80 38s-68.333 -11.167 -105 -33.5s-69.334 -51.833 -98.001 -88.5c-42.667 -188 -64 -309.667 -64 -365z" />
    <glyph glyph-name="c" unicode="c" horiz-adv-x="849" 
d="M-23 350c0 78.667 13.168 158.999 39.501 240.999s61.833 156.333 106.5 223s100.167 121.334 166.5 164.001s136.5 64 210.5 64c165.333 0 248 -66 248 -198c0 -54.667 -13.833 -96.334 -41.5 -125.001s-61.834 -43 -102.501 -43c-32.667 0 -60 9.66699 -82 29
c22 46.667 33 91 33 133c0 39.333 -25.333 59 -76 59c-28.667 0 -57.667 -13.167 -87 -39.5s-56 -61.666 -80 -105.999s-43.5 -99 -58.5 -164s-22.5 -133.167 -22.5 -204.5c0 -76.667 17.833 -132.667 53.5 -168s83.5 -53 143.5 -53c72 0 149.5 22 232.5 66
s146.833 95.667 191.5 155c25.333 4.66699 43.333 -1 54 -17c4.66699 -7.33301 7 -15.333 7 -24c0 -9.33301 -3.33301 -19 -10 -29c-68.667 -101.333 -156.5 -181.5 -263.5 -240.5s-211.5 -88.5 -313.5 -88.5c-102.667 0 -186.5 31 -251.5 93s-97.5 153 -97.5 273z" />
    <glyph glyph-name="d" unicode="d" horiz-adv-x="1069" 
d="M-23 328c0 118.667 22.9971 232.835 68.9971 342.502s109.167 199 189.5 268s166.5 103.5 258.5 103.5c82.667 0 148 -19 196 -57l51 240c6 26.667 1.83301 43 -12.5 49s-29.833 -1 -46.5 -21c-20.667 19.333 -31 40.666 -31 63.999c0 15.333 13.5 34.5 40.5 57.5
s61.333 43.333 103 61s79.834 26.5 114.501 26.5c39.333 0 67.666 -9.33301 84.999 -28c12 -12.667 18 -29.667 18 -51c0 -10 -1.33301 -21 -4 -33l-215 -1020c-6 -26 -9 -49 -9 -69c0 -55.333 23.333 -83 70 -83c36 0 73.833 10.167 113.5 30.5s73.5 44.5 101.5 72.5
c23.333 -10 35 -26.667 35 -50c0 -15.333 -6.33301 -30.333 -19 -45c-50 -56.667 -108 -104.5 -174 -143.5s-126 -58.5 -180 -58.5c-55.333 0 -100.333 15.667 -135 47s-51.667 84.333 -51 159c-45.333 -63.333 -94.666 -113.5 -147.999 -150.5s-108 -55.5 -164 -55.5
c-40.667 0 -76.667 7.83301 -108 23.5s-56.166 35.5 -74.499 59.5s-33.166 52 -44.499 84s-19 62.167 -23 90.5s-6 57.166 -6 86.499zM230.997 342.001c0 -48.667 10.168 -85.333 30.501 -110s47.166 -37 80.499 -37s69.333 12 108 36s71.667 55 99 93v-2l117 548
c-36.667 12.667 -69.667 19 -99 19c-58.667 0 -110.667 -17.667 -156 -53s-80.5 -81.333 -105.5 -138s-43.667 -115.167 -56 -175.5s-18.5 -120.5 -18.5 -180.5z" />
    <glyph glyph-name="e" unicode="e" horiz-adv-x="849" 
d="M-23 350c0 45.333 4.99805 93.3301 14.998 143.997s24.333 101.834 43 153.501s43 101.167 73 148.5s63.333 89.333 100 126s79.667 65.834 129 87.501s101 32.5 155 32.5c44.667 0 82.834 -5.66699 114.501 -17s55.667 -27 72 -47s28.166 -40.667 35.499 -62
s11 -44.666 11 -69.999c0 -46 -7 -88.167 -21 -126.5s-38.667 -79 -74 -122s-85.166 -87.667 -149.499 -134s-145.166 -96.5 -242.499 -150.5c18 -100.667 81.333 -151 190 -151c72 0 149.5 22 232.5 66s146.833 95.667 191.5 155c25.333 4.66699 43.333 -1 54 -17
c4.66699 -7.33301 7 -15.333 7 -24c0 -9.33301 -3.33301 -19 -10 -29c-68.667 -101.333 -156.5 -181.5 -263.5 -240.5s-211.5 -88.5 -313.5 -88.5c-102.667 0 -186.5 31 -251.5 93s-97.5 153 -97.5 273zM230.998 400.997c103.333 65.333 184.833 132.665 244.5 201.998
s89.5 136 89.5 200c0 23.333 -5.5 42.5 -16.5 57.5s-25.167 22.5 -42.5 22.5c-38.667 0 -74 -12.333 -106 -37s-57.833 -55.167 -77.5 -91.5s-36.5 -77.166 -50.5 -122.499s-24 -87.166 -30 -125.499s-9.66699 -73.5 -11 -105.5z" />
    <glyph glyph-name="f" unicode="f" horiz-adv-x="512" 
d="M-580 -549c0 17.333 6.16504 30.8369 18.498 40.5039s28.833 14.5 49.5 14.5c16 -74.667 63 -112 141 -112c23.333 0 44.5 5 63.5 15s36.833 26.667 53.5 50s31.834 50.166 45.501 80.499s27.834 69.833 42.501 118.5s28.334 99 41.001 151s27 115.667 43 191l195 905
h-103c-1.33301 8.66699 -2 16.667 -2 24c0 23.333 6 43.666 18 60.999c16 22.667 39.333 34 70 34h41l17 74c28 130 81.167 233.167 159.5 309.5s167.166 114.5 266.499 114.5c172 0 258 -66.333 258 -199c0 -54.667 -14 -97 -42 -127c-26 -27.333 -57.333 -41 -94 -41h-8
c-28.667 2 -56 11.667 -82 29c22 46.667 33 91 33 133c0 39.333 -25.333 59 -76 59c-77.333 0 -136.666 -97 -177.999 -291l-14 -61h158c1.33301 -8.66699 2 -16.667 2 -24c0 -24 -6 -44.333 -18 -61c-16 -22.667 -39.333 -34 -70 -34h-97l-194 -905
c-25.333 -117.333 -49.333 -215.833 -72 -295.5s-48.334 -152.834 -77.001 -219.501s-59.834 -118.834 -93.501 -156.501s-72.667 -66.5 -117 -86.5s-95.166 -30 -152.499 -30c-66.667 0 -121 19.5 -163 58.5s-63 99.167 -63 180.5z" />
    <glyph glyph-name="g" unicode="g" horiz-adv-x="1021" 
d="M-109 -537c0 48.667 12 96.835 36 144.502s55.333 91 94 130s84.5 76.167 137.5 111.5s106.5 66.333 160.5 93s110 50.667 168 72c5.33301 20 13.666 49.667 24.999 89s18 63 20 71c-94 -126.667 -193.667 -190 -299 -190c-40.667 0 -76.667 7.83301 -108 23.5
s-56.166 35.5 -74.499 59.5s-33.166 52 -44.499 84s-19 62.167 -23 90.5s-6 57.166 -6 86.499c0 118.667 23 232.834 69 342.501s109.167 199 189.5 268s166.5 103.5 258.5 103.5c88 0 157.333 -22.333 208 -67c33.333 39.333 80.666 59 141.999 59
c36.667 0 68.667 -8.66699 96 -26l-172 -811l-18 -84c128 62.667 225.333 122 292 178c17.333 -14.667 26 -32.334 26 -53.001c0 -18 -8 -34.667 -24 -50c-22 -19.333 -64.5 -48.333 -127.5 -87s-127.5 -73.667 -193.5 -105c-14.667 -60 -29 -114.667 -43 -164
s-31.333 -101.833 -52 -157.5s-42.167 -105 -64.5 -148s-48.5 -84.833 -78.5 -125.5s-62 -74.334 -96 -101.001s-72.833 -48 -116.5 -64s-90.167 -24 -139.5 -24c-67.333 0 -124.5 21.667 -171.5 65s-70.5 105.333 -70.5 186zM31 -509.999c0 -32 9.49902 -56 28.499 -72
s37.5 -24 55.5 -24c68.667 0 127.334 36.333 176.001 109s99.667 195.334 153 368.001c-117.333 -46.667 -215.5 -105.334 -294.5 -176.001s-118.5 -139 -118.5 -205zM230.999 342.001c0 -48.667 10.167 -85.333 30.5 -110s47.166 -37 80.499 -37s69.333 12 108 36
s71.667 55 99 93l115 548c-33.333 11.333 -65.666 17 -96.999 17c-58.667 0 -110.667 -17.667 -156 -53s-80.5 -81.333 -105.5 -138s-43.667 -115.167 -56 -175.5s-18.5 -120.5 -18.5 -180.5z" />
    <glyph glyph-name="h" unicode="h" horiz-adv-x="974" 
d="M-80 4l260.002 1221c6 26.667 1.83301 43 -12.5 49s-29.833 -1 -46.5 -21c-20.667 19.333 -31 40.666 -31 63.999c0 15.333 13.5 34.5 40.5 57.5s61.333 43.333 103 61s79.834 26.5 114.501 26.5c68 0 102 -26.333 102 -79c0 -10 -1.33301 -21 -4 -33l-106 -502
c87.333 124 178 186 272 186c18 0 35.667 -1.83301 53 -5.5s35.166 -10 53.499 -19s34 -20.833 47 -35.5s24.5 -33.334 34.5 -56.001c10.667 -23.333 15.667 -50.666 15 -81.999c0 -29.333 -3.33301 -63.666 -10 -102.999l-100 -471c-2 -10 -3 -19.333 -3 -28
c0 -14.667 3.33301 -26.334 10 -35.001c10.667 -14 26.667 -21 48 -21c36 0 73.833 10.167 113.5 30.5s73.5 44.5 101.5 72.5c23.333 -10 35 -26.667 35 -50c0 -15.333 -6.33301 -30.333 -19 -45c-52 -59.333 -110.5 -107.833 -175.5 -145.5s-129.833 -56.5 -194.5 -56.5
c-22 0 -42.167 2.33301 -60.5 7s-36.5 13.334 -54.5 26.001s-31.333 29.667 -40 51c-9.33301 22 -15.333 50 -18 84c-0.666992 7.33301 -0.666992 14.666 0 21.999c0 29.333 4.33301 62.666 13 99.999l86 408c6 20.667 9 39.667 9 57c0 10 -1 19.667 -3 29
c-6 24 -24.333 35.667 -55 35c-66.667 0 -130.334 -36.333 -191.001 -109l-129 -581c-9.33301 -44 -30 -76.5 -62 -97.5s-68.667 -31.5 -110 -31.5c-36.667 0 -65.334 6.66699 -86.001 20z" />
    <glyph glyph-name="i" unicode="i" horiz-adv-x="507" 
d="M-32 110c-2.66699 14 -3.99902 29.3311 -3.99902 45.998c0 21.333 2.33301 45 7 71l119 570c6 34 -0.666992 51 -20 51c-8.66699 0 -22.334 -8.33301 -41.001 -25c-15.333 8.66699 -23.666 25.334 -24.999 50.001c0 2 -0.333008 4 -1 6c0 22 8.66699 41 26 57
c83.333 65.333 159.666 98 228.999 98c68 0 102 -26.333 102 -79c0 -10 -1.33301 -21 -4 -33l-125 -592c-6 -26 -9 -48.667 -9 -68c0 -56 23.667 -84 71 -84c36 0 73.833 10.167 113.5 30.5s73.5 44.5 101.5 72.5c23.333 -10 35 -26.667 35 -50
c0 -15.333 -6.33301 -30.333 -19 -45c-52 -59.333 -110.5 -107.833 -175.5 -145.5s-129.833 -56.5 -194.5 -56.5c-27.333 0 -53 4 -77 12s-46.5 21.333 -67.5 40s-34.833 43.334 -41.5 74.001zM158.001 1298c4 40 20.832 74 50.499 102s64.5 42 104.5 42
c40.667 0 73.667 -14 99 -42c22 -24 33 -52.667 33 -86c0 -5.33301 -0.333008 -10.666 -1 -15.999c-6 -40.667 -24.167 -74.667 -54.5 -102s-65.166 -41 -104.499 -41c-40.667 0 -73.667 14 -99 42c-20 22.667 -30 49 -30 79c0 7.33301 0.666992 14.666 2 21.999z" />
    <glyph glyph-name="j" unicode="j" horiz-adv-x="468" 
d="M-702 -537c0 42 7.33301 81.502 22 118.502s35.167 70.5 61.5 100.5s58 59 95 87s78.167 54.167 123.5 78.5s93.666 48.666 144.999 72.999l161 74.5c3.33301 1.33301 6 2.33301 8 3c18 66 35 139 51 219l125 580c6 34 -0.666992 51 -20 51
c-8.66699 0 -22.334 -8.33301 -41.001 -25c-15.333 8.66699 -23.666 25.334 -24.999 50.001c-0.666992 2 -1 4 -1 6c0 22 8.66699 41 26 57c83.333 65.333 159.666 98 228.999 98c68 0 102 -26.333 102 -79c0 -10 -1.33301 -21 -4 -33l-155 -725
c-2 -11.333 -5.33301 -26.833 -10 -46.5l-9 -37.5c130 63.333 227.667 122.666 293 177.999c17.333 -14.667 26 -32.334 26 -53.001c0 -18 -8 -34.667 -24 -50c-22 -19.333 -64.5 -48.333 -127.5 -87s-127.5 -73.667 -193.5 -105c-14.667 -59.333 -29.5 -114 -44.5 -164
s-33 -102.5 -54 -157.5s-43.167 -104.167 -66.5 -147.5s-50.666 -85.333 -81.999 -126s-64.666 -74.334 -99.999 -101.001s-75.5 -48 -120.5 -64s-92.833 -24 -143.5 -24c-29.333 0 -58.333 5.33301 -87 16s-55.167 25.834 -79.5 45.501s-43.833 46 -58.5 79
s-22 69.833 -22 110.5zM-537 -509.998c0 -32 9.5 -56 28.5 -72s37.5 -24 55.5 -24c68 0 128.5 37.833 181.5 113.5s103.167 194.834 150.5 357.501l-138 -71c-36 -19.333 -73.5 -41.833 -112.5 -67.5s-69.333 -49.834 -91 -72.501s-39.5 -48 -53.5 -76s-21 -57.333 -21 -88z
M162 1298c2 40 17.333 74.001 46 102.001s63 42 103 42s73.667 -14 101 -42c24.667 -26 37 -57.333 37 -94v-8c-3.33301 -40 -19.5 -73.833 -48.5 -101.5s-63.5 -41.5 -103.5 -41.5s-73 13.667 -99 41c-24 25.333 -36 55.666 -36 90.999v11z" />
    <glyph glyph-name="k" unicode="k" horiz-adv-x="874" 
d="M-78 10l255.998 1215c4 16 4 28.5 0 37.5s-10.667 13.5 -20 13.5c-8.66699 0 -22.334 -8.33301 -41.001 -25c-15.333 8.66699 -23.666 25.334 -24.999 50.001c0 2 -0.333008 4 -1 6c0 22 8.66699 41 26 57c83.333 65.333 159.666 98 228.999 98
c67.333 0 101 -27.333 101 -82c0 -9.33301 -1 -19.333 -3 -30l-168 -785l41 10c132.667 39.333 199 118.666 199 237.999c0 54.667 -9.66699 97 -29 127c14 28 35.333 50.667 64 68s60.667 26 96 26c40 0 69.167 -11.833 87.5 -35.5s27.5 -63.834 27.5 -120.501
c0 -76 -24.667 -144 -74 -204c-49.333 -61.333 -110 -108.666 -182 -141.999c6 -25.333 11.833 -47.666 17.5 -66.999s13.334 -43.5 23.001 -72.5s20.334 -53.833 32.001 -74.5s25.167 -41 40.5 -61s32.833 -35.333 52.5 -46s40.834 -16 63.501 -16
c18.667 0 38.667 7.16699 60 21.5s47.666 35.833 78.999 64.5c23.333 -10 35 -26.667 35 -50c0 -16 -6 -31 -18 -45c-40.667 -50 -91 -96.167 -151 -138.5s-110 -63.5 -150 -63.5c-31.333 0 -60.166 7.33301 -86.499 22s-48.833 35.5 -67.5 62.5s-35.167 55.167 -49.5 84.5
s-26.833 63.5 -37.5 102.5s-19 72.5 -25 100.5l-19 93c-2 10 -3.33301 17.333 -4 22l-47 -12l-74 -346c-8.66699 -44 -28.167 -76.5 -58.5 -97.5s-64.833 -31.5 -103.5 -31.5c-36.667 0 -68.667 8.66699 -96 26z" />
    <glyph glyph-name="l" unicode="l" horiz-adv-x="661" 
d="M-14 287c16 127.333 33 242.333 51 345s38.167 198.834 60.5 288.501s46.666 167.167 72.999 232.5s55.333 121.5 87 168.5s66.5 82.167 104.5 105.5s79 35 123 35c49.333 0 89 -14.667 119 -44s45 -70 45 -122c0 -83.333 -34.333 -203.833 -103 -361.5
s-166.667 -333.834 -294 -528.501c-5.33301 -32.667 -8.66602 -58 -9.99902 -76c-1.33301 -12 -2 -23.333 -2 -34c0 -33.333 7.66699 -59.333 23 -78c20.667 -24 50.334 -36 89.001 -36c37.333 0 78.166 9.66699 122.499 29s84.5 45.833 120.5 79.5s60.333 68.5 73 104.5
c18.667 2.66699 33.334 -4.66602 44.001 -21.999c6 -10 9.33301 -20.667 10 -32c0 -8 -1.66699 -16 -5 -24c-35.333 -90.667 -104.333 -168.834 -207 -234.501s-202.334 -98.5 -299.001 -98.5c-77.333 0 -137.333 25 -180 75c-32.667 38.667 -49 92.667 -49 162
c0 20.667 1.33301 42.667 4 66zM279 588c80 148.667 142.667 289.999 188 423.999s68 224 68 270c0 16.667 -2.83301 28.334 -8.5 35.001s-14.5 10 -26.5 10c-32.667 0 -68.667 -67.167 -108 -201.5s-77 -313.5 -113 -537.5z" />
    <glyph glyph-name="m" unicode="m" horiz-adv-x="1460" 
d="M-78 10l168.001 787c4 16 4 28.5 0 37.5s-10.667 13.5 -20 13.5c-8.66699 0 -22.334 -8.33301 -41.001 -25c-15.333 8.66699 -23.666 25.334 -24.999 50.001c0 2 -0.333008 4 -1 6c0 22 8.66699 41 26 57c83.333 65.333 159.666 98 228.999 98
c38.667 0 66.667 -9.33301 84 -28c12 -12 18 -28.667 18 -50c0 -10.667 -1.33301 -22 -4 -34l-20 -93c94.667 136.667 195.667 205 303 205c47.333 0 88.333 -18.333 123 -55c32.667 -34 49 -81.333 49 -142v-14c98.667 140.667 201 211 307 211
c20 0 39.333 -2.83301 58 -8.5s37.834 -15.167 57.501 -28.5s34.834 -31.666 45.501 -54.999c11.333 -22.667 19 -51.334 23 -86.001c1.33301 -9.33301 1.66602 -18.666 0.999023 -27.999c0 -28 -4.33301 -59.667 -13 -95l-100 -471c-2 -10 -3 -19.333 -3 -28
c-0.666992 -14.667 2.33301 -26.334 9 -35.001c10.667 -14 27 -21 49 -21c36 0 73.833 10.167 113.5 30.5s73.5 44.5 101.5 72.5c23.333 -10 35 -26.667 35 -50c0 -16 -6 -31 -18 -45c-52 -58.667 -110.667 -107 -176 -145s-130.333 -57 -195 -57
c-22 0 -42.167 2.33301 -60.5 7s-36.5 13.334 -54.5 26.001s-31.333 29.834 -40 51.501s-14.334 49.5 -17.001 83.5c-0.666992 7.33301 -1 14.666 -1 21.999c0 29.333 4.33301 62.666 13 99.999l86 408c6.66699 21.333 10 40.666 10 57.999c0 10.667 -1 20 -3 28
c-6 24 -24.667 35.667 -56 35c-60.667 0 -120 -31.333 -178 -94l-127 -596c-9.33301 -44 -30 -76.5 -62 -97.5s-68.667 -31.5 -110 -31.5c-36.667 0 -68.667 8.66699 -96 26l143 672c6 20.667 9 39.667 9 57c0 10 -1 19.667 -3 29c-6 24 -24.333 35.667 -55 35
c-66.667 0 -129.667 -35.667 -189 -107l-125 -583c-9.33301 -44 -30 -76.5 -62 -97.5s-68.667 -31.5 -110 -31.5c-36.667 0 -68.667 8.66699 -96 26z" />
    <glyph glyph-name="n" unicode="n" horiz-adv-x="980" 
d="M-78 10l168.001 787.003c4 16 4 28.5 0 37.5s-10.667 13.5 -20 13.5c-8.66699 0 -22.334 -8.33301 -41.001 -25c-15.333 8.66699 -23.666 25.334 -24.999 50.001c0 2 -0.333008 4 -1 6c0 22 8.66699 41 26 57c83.333 65.333 159.666 98 228.999 98
c38.667 0 66.667 -9.33301 84 -28c12 -12 18 -28.667 18 -50c0 -10.667 -1.33301 -22 -4 -34l-20 -93c43.333 62 95.333 111.667 156 149s120.667 56 180 56c58.667 0 102 -24.667 130 -74c15.333 -28 23.333 -64 24 -108c0 -34.667 -5 -74.334 -15 -119.001l-100 -471
c-2 -10 -3 -19.333 -3 -28c0 -14.667 3.33301 -26.334 10 -35.001c10.667 -14 26.667 -21 48 -21c36 0 73.833 10.167 113.5 30.5s73.5 44.5 101.5 72.5c23.333 -10 35 -26.667 35 -50c0 -15.333 -6.33301 -30.333 -19 -45c-52 -59.333 -110.5 -107.833 -175.5 -145.5
s-129.833 -56.5 -194.5 -56.5c-22 0 -42.167 2.33301 -60.5 7s-36.5 13.334 -54.5 26.001s-31.333 29.667 -40 51c-9.33301 22 -15.333 50 -18 84c-0.666992 7.33301 -0.666992 14.666 0 21.999c0 29.333 4.33301 62.666 13 99.999l86 408c4 18 6 34 6 48
c0 17.333 -3 31.666 -9 42.999c-10.667 20 -28 30 -52 30c-26.667 0 -58 -10.833 -94 -32.5s-65.667 -46.5 -89 -74.5l-125 -583c-9.33301 -44 -30 -76.5 -62 -97.5s-68.667 -31.5 -110 -31.5c-36.667 0 -68.667 8.66699 -96 26z" />
    <glyph glyph-name="o" unicode="o" horiz-adv-x="927" 
d="M-25 346c0 62 8.16504 125.665 24.498 190.998s40.333 127.833 72 187.5s68.334 113.334 110.001 161.001s90.167 85.667 145.5 114s113 42.5 173 42.5c54 0 101.667 -9.5 143 -28.5s74.5 -45.5 99.5 -79.5s43.667 -72.667 56 -116s18.5 -90.666 18.5 -141.999
c0 -61.333 -8.33301 -124.333 -25 -189s-41.167 -126.834 -73.5 -186.501s-69.833 -113.167 -112.5 -160.5s-92.834 -85.166 -150.501 -113.499s-117.5 -42.5 -179.5 -42.5c-51.333 0 -96.666 9.66699 -135.999 29s-70.666 46 -93.999 80s-41 72.333 -53 115
s-18 88.667 -18 138zM237.998 411.998c0 -84.667 12.334 -147.503 37.001 -188.503s56.667 -61.5 96 -61.5c51.333 0 100.166 29.333 146.499 88s82.333 128.834 108 210.501s38.5 158.834 38.5 231.501c0 58.667 -9.83301 105.834 -29.5 141.501s-49.5 53.5 -89.5 53.5
c-44.667 0 -86.667 -15.333 -126 -46s-71.833 -69.5 -97.5 -116.5s-46 -98.167 -61 -153.5s-22.5 -108.333 -22.5 -159z" />
    <glyph glyph-name="p" unicode="p" horiz-adv-x="974" 
d="M-233 -745l323 1542c4 16 4 28.5 0 37.5s-10.667 13.5 -20 13.5c-8.66699 0 -22.334 -8.33301 -41.001 -25c-15.333 8.66699 -23.666 25.334 -24.999 50.001c-0.666992 2 -1 4 -1 6c0 22 8.66699 41 26 57c83.333 65.333 159.666 98 228.999 98
c38.667 0 66.667 -9.33301 84 -28c12 -12 18 -28.667 18 -50c0 -10 -1.33301 -21.333 -4 -34l-10 -50c88 108 181 162 279 162c58 0 107 -15.5 147 -46.5s68.833 -71.333 86.5 -121s26.5 -106.5 26.5 -170.5c0 -78 -13.833 -158.333 -41.5 -241
s-65.5 -159.167 -113.5 -229.5s-108.833 -128.166 -182.5 -173.499s-152.5 -68 -236.5 -68c-52.667 0 -99.667 17.667 -141 53l-141 -680c-9.33301 -44 -29.166 -76.5 -59.499 -97.5s-65.833 -31.5 -106.5 -31.5c-36 0 -68 9 -96 27zM197 163.998
c28.667 -15.333 62.6689 -23 102.002 -23c50 0 96.667 15.5 140 46.5s78.666 70.5 105.999 118.5s48.833 99.833 64.5 155.5s23.5 109.5 23.5 161.5c0 68.667 -11 120.167 -33 154.5s-51.333 51.5 -88 51.5c-64.667 0 -132.334 -43.667 -203.001 -131z" />
    <glyph glyph-name="q" unicode="q" horiz-adv-x="1007" 
d="M-23 328c0 118.667 22.9971 232.834 68.9971 342.501s109.167 199 189.5 268s166.5 103.5 258.5 103.5c88 0 157.333 -22.333 208 -67c30 39.333 75.333 59 136 59c36.667 0 68.667 -8.66699 96 -26l-350 -1651c-9.33301 -44 -29.166 -76.5 -59.499 -97.5
s-65.833 -31.5 -106.5 -31.5c-36 0 -68 9 -96 27l188 892c-88.667 -108.667 -181 -163 -277 -163c-40.667 0 -76.667 7.83301 -108 23.5s-56.166 35.5 -74.499 59.5s-33.166 52 -44.499 84s-19 62.167 -23 90.5s-6 57.166 -6 86.499zM230.997 342
c0 -48.667 10.168 -85.333 30.501 -110s47.166 -37 80.499 -37c32.667 0 68.167 11.833 106.5 35.5s71.166 54.167 98.499 91.5l117 550c-33.333 11.333 -65.666 17 -96.999 17c-58.667 0 -110.667 -17.667 -156 -53s-80.5 -81.333 -105.5 -138s-43.667 -115.167 -56 -175.5
s-18.5 -120.5 -18.5 -180.5z" />
    <glyph glyph-name="r" unicode="r" horiz-adv-x="759" 
d="M-78 10l168 787.002c6 34 -0.666992 51 -20 51c-8.66699 0 -22.334 -8.33301 -41.001 -25c-15.333 8.66699 -23.666 25.334 -24.999 50.001c0 2 -0.333008 4 -1 6c0 22 8.66699 41 26 57c83.333 65.333 159.666 98 228.999 98c68 0 102 -26.333 102 -79
c0 -10 -1.33301 -21 -4 -33l-22 -111c73.333 148.667 161.333 223 264 223c46.667 0 83.334 -15.833 110.001 -47.5s40 -69.834 40 -114.501c0 -50 -14.833 -94.5 -44.5 -133.5s-69.5 -58.5 -119.5 -58.5c-24 0 -44 2.66699 -60 8c15.333 13.333 23 34.666 23 63.999
c0 15.333 -5.5 27.666 -16.5 36.999s-26.833 14 -47.5 14c-96 0 -185.333 -188.333 -268 -565l-25 -125c-9.33301 -44 -30 -76.5 -62 -97.5s-68.667 -31.5 -110 -31.5c-36.667 0 -68.667 8.66699 -96 26z" />
    <glyph glyph-name="s" unicode="s" horiz-adv-x="786" 
d="M-96 254c7.33301 44.667 26.334 82.1641 57.001 112.497s69.667 45.5 117 45.5c32.667 0 60 -9.66699 82 -29c-28.667 -32.667 -43 -75.667 -43 -129c0 -44 12.5 -77.5 37.5 -100.5s55.5 -34.5 91.5 -34.5c41.333 0 78.666 15.333 111.999 46s50 70 50 118
c0 24 -8.33301 46 -25 66s-37.5 36.667 -62.5 50s-52.167 29.833 -81.5 49.5s-56.5 40.167 -81.5 61.5s-45.833 50.833 -62.5 88.5s-25 80.5 -25 128.5c0 42 7.16699 81.5 21.5 118.5s35.5 70.333 63.5 100s64.833 53.167 110.5 70.5s97.167 26 154.5 26
c172 0 258 -66 258 -198c0 -55.333 -14 -97.666 -42 -126.999c-26 -27.333 -57 -41 -93 -41h-8c-28.667 2 -56 11.667 -82 29c22.667 28.667 34 65.334 34 110.001c0 36 -8.83301 63.5 -26.5 82.5s-39.5 28.5 -65.5 28.5c-30.667 0 -58.167 -14.667 -82.5 -44
s-36.5 -70 -36.5 -122c0 -29.333 6.16699 -55.333 18.5 -78s28.333 -41.667 48 -57s41.5 -29.666 65.5 -42.999l72 -42c24 -14.667 45.833 -30.834 65.5 -48.501s35.667 -40.167 48 -67.5s18.5 -58.666 18.5 -93.999c0 -106 -34 -190.167 -102 -252.5
s-173.667 -93.5 -317 -93.5c-103.333 0 -180.333 26.667 -231 80c-40.667 43.333 -61 93 -61 149c0 13.333 1 27 3 41z" />
    <glyph glyph-name="t" unicode="t" horiz-adv-x="514" 
d="M-18 287l131 617.999h-103c-1.33301 8.66699 -2 16.667 -2 24c0 23.333 6 43.666 18 60.999c16 22.667 39.333 34 70 34h41l37 168c9.33301 44 30 76.5 62 97.5s68.667 31.5 110 31.5c36 0 68 -9 96 -27l-57 -270h150c1.33301 -8.66699 2 -16.667 2 -24
c0 -23.333 -6 -43.666 -18 -60.999c-16 -22.667 -39.333 -34 -70 -34h-91l-120 -575c-6 -26 -9 -49 -9 -69c0 -55.333 23.333 -83 70 -83c36 0 73.833 10.167 113.5 30.5s73.5 44.5 101.5 72.5c23.333 -10 35 -26.667 35 -50c0 -15.333 -6.33301 -30.333 -19 -45
c-50.667 -57.333 -111.667 -105.333 -183 -144s-140 -58 -206 -58c-68 0 -117 24 -147 72c-17.333 28 -26 65.333 -26 112c0 34.667 4.66699 74.334 14 119.001z" />
    <glyph glyph-name="u" unicode="u" horiz-adv-x="1013" 
d="M-22 276c2.66699 33.333 8.00098 66.9971 16.001 100.997l96 420c4 16 4 28.5 0 37.5s-10.667 13.5 -20 13.5c-8.66699 0 -22.334 -8.33301 -41.001 -25c-15.333 8.66699 -23.666 25.334 -24.999 50.001c0 2 -0.333008 4 -1 6c0 22 8.66699 41 26 57
c83.333 65.333 159.666 98 228.999 98c38.667 0 66.667 -9.33301 84 -28c12 -12 18 -28.667 18 -50c0 -10.667 -1.33301 -22 -4 -34l-125 -582c-4 -17.333 -5.66699 -32.666 -5 -45.999c0 -50 25 -75 75 -75c66 0 128.667 35.667 188 107l123 579
c9.33301 44 30 76.5 62 97.5s68.667 31.5 110 31.5c37.333 0 69.666 -8.66699 96.999 -26l-144 -678c-6 -26 -9 -48.667 -9 -68c0 -56 23.667 -84 71 -84c36 0 73.833 10.167 113.5 30.5s73.5 44.5 101.5 72.5c23.333 -10 35 -26.667 35 -50
c0 -15.333 -6.33301 -30.333 -19 -45c-50 -56.667 -108 -104.5 -174 -143.5s-126 -58.5 -180 -58.5c-26.667 0 -51.167 3.83301 -73.5 11.5s-43.166 19.834 -62.499 36.501c-19.333 17.333 -34 41.333 -44 72c-8 24.667 -12 52.667 -12 84c0 8.66699 0.333008 17.667 1 27
c-94.667 -154 -194.334 -231 -299.001 -231c-43.333 0 -80 8.83301 -110 26.5s-52 40.167 -66 67.5c-13.333 26.667 -22.666 58 -27.999 94c-3.33301 24 -5 47 -5 69c0 12 0.333008 23.667 1 35z" />
    <glyph glyph-name="v" unicode="v" horiz-adv-x="860" 
d="M4 873c0 2 -0.331055 4 -0.998047 6c0 22 8.66699 41 26 57c83.333 65.333 159.666 98 228.999 98c38.667 0 66.667 -9.33301 84 -28c12 -12 18 -28.667 18 -50c0 -10.667 -1.33301 -22 -4 -34c-19.333 -90.667 -33 -178.334 -41 -263.001
c-4 -45.333 -6.33301 -90.666 -7 -135.999c0 -39.333 2 -79 6 -119c6.66699 -85.333 23.667 -154.333 51 -207c77.333 61.333 139.666 140.666 186.999 237.999s71 194.666 71 291.999c0 71.333 -10.833 134 -32.5 188s-53.167 90.333 -94.5 109c2 50.667 16.333 90 43 118
c25.333 26.667 55 40 89 40h5c44 -1.33301 82.667 -22 116 -62s50 -95.333 50 -166c0 -90.667 -12.167 -184 -36.5 -280s-56.5 -184.167 -96.5 -264.5s-84 -153 -132 -218s-97.833 -115.833 -149.5 -152.5s-99.167 -55 -142.5 -55c-41.333 0 -76.5 21.167 -105.5 63.5
s-49.833 96.166 -62.5 161.499c-13.333 64.667 -21.333 135 -24 211c-0.666992 20.667 -1 41.334 -1 62.001c0 54.667 3 107.334 9 158.001c8 70.667 19.333 129.667 34 177c2 8 1 15.167 -3 21.5s-10.333 9.5 -19 9.5s-22.334 -8.33301 -41.001 -25
c-15.333 8.66699 -23.666 25.334 -24.999 50.001z" />
    <glyph glyph-name="w" unicode="w" horiz-adv-x="1370" 
d="M0 889c0 15.333 13.502 34.498 40.502 57.498s61.333 43.333 103 61s79.834 26.5 114.501 26.5c68 0 102 -26.333 102 -79c0 -10 -1.33301 -21 -4 -33c-32.667 -150 -49 -288.667 -49 -416c0 -130.667 19.333 -233.667 58 -309c58.667 58 105.834 140.5 141.501 247.5
s72.167 260.5 109.5 460.5c8.66699 44 29.167 76.5 61.5 97.5s69.166 31.5 110.499 31.5c40 0 72.333 -8.66699 97 -26c-48 -221.333 -72 -389.333 -72 -504c0 -117.333 20.333 -219.666 61 -306.999c78 61.333 140.667 140.833 188 238.5s71 194.834 71 291.501
c0 71.333 -10.833 134 -32.5 188s-53.167 90.333 -94.5 109c2 50.667 16.333 90 43 118c25.333 26.667 55 40 89 40h5c44 -1.33301 82.667 -22 116 -62s50 -95.333 50 -166c0 -90.667 -12.167 -184 -36.5 -280s-56.5 -184.167 -96.5 -264.5s-84 -153 -132 -218
s-97.833 -115.833 -149.5 -152.5s-99.167 -55 -142.5 -55c-90 0 -142.667 131.667 -158 395c-54.667 -122.667 -113.334 -219.167 -176.001 -289.5s-121.334 -105.5 -176.001 -105.5c-33.333 0 -62.833 13.833 -88.5 41.5s-45.834 65 -60.501 112s-25.667 98.333 -33 154
s-11 114.834 -11 177.501c0 142.667 14.333 258.667 43 348c2.66699 9.33301 1.66699 16.833 -3 22.5s-11 8.5 -19 8.5c-12.667 0 -25.667 -7.66699 -39 -23c-20.667 19.333 -31 40.666 -31 63.999z" />
    <glyph glyph-name="x" unicode="x" horiz-adv-x="983" 
d="M-102 213c0 84.667 47.667 127.001 143 127.001c27.333 0 55.333 -9.66699 84 -29c-23.333 -50.667 -35 -104.334 -35 -161.001c49.333 28 96.333 64 141 108s96 113 154 207l-43 346c-2 18.667 -8.5 34.167 -19.5 46.5s-25.167 20.166 -42.5 23.499
c-4.66699 0.666992 -9.33398 1 -14.001 1c-14 0 -30.333 -3.33301 -49 -10c-24.667 -9.33301 -50 -25.666 -76 -48.999c-17.333 15.333 -26 34 -26 56c0 19.333 8.66699 38.333 26 57c81.333 70.667 154.333 106 219 106c69.333 0 120.666 -20.333 153.999 -61
s56 -107 68 -199l18 -145c105.333 122 158 219 158 291c0 26 -9.33301 48.667 -28 68c-18 18.667 -44.333 28 -79 28h-4c2 50 16.167 88.833 42.5 116.5s57.833 41.5 94.5 41.5c24.667 0 47.334 -3.5 68.001 -10.5s40.334 -18.333 59.001 -34s31.667 -39.5 39 -71.5
c4 -16 6 -33.333 6 -52s-2 -38.667 -6 -60c-12 -67.333 -44.167 -133.833 -96.5 -199.5s-132.166 -144.5 -239.499 -236.5l19 -145c16 -130 61 -195 135 -195c36 0 73.833 10.167 113.5 30.5s73.5 44.5 101.5 72.5c23.333 -10 35 -26.667 35 -50
c0 -15.333 -6.33301 -30.333 -19 -45c-50 -56.667 -108 -104.5 -174 -143.5s-126 -58.5 -180 -58.5c-65.333 0 -117.333 23 -156 69s-67.334 129.333 -86.001 250c-146.667 -212.667 -266.667 -319 -360 -319c-43.333 0 -78.333 20 -105 60s-40 96.333 -40 169z" />
    <glyph glyph-name="y" unicode="y" horiz-adv-x="940" 
d="M-219 -537c0 36 5.66211 70.3311 16.9951 102.998s26.333 62.334 45 89.001s43.334 53 74.001 79s61.834 49.333 93.501 70s70 42.5 115 65.5l127.5 62.5l141 64c2 0.666992 3.66699 1.33398 5 2.00098l20 74c9.33301 34.667 17 62 23 82
c-89.333 -112 -180.666 -168 -273.999 -168c-39.333 0 -72.666 7.66699 -99.999 23s-47.666 35.333 -60.999 60s-22.333 54.334 -27 89.001c-3.33301 21.333 -5 43 -5 65c0 13.333 0.333008 26.666 1 39.999c3.33301 35.333 9.33301 73.333 18 114l96 420
c4 16 4 28.5 0 37.5s-10.667 13.5 -20 13.5c-8.66699 0 -22.334 -8.33301 -41.001 -25c-15.333 8.66699 -23.666 25.334 -24.999 50.001c-0.666992 2 -1 4 -1 6c0 22 8.66699 41 26 57c83.333 65.333 159.666 98 228.999 98c38.667 0 66.667 -9.33301 84 -28
c12 -12 18 -28.667 18 -50c0 -10 -1.33301 -21.333 -4 -34l-127 -590c-2.66699 -13.333 -4 -26 -4 -38c0 -16.667 3 -31.334 9 -44.001c11.333 -20.667 33 -31 65 -31c54 0 106.667 24.667 158 74l133 612c9.33301 44 30 76.5 62 97.5s68.667 31.5 110 31.5
c36.667 0 68.667 -8.66699 96 -26l-174 -811l-18 -84c128 62.667 225.333 122 292 178c17.333 -15.333 26 -33.333 26 -54c0 -18 -7.66699 -34.333 -23 -49c-21.333 -19.333 -63.666 -48.333 -126.999 -87s-128.333 -73.667 -195 -105
c-14.667 -59.333 -29.334 -114 -44.001 -164s-32.667 -102.5 -54 -157.5s-43.5 -104.167 -66.5 -147.5s-50.167 -85.333 -81.5 -126s-64.666 -74.334 -99.999 -101.001s-75.5 -48 -120.5 -64s-92.833 -24 -143.5 -24c-29.333 0 -58.5 5.33301 -87.5 16
s-55.5 25.834 -79.5 45.501s-43.5 46 -58.5 79s-22.5 69.833 -22.5 110.5zM-53.0049 -510.002c0 -32 9.49707 -56 28.4971 -72s37.5 -24 55.5 -24c68.667 0 126.834 35.5 174.501 106.5s98.5 191.833 152.5 362.5c-69.333 -34 -125.666 -63.333 -168.999 -88
s-85.166 -52.5 -125.499 -83.5s-69.833 -62.833 -88.5 -95.5s-28 -68 -28 -106z" />
    <glyph glyph-name="z" unicode="z" horiz-adv-x="804" 
d="M-44 43c-11.333 19.333 -16.668 40.335 -16.001 63.002c0 22.667 5.66699 46.667 17 72c36 16.667 69.333 27.667 100 33c98.667 198 242 410.333 430 637c-29.333 -4.66699 -60.333 -7 -93 -7s-67.334 1.16699 -104.001 3.5s-63 3.5 -79 3.5
c-66.667 0 -110.334 -14.333 -131.001 -43c-18 28.667 -27 58.667 -27 90c0 44 14.5 81.667 43.5 113s67.167 47 114.5 47c42 0 94 -12 156 -36s108.333 -36 139 -36c44.667 0 88.334 11.667 131.001 35c28.667 -14.667 52.667 -32 72 -52s39.666 -49 60.999 -87
c-83.333 -85.333 -167 -191.833 -251 -319.5s-155.333 -252.167 -214 -373.5c2 -0.666992 13 -3.83398 33 -9.50098s32.167 -9.16699 36.5 -10.5s15 -4.16602 32 -8.49902s29.5 -7.16602 37.5 -8.49902s18.833 -3.33301 32.5 -6s26.334 -4.33398 38.001 -5.00098
s23.167 -1 34.5 -1c43.333 0 88.833 14.167 136.5 42.5s87.5 62.166 119.5 101.499c23.333 -10 35 -26.667 35 -50c0 -15.333 -6.33301 -30.333 -19 -45c-126 -134.667 -251 -202 -375 -202c-17.333 0 -37.166 2.66699 -59.499 8s-42.166 11.166 -59.499 17.499
s-40.666 15.333 -69.999 27s-53 20.5 -71 26.5c-30.667 -52.667 -67.334 -79 -110.001 -79c-57.333 0 -97.333 19.667 -120 59z" />
    <glyph glyph-name="braceleft" unicode="{" horiz-adv-x="792" 
d="M49 561c4 27.333 19.166 52.3311 45.499 74.998s65.833 34 118.5 34c31.333 0 63.333 -7 96 -21c43.333 33.333 71.333 93.333 84 180c8.66699 62.667 13.834 140.334 15.501 233.001s3.5 147 5.5 163c4 34 10.667 66.5 20 97.5s23 62.333 41 94s39.167 59.167 63.5 82.5
s54.833 42.166 91.5 56.499s77.334 21.5 122.001 21.5c42.667 0 79.167 -2.16699 109.5 -6.5s54.166 -10.333 71.499 -18s29.833 -17.167 37.5 -28.5s10.667 -23.5 9 -36.5s-7.16699 -27.5 -16.5 -43.5c-64 17.333 -116 26 -156 26c-50.667 0 -89 -17.5 -115 -52.5
s-43 -95.833 -51 -182.5l-25 -283c-8 -84 -29 -158.167 -63 -222.5s-84.667 -110.833 -152 -139.5c64.667 -44.667 92.667 -104.667 84 -180c-8.66699 -59.333 -26.667 -122.166 -54 -188.499l-81 -195c-26.667 -63.667 -43.667 -122.5 -51 -176.5
c-14 -99.333 33.667 -149 143 -149c54 0 121.667 13 203 39c17.333 -56 -3.33398 -99.333 -62.001 -130s-143.667 -46 -255 -46c-104 0 -174.333 25.833 -211 77.5s-48.334 124.167 -35.001 217.5c4.66699 36 17.5 80.167 38.5 132.5s42.833 100.5 65.5 144.5
s44.334 90.333 65.001 139s32.667 87.334 36 116.001c8.66699 62 -3.66602 98.333 -36.999 109c-28.667 -24.667 -63.667 -37 -105 -37c-35.333 0 -61 10 -77 30s-22.333 42.667 -19 68z" />
    <glyph glyph-name="bar" unicode="|" horiz-adv-x="632" 
d="M100 -205l367 1721c92 -4.66699 130.333 -45.667 115 -123l-367 -1721c-37.333 -3.33301 -67.833 6.66699 -91.5 30s-31.5 54.333 -23.5 93z" />
    <glyph glyph-name="braceright" unicode="}" horiz-adv-x="792" 
d="M-190.5 -346.5c1.66699 13 7.16309 27.501 16.4961 43.501c66.667 -18 118.667 -27 156 -27c50.667 0 88.834 17.667 114.501 53s42.5 96.333 50.5 183l25 282c6.66699 82.667 27.334 156.667 62.001 222s85.667 112.333 153 141c-66.667 42 -94.667 102 -84 180
c6.66699 47.333 19.334 97.166 38.001 149.499s37.5 97.833 56.5 136.5s37.5 83 55.5 133s30 96.667 36 140c14 100 -33.667 150 -143 150c-54 0 -121.667 -13 -203 -39c-17.333 56 3.33398 99.333 62.001 130s144 46 256 46c104 0 174.333 -25.833 211 -77.5
s48.334 -124.167 35.001 -217.5c-4.66699 -36 -17.5 -80.167 -38.5 -132.5s-42.833 -100.5 -65.5 -144.5s-44.334 -90.333 -65.001 -139s-32.667 -87.334 -36 -116.001c-8.66699 -62 3 -99 35 -111c28 26 63.333 39 106 39c35.333 0 61 -10 77 -30s22.333 -42.667 19 -68
c-4 -27.333 -19.167 -52.333 -45.5 -75s-65.833 -34 -118.5 -34c-35.333 0 -68 6 -98 18c-44.667 -36 -72 -95.333 -82 -178c-8.66699 -62.667 -13.667 -140.167 -15 -232.5s-3 -146.5 -5 -162.5c-4 -34 -10.667 -66.5 -20 -97.5s-23 -62.333 -41 -94
s-39.167 -59.167 -63.5 -82.5s-54.833 -42.166 -91.5 -56.499s-77.334 -21.5 -122.001 -21.5c-42.667 0 -79.167 2.16699 -109.5 6.5s-54.166 10.333 -71.499 18s-29.833 17.167 -37.5 28.5s-10.667 23.5 -9 36.5z" />
    <glyph glyph-name="asciitilde" unicode="~" horiz-adv-x="720" 
d="M33 543c0 37.333 14.665 73.9971 43.998 109.997s69.333 54 120 54c32.667 0 70.334 -5.33301 113.001 -16s77.834 -20.167 105.501 -28.5s56.834 -9.16602 87.501 -2.49902s57 24.334 79 53.001c40.667 -24.667 61 -63.667 61 -117c0 -44 -15.333 -82.333 -46 -115
s-66.667 -49 -108 -49c-30.667 -1.33301 -78 13.834 -142 45.501s-111.333 47.167 -142 46.5c-24.667 0 -47.834 -6.33301 -69.501 -19s-38.167 -30.667 -49.5 -54c-35.333 15.333 -53 46 -53 92z" />
    <glyph glyph-name="uni00A0" unicode="&#xa0;" horiz-adv-x="512" 
 />
    <glyph glyph-name="dieresis" unicode="&#xa8;" horiz-adv-x="829" 
d="M109 1315c0 36 12.167 66.167 36.5 90.5s54.5 36.5 90.5 36.5s66 -12.167 90 -36.5s36 -54.5 36 -90.5s-12 -66.167 -36 -90.5s-54 -36.5 -90 -36.5s-66.167 12.167 -90.5 36.5s-36.5 54.5 -36.5 90.5zM512 1315c0 36 12.333 66.167 37 90.5s54.667 36.5 90 36.5
c36 0 66.167 -12.167 90.5 -36.5s36.5 -54.5 36.5 -90.5s-12.167 -66.167 -36.5 -90.5s-54.5 -36.5 -90.5 -36.5c-35.333 0 -65.333 12.167 -90 36.5s-37 54.5 -37 90.5z" />
    <glyph glyph-name="guillemotleft" unicode="&#xab;" horiz-adv-x="950" 
d="M51 547l393.002 403c22 22 46.833 35 74.5 39s53 0.833008 76 -9.5s41.833 -25.5 56.5 -45.5l-401 -387l295 -387c-20.667 -20 -43.834 -35.333 -69.501 -46s-51.834 -14 -78.501 -10s-47.667 17 -63 39zM381.002 547l368.999 325.002
c32.667 25.333 66.334 34.166 101.001 26.499s61 -25.834 79 -54.501l-371 -297l289 -297c-25.333 -28.667 -56.833 -47 -94.5 -55s-69.167 0.666992 -94.5 26z" />
    <glyph glyph-name="uni00AD" unicode="&#xad;" horiz-adv-x="686" 
d="M16 535c0 36.667 16.667 67.667 50 93s77.666 38 132.999 38c30 0 70.333 -3.16699 121 -9.5s87.334 -9.5 110.001 -9.5c42 0 79.667 10.333 113 31c16 -26 24 -50.667 24 -74c0 -39.333 -16.667 -74 -50 -104s-76 -45 -128 -45c-28 0 -67.833 7.83301 -119.5 23.5
s-93.167 23.5 -124.5 23.5c-46 0 -80 -13.667 -102 -41c-18 25.333 -27 50 -27 74z" />
    <glyph glyph-name="guillemotright" unicode="&#xbb;" horiz-adv-x="923" 
d="M20 250l369 296.998l-287 297c25.333 28.667 56.833 46.834 94.5 54.501s69.167 -1.16602 94.5 -26.499l278 -325l-368 -326c-32.667 -25.333 -66.5 -34 -101.5 -26s-61.5 26.333 -79.5 55zM299 159.998l399 387l-292 387c20.667 20 43.834 35.167 69.501 45.5
s51.667 13.5 78 9.5s47.166 -17 62.499 -39l283 -403l-393 -404c-22 -22 -46.833 -35 -74.5 -39s-53 -0.666992 -76 10s-41.833 26 -56.5 46z" />
    <glyph glyph-name="afii10023" unicode="&#x401;" 
d="M86 389c0 103.333 32.168 200.166 96.501 290.499s151.5 152.5 261.5 186.5c-54.667 36 -95.5 80.333 -122.5 133s-40.5 109.334 -40.5 170.001c0 50.667 10 100.167 30 148.5s48 91.833 84 130.5s82.333 69.834 139 93.501s119 35.5 187 35.5
c111.333 0 194.833 -24.333 250.5 -73s83.5 -109 83.5 -181c0 -59.333 -15.667 -110 -47 -152s-71.666 -63 -120.999 -63c-20 0 -42.167 7.16699 -66.5 21.5s-41.833 34.5 -52.5 60.5c30 8.66699 54.167 27.667 72.5 57s27.5 60.666 27.5 93.999
c0 34 -10.167 62.667 -30.5 86s-50.166 35 -89.499 35c-75.333 0 -135.166 -29.833 -179.499 -89.5s-66.5 -129.5 -66.5 -209.5c0 -69.333 17.833 -131.333 53.5 -186s87.5 -90.334 155.5 -107.001c4 -28 -3 -53.667 -21 -77c-64.667 -4.66699 -121.5 -26.167 -170.5 -64.5
s-85.333 -84 -109 -137s-35.5 -108.167 -35.5 -165.5c0 -74 20.667 -136.167 62 -186.5s101.666 -75.5 180.999 -75.5c65.333 0 131.166 9.5 197.499 28.5s126.166 48.5 179.499 88.5c23.333 -10 35 -26.667 35 -50c0 -18 -6 -33 -18 -45
c-67.333 -67.333 -149.5 -117.833 -246.5 -151.5s-194.5 -50.5 -292.5 -50.5c-64.667 0 -122.334 11 -173.001 33s-91.167 52 -121.5 90s-53.333 80.833 -69 128.5s-23.5 98.834 -23.5 153.501zM455.001 1765c0 36 12.167 66.167 36.5 90.5s54.5 36.5 90.5 36.5
s66.167 -12.167 90.5 -36.5s36.5 -54.5 36.5 -90.5s-12.167 -66.167 -36.5 -90.5s-54.5 -36.5 -90.5 -36.5s-66.167 12.167 -90.5 36.5s-36.5 54.5 -36.5 90.5zM858.001 1765c0 36 12.333 66.167 37 90.5s54.667 36.5 90 36.5c36 0 66.167 -12.167 90.5 -36.5
s36.5 -54.5 36.5 -90.5s-12.167 -66.167 -36.5 -90.5s-54.5 -36.5 -90.5 -36.5c-35.333 0 -65.333 12.167 -90 36.5s-37 54.5 -37 90.5z" />
    <glyph glyph-name="afii10017" unicode="&#x410;" horiz-adv-x="1398" 
d="M-4 264c0 102.667 57.999 154.003 173.999 154.003c38.667 0 72.667 -11.667 102 -35c-28.667 -65.333 -43 -135.666 -43 -210.999v-18c35.333 13.333 69.833 34.5 103.5 63.5s72.167 75 115.5 138s87.166 141 131.499 234s93.833 214 148.5 363s111 320.167 169 513.5
h-41c-86 0 -149.833 -19.667 -191.5 -59s-62.5 -86.333 -62.5 -141c0 -47.333 13.667 -87 41 -119c-31.333 -14 -60.666 -21 -87.999 -21c-50 0 -90.167 19.167 -120.5 57.5s-45.5 84.166 -45.5 137.499c0 34 6.5 66.667 19.5 98s32.667 60.666 59 87.999
s62 49.166 107 65.499s96.5 24.5 154.5 24.5c57.333 0 122.833 -4.5 196.5 -13.5s134.834 -17.667 183.501 -26s103 -13.833 163 -16.5s105 2.33301 135 15c19.333 -11.333 29 -29 29 -53c0 -21.333 -6.5 -40 -19.5 -56s-30.5 -24 -52.5 -24h-8l-234 -1093
c-21.333 -101.333 1.33398 -152 68.001 -152c30 0 65.167 11 105.5 33s74.833 45.333 103.5 70c23.333 -10 35 -26.667 35 -50c0 -15.333 -6.33301 -30.333 -19 -45c-60 -60.667 -121.333 -109.5 -184 -146.5s-119.334 -55.5 -170.001 -55.5
c-24.667 0 -48.167 2.5 -70.5 7.5s-44 13.167 -65 24.5s-37.833 26.333 -50.5 45s-21.834 41.667 -27.501 69s-4.16699 59.666 4.5 96.999l70 332h-230c-88.667 -204.667 -174.667 -351.667 -258 -441s-170.666 -134 -261.999 -134c-52.667 0 -95.167 24.5 -127.5 73.5
s-48.5 117.833 -48.5 206.5zM740.999 678.003h204.999l164 770l-113 12c-89.333 -313.333 -174.666 -574 -255.999 -782z" />
    <glyph glyph-name="afii10018" unicode="&#x411;" horiz-adv-x="1286" 
d="M47 1184c0 51.333 9.50098 97.9971 28.501 139.997s45 76.667 78 104s69.333 51.166 109 71.499s82.5 35.833 128.5 46.5s89.167 18.5 129.5 23.5s79.833 7.5 118.5 7.5c36 0 101.5 -4.16699 196.5 -12.5s161.833 -12.5 200.5 -12.5c106 0 186.667 20 242 60
c29.333 -85.333 27.333 -157.5 -6 -216.5s-86.666 -88.5 -159.999 -88.5c-28 0 -58 4.33301 -90 13s-71.5 21.667 -118.5 39s-83.167 30 -108.5 38l-115 -533c65.333 22 124 33 176 33c51.333 0 97.166 -6.83301 137.499 -20.5s72.666 -31 96.999 -52s44.333 -45.667 60 -74
s26.5 -55.666 32.5 -81.999s9 -53.166 9 -80.499c0 -51.333 -10.333 -105 -31 -161s-51.167 -110.167 -91.5 -162.5s-87.166 -99.5 -140.499 -141.5s-115.5 -75.667 -186.5 -101s-144.5 -38 -220.5 -38c-115.333 0 -213 14.333 -293 43s-120 66 -120 112
c0 24 6.66699 45.667 20 65s33.666 33.333 60.999 42c29.333 -25.333 61 -47.333 95 -66l268 1252c-74.667 -5.33301 -139.5 -35.333 -194.5 -90s-82.5 -126.667 -82.5 -216c0 -39.333 9.66699 -74.666 29 -105.999c-47.333 -11.333 -87.5 -15 -120.5 -11
s-59.667 15.333 -80 34s-35 39.834 -44 63.501s-13.5 49.5 -13.5 77.5zM520.001 114.997h1.99902c69.333 0 135.833 22.5 199.5 67.5s114.334 103.333 152.001 175s56.5 145.167 56.5 220.5c0 55.333 -15 99.5 -45 132.5s-74.333 49.5 -133 49.5c-32 0 -64.333 -4 -97 -12z
" />
    <glyph glyph-name="afii10019" unicode="&#x412;" horiz-adv-x="1275" 
d="M66 1200c0 54.667 20.835 106.001 62.502 154.001s95.667 88 162 120s140.166 57.167 221.499 75.5s162 27.5 242 27.5c53.333 0 101.166 -2.66699 143.499 -8s82.5 -14.666 120.5 -27.999s69.5 -31 94.5 -53s44.833 -50.5 59.5 -85.5s22 -75.833 22 -122.5
c0 -81.333 -28.667 -163.5 -86 -246.5s-136 -151.167 -236 -204.5l2 -2c102.667 0 180 -24 232 -72s78 -110.667 78 -188c0 -62.667 -16.5 -128 -49.5 -196s-77.667 -130.833 -134 -188.5s-126.833 -105.167 -211.5 -142.5s-173.667 -56 -267 -56
c-115.333 0 -213 14.333 -293 43s-120 66 -120 112c0 24 6.66699 45.667 20 65s33.666 33.333 60.999 42c29.333 -25.333 61 -47.333 95 -66l233 1102c9.33301 44.667 30.333 77.667 63 99s70.334 32 113.001 32c38 0 71 -9 99 -27l-119 -555
c81.333 24.667 150.833 80 208.5 166s86.5 172 86.5 258c0 78.667 -20.167 136 -60.5 172s-102.833 54 -187.5 54c-68.667 0 -136.334 -13.333 -203.001 -40s-123.167 -66.334 -169.5 -119.001s-69.5 -111.667 -69.5 -177c0 -48.667 13.333 -88.334 40 -119.001
c-29.333 -13.333 -58.666 -20 -87.999 -20c-50 0 -90 19 -120 57s-45 83.667 -45 137zM520.002 115.001h2.00098c68.667 0 134 21.5 196 64.5s111.5 98.667 148.5 167s55.5 138.5 55.5 210.5c0 55.333 -15.167 99.5 -45.5 132.5s-74.833 49.5 -133.5 49.5
c-28.667 0 -59.334 -4 -92.001 -12z" />
    <glyph glyph-name="afii10020" unicode="&#x413;" horiz-adv-x="976" 
d="M242 10l321.001 1422c-40.667 -2 -78.667 -14.333 -114 -37c-16.667 20.667 -25 43 -25 67c0 21.333 5.66699 39.5 17 54.5s24.666 26.333 39.999 34s34.833 13.667 58.5 18s43.334 6.83301 59.001 7.5s33.834 1 54.501 1c36 0 101.667 -4.16699 197 -12.5
s162.333 -12.5 201 -12.5c105.333 0 185.666 20 240.999 60c28.667 -84 26.667 -154 -6 -210s-86 -87.667 -160 -95c-28.667 -3.33301 -58.834 -1.16602 -90.501 6.50098s-73.667 21.834 -126 42.501s-89.166 34.334 -110.499 41.001l-273 -1282
c-9.33301 -44.667 -30.333 -77.667 -63 -99s-70.334 -32 -113.001 -32c-47.333 0 -83.333 8.66699 -108 26z" />
    <glyph glyph-name="afii10021" unicode="&#x414;" horiz-adv-x="1415" 
d="M-74 127c0 48 19.3262 90.998 57.9932 128.998s90.334 57 155.001 57c42.667 0 95.334 -18.333 158.001 -55c24.667 40 45 95.333 61 166l183 858c9.33301 44.667 30.333 77.667 63 99s70.334 32 113.001 32c37.333 0 70 -9 98 -27l-194 -890
c-32 -141.333 -82 -255.333 -150 -342c55.333 -26 108 -39 158 -39c64 0 123.5 17.167 178.5 51.5s101.5 79.833 139.5 136.5s70.667 121.834 98 195.501s47.333 149.834 60 228.501s19 157.334 19 236.001c0 56.667 -4.16699 110 -12.5 160s-22.166 97 -41.499 141
s-43.166 81.667 -71.499 113s-63.666 56.166 -105.999 74.499s-89.833 27.5 -142.5 27.5c-79.333 0 -149.833 -9.16699 -211.5 -27.5s-111 -43.166 -148 -74.499s-64.833 -66.666 -83.5 -105.999s-28 -81.333 -28 -126c0 -48.667 13.333 -88.334 40 -119.001
c-29.333 -13.333 -58.666 -20 -87.999 -20c-50 0 -90 19 -120 57s-45 83.667 -45 137c0 52 15.167 100.5 45.5 145.5s74.666 84.833 132.999 119.5s134 62 227 82s198.5 30 316.5 30c103.333 0 194.5 -16.333 273.5 -49s141.833 -77.5 188.5 -134.5
s81.5 -121.333 104.5 -193s34.5 -149.5 34.5 -233.5c0 -92 -10.167 -184.333 -30.5 -277s-51.166 -181.334 -92.499 -266.001s-90.666 -159.667 -147.999 -225s-125.833 -117.5 -205.5 -156.5s-164.834 -58.5 -255.501 -58.5c-92 0 -182 30 -270 90
c-78.667 -60 -171.334 -90 -278.001 -90c-53.333 0 -97.166 12.833 -131.499 38.5s-51.5 60.5 -51.5 104.5zM48.9932 185.998c0 -15.333 6.83301 -27.668 20.5 -37.001s31.5 -14 53.5 -14c45.333 0 86.333 18.333 123 55c-44 37.333 -79 56 -105 56
c-27.333 0 -49.5 -6.16699 -66.5 -18.5s-25.5 -26.166 -25.5 -41.499z" />
    <glyph glyph-name="afii10022" unicode="&#x415;" 
d="M86 389c0 103.333 32.168 200.166 96.501 290.499s151.5 152.5 261.5 186.5c-54.667 36 -95.5 80.333 -122.5 133s-40.5 109.334 -40.5 170.001c0 50.667 10 100.167 30 148.5s48 91.833 84 130.5s82.333 69.834 139 93.501s119 35.5 187 35.5
c111.333 0 194.833 -24.333 250.5 -73s83.5 -109 83.5 -181c0 -59.333 -15.667 -110 -47 -152s-71.666 -63 -120.999 -63c-20 0 -42.167 7.16699 -66.5 21.5s-41.833 34.5 -52.5 60.5c30 8.66699 54.167 27.667 72.5 57s27.5 60.666 27.5 93.999
c0 34 -10.167 62.667 -30.5 86s-50.166 35 -89.499 35c-75.333 0 -135.166 -29.833 -179.499 -89.5s-66.5 -129.5 -66.5 -209.5c0 -69.333 17.833 -131.333 53.5 -186s87.5 -90.334 155.5 -107.001c4 -28 -3 -53.667 -21 -77c-64.667 -4.66699 -121.5 -26.167 -170.5 -64.5
s-85.333 -84 -109 -137s-35.5 -108.167 -35.5 -165.5c0 -74 20.667 -136.167 62 -186.5s101.666 -75.5 180.999 -75.5c65.333 0 131.166 9.5 197.499 28.5s126.166 48.5 179.499 88.5c23.333 -10 35 -26.667 35 -50c0 -18 -6 -33 -18 -45
c-67.333 -67.333 -149.5 -117.833 -246.5 -151.5s-194.5 -50.5 -292.5 -50.5c-64.667 0 -122.334 11 -173.001 33s-91.167 52 -121.5 90s-53.333 80.833 -69 128.5s-23.5 98.834 -23.5 153.501z" />
    <glyph glyph-name="afii10024" unicode="&#x416;" horiz-adv-x="2207" 
d="M-2 260c0 50 14.0049 92.834 42.0049 128.501s70.667 53.5 128 53.5c15.333 0 31.666 -4.16699 48.999 -12.5s29.666 -19.166 36.999 -32.499c-18 -31.333 -27 -64.666 -27 -99.999c0 -56.667 11.167 -101.167 33.5 -133.5s54.166 -48.5 95.499 -48.5
c71.333 0 134.5 41 189.5 123s97 192 126 330s43.5 291.333 43.5 460c0 124 -12.333 220.5 -37 289.5s-61.667 103.5 -111 103.5c-108.667 0 -197.334 -75 -266.001 -225c-25.333 4 -42.666 16.833 -51.999 38.5s-9.66602 43.5 -0.999023 65.5
c32 81.333 80.833 145.166 146.5 191.499s135.5 69.5 209.5 69.5c110.667 0 193.667 -46.5 249 -139.5s83 -223.5 83 -391.5c0 -113.333 -12.333 -224.666 -37 -333.999l197 348l82 381c9.33301 44.667 30.333 77.667 63 99s70.334 32 113.001 32
c36 0 68.667 -8.66699 98 -26l-176 -830l240 418c56.667 133.333 127.667 240.5 213 321.5s180.666 121.5 285.999 121.5c115.333 0 197.333 -40 246 -120c36.667 -60 47 -127.667 31 -203c-14 -66.667 -43.333 -115 -88 -145c-24 -16 -50 -24 -78 -24
c-20 0 -42.167 7.16699 -66.5 21.5s-41.833 34.5 -52.5 60.5c25.333 14.667 45 37.5 59 68.5s21 61.5 21 91.5s-8.66699 56.5 -26 79.5s-42 34.5 -74 34.5c-77.333 0 -149.333 -58.333 -216 -175c-67.333 -118 -113 -262.667 -137 -434
c-26.667 -182.667 -19.334 -333.667 21.999 -453c43.333 -124.667 117.333 -187 222 -187c52.667 0 110.834 11.167 174.501 33.5s115.5 46.166 155.5 71.499c23.333 -10 35 -26.667 35 -50c0 -19.333 -6.33301 -34.333 -19 -45c-68 -65.333 -142 -115.333 -222 -150
s-158.333 -52 -235 -52c-64.667 0 -121.334 14.167 -170.001 42.5s-87.5 67.666 -116.5 117.999s-50.5 107.333 -64.5 171s-21 133.834 -21 210.501c0 110 10.667 213.333 32 310l-196 -340l-80 -381c-9.33301 -44.667 -30.333 -77.667 -63 -99s-70.334 -32 -113.001 -32
c-40.667 0 -73.334 8.66699 -98.001 26l172 813l-236 -415h-2c-54.667 -129.333 -123.834 -232.333 -207.501 -309s-177.5 -115 -281.5 -115c-38 0 -72.167 2.16699 -102.5 6.5s-59.666 12.666 -87.999 24.999s-52 28.666 -71 48.999s-34.167 47 -45.5 80
s-17 71.5 -17 115.5z" />
    <glyph glyph-name="afii10025" unicode="&#x417;" horiz-adv-x="1130" 
d="M47 270c0 50 14.1719 93 42.5049 129s70.833 54 127.5 54c15.333 0 31.666 -4.16699 48.999 -12.5s29.666 -19.166 36.999 -32.499c-18 -28 -27 -61.667 -27 -101c0 -61.333 16.167 -108.333 48.5 -141s72.833 -49 121.5 -49c35.333 0 71.333 8.83301 108 26.5
s70.667 42.5 102 74.5s56.833 74 76.5 126s29.5 108.667 29.5 170c0 46 -6.33301 83.667 -19 113s-33.334 52 -62.001 68s-61.667 27 -99 33s-85.333 9 -144 9c-12 31.333 -7 65 15 101c52 2 98.333 12.167 139 30.5s73.667 41.333 99 69s46.166 59.834 62.499 96.501
s27.666 72.667 33.999 108s9.5 71.666 9.5 108.999c0 64.667 -15.833 113.334 -47.5 146.001s-69.834 49 -114.501 49c-48.667 0 -86.5 -14.833 -113.5 -44.5s-40.5 -66.834 -40.5 -111.501c0 -36.667 10.333 -74 31 -112c-30 -20.667 -60 -31 -90 -31
c-37.333 0 -69.166 13 -95.499 39s-39.5 60.667 -39.5 104c0 42.667 8.66699 81 26 115s39.666 61.5 66.999 82.5s59 38.5 95 52.5s71 23.667 105 29s68 8 102 8c48 0 93 -6.16699 135 -18.5s79.833 -30.833 113.5 -55.5s60.334 -57.834 80.001 -99.501
s29.5 -89.5 29.5 -143.5c0 -35.333 -7.33301 -73.333 -22 -114s-35.834 -81.834 -63.501 -123.501s-65.167 -81.167 -112.5 -118.5s-100.666 -67.666 -159.999 -90.999c110 2 194.833 -20.667 254.5 -68s89.5 -120.333 89.5 -219c0 -78 -18.667 -151.667 -56 -221
s-85.333 -127 -144 -173s-123.5 -82.167 -194.5 -108.5s-140.833 -39.5 -209.5 -39.5c-108 0 -197.5 24.5 -268.5 73.5s-106.5 119.833 -106.5 212.5z" />
    <glyph glyph-name="afii10026" unicode="&#x418;" horiz-adv-x="1437" 
d="M66 1321c0 34 6.49902 66.6709 19.499 98.0039s32.667 60.666 59 87.999s62 49.166 107 65.499s96.5 24.5 154.5 24.5c36.667 0 79 -4.5 127 -13.5s88 -17.5 120 -25.5s66.833 -13.333 104.5 -16s64.5 2 80.5 14c18.667 -11.333 28 -29 28 -53
c0 -21.333 -6.33301 -40 -19 -56s-30 -24 -52 -24h-19l-207 -977l572 959c24.667 46 50.834 79.333 78.501 100s60.167 31 97.5 31s70 -9 98 -27l-254 -1179c-21.333 -101.333 1.33398 -152 68.001 -152c30 0 65.167 11 105.5 33s74.833 45.333 103.5 70
c23.333 -10 35 -26.667 35 -50c0 -15.333 -6.33301 -30.333 -19 -45c-69.333 -64.667 -132.333 -114.5 -189 -149.5s-112.334 -52.5 -167.001 -52.5c-26.667 0 -50.834 2.66699 -72.501 8s-43 14.5 -64 27.5s-36.833 30.667 -47.5 53s-18 50.833 -22 85.5
s-0.333008 75.667 11 123l166 784l-571 -950c-26 -46.667 -52.5 -80.167 -79.5 -100.5s-59.167 -30.5 -96.5 -30.5c-38.667 0 -71.667 8.66699 -99 26l309 1456c-86 0 -149.667 -19.667 -191 -59s-62 -86.333 -62 -141c0 -48.667 13.333 -88.334 40 -119.001
c-31.333 -14 -60.666 -21 -87.999 -21c-50 0 -90 19.167 -120 57.5s-45 84.166 -45 137.499z" />
    <glyph glyph-name="afii10027" unicode="&#x419;" horiz-adv-x="1437" 
d="M66 1321c0 34 6.49902 66.6709 19.499 98.0039s32.667 60.666 59 87.999s62 49.166 107 65.499s96.5 24.5 154.5 24.5c36.667 0 79 -4.5 127 -13.5s88 -17.5 120 -25.5s66.833 -13.333 104.5 -16s64.5 2 80.5 14c18.667 -11.333 28 -29 28 -53
c0 -21.333 -6.33301 -40 -19 -56s-30 -24 -52 -24h-19l-207 -977l572 959c24.667 46 50.834 79.333 78.501 100s60.167 31 97.5 31s70 -9 98 -27l-254 -1179c-21.333 -101.333 1.33398 -152 68.001 -152c30 0 65.167 11 105.5 33s74.833 45.333 103.5 70
c23.333 -10 35 -26.667 35 -50c0 -15.333 -6.33301 -30.333 -19 -45c-69.333 -64.667 -132.333 -114.5 -189 -149.5s-112.334 -52.5 -167.001 -52.5c-26.667 0 -50.834 2.66699 -72.501 8s-43 14.5 -64 27.5s-36.833 30.667 -47.5 53s-18 50.833 -22 85.5
s-0.333008 75.667 11 123l166 784l-571 -950c-26 -46.667 -52.5 -80.167 -79.5 -100.5s-59.167 -30.5 -96.5 -30.5c-38.667 0 -71.667 8.66699 -99 26l309 1456c-86 0 -149.667 -19.667 -191 -59s-62 -86.333 -62 -141c0 -48.667 13.333 -88.334 40 -119.001
c-31.333 -14 -60.666 -21 -87.999 -21c-50 0 -90 19.167 -120 57.5s-45 84.166 -45 137.499zM757.999 1776c0 48 15.167 88.999 45.5 122.999s72.5 51 126.5 51c29.333 0 56.666 -7 81.999 -21c-10 -18 -15 -38.333 -15 -61c0 -29.333 8.83301 -52 26.5 -68
s40.5 -24 68.5 -24c36.667 0 73 14.333 109 43s63.667 69.667 83 123c20.667 3.33301 39.167 -1.16699 55.5 -13.5s22.5 -31.166 18.5 -56.499c-7.33301 -76.667 -48.166 -145 -122.499 -205s-163.833 -90 -268.5 -90c-67.333 0 -119 19.667 -155 59s-54 86 -54 140z" />
    <glyph glyph-name="afii10028" unicode="&#x41a;" horiz-adv-x="1351" 
d="M66 1321c0 34 6.49414 66.667 19.4941 98s32.667 60.666 59 87.999s62 49.166 107 65.499s96.5 24.5 154.5 24.5c36.667 0 79 -4.5 127 -13.5s88 -17.5 120 -25.5s66.833 -13.333 104.5 -16s64.5 2 80.5 14c18.667 -11.333 28 -29 28 -53c0 -21.333 -6.33301 -40 -19 -56
s-30 -24 -52 -24h-19l-133 -628l49 16c46 26.667 88.167 57.834 126.5 93.501s71.333 74.334 99 116.001s51.834 82.667 72.501 123s39 85 55 134s28.667 91.5 38 127.5s19 77 29 123c20.667 10.667 46 16 76 16c36 0 68.5 -11.5 97.5 -34.5s43.5 -52.5 43.5 -88.5
c0 -92.667 -33.667 -188.167 -101 -286.5s-160.666 -195.166 -279.999 -290.499c44 -444 125.333 -666 244 -666c26.667 0 54.834 10 84.501 30s54.834 44.333 75.501 73c20 -8.66699 30 -24.667 30 -48c0 -18 -7.66699 -40.667 -23 -68s-36.166 -54.666 -62.499 -81.999
s-60.333 -50.666 -102 -69.999s-85.5 -29 -131.5 -29c-45.333 0 -86.5 14.833 -123.5 44.5s-67.5 67.667 -91.5 114s-44.833 102.166 -62.5 167.499s-31.167 129 -40.5 191s-16.666 128.333 -21.999 199l-105 -14l-120 -571c-9.33301 -44.667 -30.333 -77.667 -63 -99
s-70.334 -32 -113.001 -32c-48 0 -84.333 8.66699 -109 26l330 1456h-11c-86 0 -149.667 -19.667 -191 -59s-62 -86.333 -62 -141c0 -48.667 13.333 -88.334 40 -119.001c-31.333 -14 -60.666 -21 -87.999 -21c-50 0 -90 19.167 -120 57.5s-45 84.166 -45 137.499z" />
    <glyph glyph-name="afii10029" unicode="&#x41b;" horiz-adv-x="1406" 
d="M-27 264c0 102.667 58.0059 153.999 174.006 153.999c39.333 0 73.666 -11.667 102.999 -35c-28.667 -65.333 -43 -135.666 -43 -210.999v-18c35.333 13.333 69.666 34.5 102.999 63.5s71.833 75 115.5 138s87.5 141 131.5 234s93.333 214 148 363s111 320.167 169 513.5
h-18c-78 -0.666992 -137.833 -21 -179.5 -61s-62.5 -93.333 -62.5 -160c0 -39.333 9.66699 -74.666 29 -105.999c-47.333 -11.333 -87.5 -15 -120.5 -11s-59.667 15.333 -80 34s-35 39.834 -44 63.501s-13.5 49.5 -13.5 77.5c0 55.333 9 102.333 27 141
s43.667 68.167 77 88.5s69.333 34.833 108 43.5s82.667 13 132 13c57.333 0 124 -4 200 -12s138.833 -15.667 188.5 -23s104.167 -11.833 163.5 -13.5s101.333 3.5 126 15.5c19.333 -11.333 29 -29 29 -53c0 -21.333 -6.5 -40 -19.5 -56s-30.5 -24 -52.5 -24l-234 -1093
c-21.333 -101.333 1.33398 -152 68.001 -152c30 0 65.167 11 105.5 33s74.833 45.333 103.5 70c23.333 -10 35 -26.667 35 -50c0 -15.333 -6.33301 -30.333 -19 -45c-69.333 -64.667 -132.333 -114.5 -189 -149.5s-112.334 -52.5 -167.001 -52.5
c-26.667 0 -50.834 2.66699 -72.501 8s-43 14.5 -64 27.5s-36.833 30.667 -47.5 53s-18 50.833 -22 85.5s-0.333008 75.667 11 123l246 1167c-14 1.33301 -36.833 3.66602 -68.5 6.99902s-55.834 5.66602 -72.501 6.99902c-106.667 -369.333 -206.667 -663.333 -300 -882
s-181.333 -372.667 -264 -462s-170.334 -134 -263.001 -134c-52.667 0 -95.334 24.5 -128.001 73.5s-49 117.833 -49 206.5z" />
    <glyph glyph-name="afii10030" unicode="&#x41c;" horiz-adv-x="1937" 
d="M-12 264c0 102.667 58.0029 154.003 174.003 154.003c38.667 0 72.667 -11.667 102 -35c-28.667 -65.333 -43 -135.666 -43 -210.999v-18c35.333 13.333 69.833 34.5 103.5 63.5s72.167 75 115.5 138s87.166 141 131.499 234s93.833 214 148.5 363s111 320.167 169 513.5
h-10c-86 0 -149.833 -19.667 -191.5 -59s-62.5 -86.333 -62.5 -141c0 -47.333 13.667 -87 41 -119c-30.667 -14 -60 -21 -88 -21c-50 0 -90.167 19.167 -120.5 57.5s-45.5 84.166 -45.5 137.499c0 34 6.5 66.667 19.5 98s32.667 60.666 59 87.999s62 49.166 107 65.499
s96.5 24.5 154.5 24.5c36.667 0 79 -4.5 127 -13.5s88 -17.5 120 -25.5s66.833 -13.333 104.5 -16s64.5 2 80.5 14c18.667 -11.333 28 -29 28 -53c0 -21.333 -6.33301 -40 -19 -56s-30 -24 -52 -24h-2l-74 -1089l475 1071c35.333 87.333 94 131 176 131
c47.333 0 85 -9 113 -27l-168 -1179c-7.33301 -57.333 -5.16602 -97 6.50098 -119s32.167 -33 61.5 -33c30 0 65 10.833 105 32.5s74.333 45.167 103 70.5c23.333 -10 35 -26.667 35 -50c0 -16 -6 -31 -18 -45c-130 -134.667 -247.333 -202 -352 -202
c-30.667 0 -58.834 4 -84.501 12s-49.334 20.833 -71.001 38.5s-37 43 -46 76s-10.167 71.833 -3.5 116.5l137 926l-447 -1049c-17.333 -44.667 -40.333 -75.834 -69 -93.501s-63.667 -26.5 -105 -26.5c-38 0 -70.667 8.66699 -98 26l74 908l10 239
c-90.667 -290 -177.334 -522 -260.001 -696s-161.5 -297 -236.5 -369s-154.5 -108 -238.5 -108c-52.667 0 -95.167 24.5 -127.5 73.5s-48.5 117.833 -48.5 206.5z" />
    <glyph glyph-name="afii10031" unicode="&#x41d;" horiz-adv-x="1376" 
d="M66 1321c0 34 6.50098 66.6709 19.501 98.0039s32.667 60.666 59 87.999s62 49.166 107 65.499s96.5 24.5 154.5 24.5c36.667 0 79 -4.5 127 -13.5s88 -17.5 120 -25.5s66.833 -13.333 104.5 -16s64.5 2 80.5 14c18.667 -11.333 28 -29 28 -53
c0 -21.333 -6.33301 -40 -19 -56s-30 -24 -52 -24h-19l-117 -542c90.667 0 194.667 5.33301 312 16l108 508c9.33301 44.667 30.333 77.667 63 99s70.334 32 113.001 32c35.333 0 68.333 -9 99 -27l-254 -1179c-10.667 -56 -9.66699 -95.333 3 -118s34 -34 64 -34
s65.167 11 105.5 33s74.833 45.333 103.5 70c23.333 -10 35 -26.667 35 -50c0 -16 -6 -31 -18 -45c-68.667 -64 -131.667 -113.667 -189 -149s-113.333 -53 -168 -53c-26.667 0 -50.834 2.66699 -72.501 8s-42.834 14.5 -63.501 27.5s-36.334 30.667 -47.001 53
s-18 50.833 -22 85.5s-0.333008 75.667 11 123l108 514c-95.333 -33.333 -201.666 -51.333 -318.999 -54l-133 -626c-9.33301 -44.667 -30.333 -77.667 -63 -99s-70.334 -32 -113.001 -32c-48 0 -84.333 8.66699 -109 26l330 1456h-11c-86 0 -149.667 -19.667 -191 -59
s-62 -86.333 -62 -141c0 -48.667 13.333 -88.334 40 -119.001c-31.333 -14 -60.666 -21 -87.999 -21c-50 0 -90 19.167 -120 57.5s-45 84.166 -45 137.499z" />
    <glyph glyph-name="afii10032" unicode="&#x41e;" horiz-adv-x="1298" 
d="M168 582c0 75.333 6.99805 151.832 20.998 229.499s34.167 153.5 60.5 227.5s59.833 143.5 100.5 208.5s86 122 136 171s107.333 87.667 172 116s132.667 42.5 204 42.5c68.667 0 129.334 -14 182.001 -42s94.834 -66.5 126.501 -115.5s55.5 -104.667 71.5 -167
s24 -130.166 24 -203.499c0 -80.667 -7.16699 -162.834 -21.5 -246.501s-34.833 -165 -61.5 -244s-60.5 -153.333 -101.5 -223s-86.333 -130.5 -136 -182.5s-106.5 -93.167 -170.5 -123.5s-130.667 -45.5 -200 -45.5c-67.333 0 -127.5 15.833 -180.5 47.5
s-95.667 75.334 -128 131.001s-56.833 119 -73.5 190s-25 147.5 -25 229.5zM456.998 626.999c0 -54 4.16211 -103.668 12.4951 -149.001s20.833 -85.666 37.5 -120.999s38.834 -63 66.501 -83s59.834 -30 96.501 -30s73.834 10.333 111.501 31s74.5 53 110.5 97
s68 96.667 96 158s50.5 136.833 67.5 226.5s25.5 186.5 25.5 290.5c0 117.333 -19.5 208.333 -58.5 273s-88.5 97 -148.5 97c-59.333 0 -115.666 -25.167 -168.999 -75.5s-97.666 -114.5 -132.999 -192.5s-63.333 -163 -84 -255s-31 -181 -31 -267z" />
    <glyph glyph-name="afii10033" unicode="&#x41f;" horiz-adv-x="1376" 
d="M61 1182c0 51.333 9.50488 98 28.5049 140s45 76.667 78 104s69.333 51.166 109 71.499s82.5 35.833 128.5 46.5s89.167 18.5 129.5 23.5s79.833 7.5 118.5 7.5c34 0 116.5 -4.16699 247.5 -12.5s215.167 -12.5 252.5 -12.5c106 0 186.667 20 242 60
c24.667 -9.33301 43.667 -24.5 57 -45.5s19.5 -44.167 18.5 -69.5s-6.66699 -50 -17 -74s-27.833 -44.833 -52.5 -62.5s-53.334 -28.167 -86.001 -31.5l-215 -997c-21.333 -101.333 1 -152 67 -152c30 0 65.167 11 105.5 33s74.833 45.333 103.5 70
c23.333 -10 35 -26.667 35 -50c0 -16 -6 -31 -18 -45c-68.667 -64 -131.667 -113.667 -189 -149s-113.333 -53 -168 -53c-26.667 0 -50.834 2.66699 -72.501 8s-42.834 14.5 -63.501 27.5s-36.334 30.667 -47.001 53s-18 50.833 -22 85.5s-0.333008 75.667 11 123l227 1077
c-182 35.333 -280.333 54.333 -295 57l-276 -1300c-9.33301 -44.667 -30.333 -77.667 -63 -99s-70.334 -32 -113.001 -32c-48 0 -84.333 8.66699 -109 26l319 1415c-68 -13.333 -125.167 -46.333 -171.5 -99s-69.5 -120 -69.5 -202c0 -40.667 9.33301 -76 28 -106
c-47.333 -11.333 -87.5 -15 -120.5 -11s-59.667 15.333 -80 34s-35 39.834 -44 63.501s-13.5 49.5 -13.5 77.5z" />
    <glyph glyph-name="afii10034" unicode="&#x420;" horiz-adv-x="1292" 
d="M66 1200c0 78.667 31.9961 146.835 95.9961 204.502s149.333 100.834 256 129.501s227.334 43 362.001 43c87.333 0 163.833 -9.33301 229.5 -28s117.834 -44.667 156.501 -78s67.334 -70.833 86.001 -112.5s28 -87.5 28 -137.5c0 -90 -16.667 -173.333 -50 -250
s-78.333 -140.834 -135 -192.501s-122.834 -92 -198.501 -121s-155.5 -43.5 -239.5 -43.5h-30l-105 -499c-9.33301 -44.667 -30.333 -77.667 -63 -99s-70.334 -32 -113.001 -32c-47.333 0 -83.333 8.66699 -108 26l286 1276c9.33301 43.333 29.833 75.333 61.5 96
s67.834 31 108.501 31c36.667 0 69 -9 97 -27l-144 -675c108.667 5.33301 199.334 53.833 272.001 145.5s109 207.5 109 347.5c0 81.333 -23.667 147.5 -71 198.5s-120 76.5 -218 76.5c-82 0 -154 -10 -216 -30s-110 -46.667 -144 -80s-59.167 -68.833 -75.5 -106.5
s-24.5 -76.834 -24.5 -117.501c0 -48.667 13.333 -88.334 40 -119.001c-29.333 -13.333 -58.666 -20 -87.999 -20c-50 0 -90 19 -120 57s-45 83.667 -45 137z" />
    <glyph glyph-name="afii10035" unicode="&#x421;" 
d="M51 582c0 128.667 18.168 253.834 54.501 375.501s84.833 227.834 145.5 318.501s133.334 163.5 218.001 218.5s172.667 82.5 264 82.5c48 0 90.667 -7.66699 128 -23s67.166 -35.5 89.499 -60.5s39.166 -52.5 50.499 -82.5s17 -61.333 17 -94
c0 -56.667 -15.5 -105.667 -46.5 -147s-70.833 -62 -119.5 -62c-21.333 0 -44.166 7.16699 -68.499 21.5s-41.833 34.5 -52.5 60.5c30 12 53.333 32 70 60s24.667 55.833 24 83.5s-11.334 52 -32.001 73s-50 31.5 -88 31.5c-58.667 0 -116.167 -38.333 -172.5 -115
s-102.5 -179 -138.5 -307s-54 -261.333 -54 -400c0 -62.667 5.5 -120 16.5 -172s27.667 -98.5 50 -139.5s52.5 -73 90.5 -96s82 -34.5 132 -34.5c117.333 0 239.333 35.667 366 107c23.333 -10 35 -26.667 35 -50c0 -18 -6 -33 -18 -45
c-134.667 -134.667 -300.667 -202 -498 -202c-78 0 -147.167 16.167 -207.5 48.5s-108.833 76.666 -145.5 132.999s-64.167 119.666 -82.5 189.999s-27.5 145.833 -27.5 226.5z" />
    <glyph glyph-name="afii10036" unicode="&#x422;" horiz-adv-x="1748" 
d="M-43 1186c0 51.333 9.50195 97.999 28.502 139.999s45 76.667 78 104s69.333 51.166 109 71.499s82.5 35.833 128.5 46.5s89.167 18.5 129.5 23.5s79.833 7.5 118.5 7.5c72.667 0 230.334 -4.16699 473.001 -12.5s401.667 -12.5 477 -12.5c106 0 186.667 20 242 60
c38.667 -14.667 62.834 -42 72.501 -82s3 -79.667 -20 -119s-57.5 -65.333 -103.5 -78l-217 -1005c-21.333 -101.333 1 -152 67 -152c30 0 65.167 11 105.5 33s74.833 45.333 103.5 70c23.333 -10 35 -26.667 35 -50c0 -15.333 -6.33301 -30.333 -19 -45
c-69.333 -64.667 -132.333 -114.5 -189 -149.5s-112.334 -52.5 -167.001 -52.5c-26.667 0 -50.834 2.66699 -72.501 8s-43 14.5 -64 27.5s-36.833 30.667 -47.5 53s-18 50.833 -22 85.5s-0.333008 75.667 11 123l226 1060c-15.333 1.33301 -103.333 12.333 -264 33
l-269 -1259c-9.33301 -44.667 -30.333 -77.667 -63 -99s-70.334 -32 -113.001 -32c-47.333 0 -83.333 8.66699 -108 26l315 1393c-130 14.667 -218.667 23.667 -266 27l-281 -1315c-9.33301 -44.667 -30.333 -77.667 -63 -99s-70.334 -32 -113.001 -32
c-48 0 -84.333 8.66699 -109 26l322 1420c-68 -13.333 -125.333 -46.5 -172 -99.5s-70 -120.5 -70 -202.5c0 -39.333 9.66699 -74.666 29 -105.999c-47.333 -11.333 -87.5 -15 -120.5 -11s-59.667 15.333 -80 34s-35 39.834 -44 63.501s-13.5 49.5 -13.5 77.5z" />
    <glyph glyph-name="afii10037" unicode="&#x423;" horiz-adv-x="1343" 
d="M125 1341c0 34 6.49707 66.8301 19.4971 98.4971s32.667 61 59 88s62 48.833 107 65.5s96.5 25 154.5 25c36.667 0 79 -4.5 127 -13.5s88 -17.5 120 -25.5s66.833 -13.333 104.5 -16s64.5 2 80.5 14c19.333 -11.333 29 -29 29 -53c0 -21.333 -6.5 -40 -19.5 -56
s-30.5 -24 -52.5 -24h-14c28.667 -96 52.834 -205.333 72.501 -328s32.167 -248.167 37.5 -376.5s0 -245.833 -16 -352.5c182.667 198 274 543.333 274 1036c0 55.333 -3.33301 102.666 -10 141.999c35.333 35.333 80.333 53 135 53c30 0 54.5 -7.33301 73.5 -22
s31.167 -30.167 36.5 -46.5s7.66602 -32.5 6.99902 -48.5c-4 -75.333 -14.167 -157.333 -30.5 -246s-40.166 -182.167 -71.499 -280.5s-68 -194.666 -110 -288.999s-92.667 -184.5 -152 -270.5s-123.333 -161.333 -192 -226s-146.834 -116.167 -234.501 -154.5
s-179.167 -57.5 -274.5 -57.5c-65.333 0 -115.833 20 -151.5 60s-53.5 86.333 -53.5 139c0 56 19.333 100.333 58 133c54.667 -68 142.667 -102 264 -102c76.667 0 148.334 11.667 215.001 35c14 201.333 3.66699 410.833 -31 628.5s-86.667 421.834 -156 612.501
c-65.333 -9.33301 -113.666 -32.666 -144.999 -69.999s-47 -79.666 -47 -126.999s13.667 -87 41 -119c-29.333 -13.333 -58.666 -20 -87.999 -20c-50 0 -90.167 19 -120.5 57s-45.5 83.667 -45.5 137z" />
    <glyph glyph-name="afii10038" unicode="&#x424;" horiz-adv-x="1480" 
d="M-33 449c0 62.667 7.83398 126.833 23.501 192.5s37.834 129.667 66.501 192s64.667 121.166 108 176.499s91 103.666 143 144.999s111.167 74.166 177.5 98.499s135.166 36.5 206.499 36.5h19l22 103c-48.667 -10 -88.334 -15 -119.001 -15
c-95.333 0 -165.833 19.333 -211.5 58s-68.5 85.667 -68.5 141c0 49.333 13.833 90 41.5 122s62.834 48 105.501 48c27.333 0 56.666 -7 87.999 -21c-16 -43.333 -24 -78 -24 -104c0 -23.333 5 -42.666 15 -57.999s24.833 -26.666 44.5 -33.999s39.834 -12.5 60.501 -15.5
s46 -4.83301 76 -5.5c34 0 82 7.16699 144 21.5s101.667 21.5 119 21.5c22.667 0 40.167 -6.66699 52.5 -20s18.5 -31 18.5 -53c0 -28.667 -9.33301 -48.667 -28 -60c-17.333 15.333 -35.333 23.666 -54 24.999l-32 -154h22c75.333 0 142.166 -12.167 200.499 -36.5
s105.333 -58 141 -101s62.5 -92.167 80.5 -147.5s27 -115.333 27 -180c0 -62.667 -7.83301 -126.834 -23.5 -192.501s-37.834 -129.667 -66.501 -192s-64.667 -121.166 -108 -176.499s-91 -103.666 -143 -144.999s-111.167 -74.166 -177.5 -98.499
s-135.166 -36.5 -206.499 -36.5h-23l-14 -74c-9.33301 -44.667 -30.333 -77.667 -63 -99s-70.334 -32 -113.001 -32c-38.667 0 -71.667 8.66699 -99 26l37 179h-16c-75.333 0 -142.166 12.167 -200.499 36.5s-105.333 58 -141 101s-62.5 92.167 -80.5 147.5
s-27 115.333 -27 180zM221.001 478.999c0 -73.333 7.99805 -138.668 23.998 -196.001s42.167 -104.166 78.5 -140.499s80.833 -54.5 133.5 -54.5h6l233 1098h-4c-56 0 -109.167 -14.5 -159.5 -43.5s-94.166 -67.5 -131.499 -115.5s-69.666 -102.5 -96.999 -163.5
s-48 -124.667 -62 -191s-21 -130.833 -21 -193.5zM699.999 87.9971l7.00195 0.00195312c56 0 109.167 14.5 159.5 43.5s94.166 67.5 131.499 115.5s69.666 102.5 96.999 163.5s48 124.667 62 191s21 130.833 21 193.5c0 73.333 -8 138.666 -24 195.999
s-42.167 104.166 -78.5 140.499s-80.833 54.5 -133.5 54.5h-10z" />
    <glyph glyph-name="afii10039" unicode="&#x425;" horiz-adv-x="1269" 
d="M-20 264c0 102.667 57.998 154.002 173.998 154.002c38.667 0 72.667 -11.667 102 -35c-28.667 -65.333 -43 -135.666 -43 -210.999v-16c60.667 28 130.667 86.167 210 174.5s161 208.833 245 361.5l-164 772c-73.333 -6.66699 -127.5 -28.834 -162.5 -66.501
s-52.5 -81.5 -52.5 -131.5c0 -47.333 13.667 -87 41 -119c-31.333 -14 -60.666 -21 -87.999 -21c-50 0 -90.167 19.167 -120.5 57.5s-45.5 84.166 -45.5 137.499c0 34 6.5 66.667 19.5 98s32.667 60.666 59 87.999s62 49.166 107 65.499s96.5 24.5 154.5 24.5
c36.667 0 79 -4.5 127 -13.5s88 -17.5 120 -25.5s66.833 -13.333 104.5 -16s64.5 2 80.5 14c19.333 -11.333 29 -29 29 -53c0 -21.333 -6.5 -40 -19.5 -56s-30.5 -24 -52.5 -24h-6l104 -505c67.333 92.667 116.333 195.334 147 308.001s41 225.667 31 339
c48.667 35.333 94 53 136 53c22.667 0 42.334 -4.16699 59.001 -12.5s28.834 -19 36.501 -32s13 -25.5 16 -37.5s4.5 -23.667 4.5 -35c0 -73.333 -10.333 -143.5 -31 -210.5s-51 -129.833 -91 -188.5s-82 -111.5 -126 -158.5s-96.333 -96.5 -157 -148.5l110 -533
c10.667 -56 36.667 -84 78 -84c30 0 65.5 11 106.5 33s75.167 45.333 102.5 70c23.333 -10 35 -26.667 35 -50c0 -15.333 -6.33301 -30.333 -19 -45c-127.333 -134.667 -245.333 -202 -354 -202c-51.333 0 -95.833 15.833 -133.5 47.5s-62.834 78.5 -75.501 140.5l-73 344
c-96.667 -170.667 -192.667 -302 -288 -394s-182.333 -138 -261 -138c-52.667 0 -95.167 24.5 -127.5 73.5s-48.5 117.833 -48.5 206.5z" />
    <glyph glyph-name="afii10040" unicode="&#x426;" horiz-adv-x="1400" 
d="M66 1321c0 34 6.5 66.6748 19.5 98.0078s32.667 60.666 59 87.999s62 49.166 107 65.499s96.5 24.5 154.5 24.5c36.667 0 79 -4.5 127 -13.5s88 -17.5 120 -25.5s66.833 -13.333 104.5 -16s64.5 2 80.5 14c18.667 -11.333 28 -29 28 -53c0 -21.333 -6.33301 -40 -19 -56
s-30 -24 -52 -24h-15l-256 -1202c12.667 -3.33301 33.5 -9.33301 62.5 -18s53 -15.5 72 -20.5s44.333 -10.5 76 -16.5s63.834 -10.667 96.501 -14l273 1259c9.33301 44.667 30.333 77.667 63 99s70.334 32 113.001 32c38 0 70.667 -8.66699 98 -26l-309 -1373
c62.667 1.33301 112 46.666 148 135.999c29.333 4 53.666 -6.33301 72.999 -31c3.33301 -90.667 -5 -174.5 -25 -251.5s-46.833 -140.667 -80.5 -191s-72.334 -93.5 -116.001 -129.5s-87.334 -61.833 -131.001 -77.5s-85.834 -23.834 -126.501 -24.501
c-61.333 0 -104.166 15.833 -128.499 47.5s-30.666 69.667 -18.999 114s36.834 86.833 75.501 127.5c13.333 -18.667 35.333 -31.834 66 -39.501s65.167 -7.83398 103.5 -0.500977s76 20.5 113 39.5s70.833 47.667 101.5 86s51.667 82.833 63 133.5
c-16 -25.333 -37.833 -45.333 -65.5 -60s-55.834 -22 -84.501 -22c-72.667 0 -168.834 4.16699 -288.501 12.5s-217.167 12.5 -292.5 12.5c-106 0 -186.667 -20 -242 -60c-24 8.66699 -42.667 23 -56 43s-20 42.167 -20 66.5s4.66699 48.333 14 72s25 44.667 47 63
s48 30.5 78 36.5l259 1220h-3c-86 0 -149.667 -19.667 -191 -59s-62 -86.333 -62 -141c0 -48.667 13.333 -88.334 40 -119.001c-31.333 -14 -60.666 -21 -87.999 -21c-50 0 -90 19.167 -120 57.5s-45 84.166 -45 137.499z" />
    <glyph glyph-name="afii10041" unicode="&#x427;" horiz-adv-x="1378" 
d="M88 1321c0 34 6.50098 66.6729 19.501 98.0059s32.667 60.666 59 87.999s62 49.166 107 65.499s96.5 24.5 154.5 24.5c36.667 0 79 -4.5 127 -13.5s88 -17.5 120 -25.5s66.833 -13.333 104.5 -16s64.5 2 80.5 14c19.333 -11.333 29 -29 29 -53
c0 -21.333 -6.5 -40 -19.5 -56s-30.5 -24 -52.5 -24h-6l-94 -417c-10.667 -43.333 -16.667 -79.166 -18 -107.499s2 -49.5 10 -63.5s17.833 -23.5 29.5 -28.5s26.834 -7.5 45.501 -7.5c58.667 0 122.334 13.667 191.001 41l141 596c10.667 44 32 76.5 64 97.5
s68 31.5 108 31.5c41.333 0 73.333 -9 96 -27l-282 -1208c-23.333 -101.333 -1 -152 67 -152c30 0 65.167 11 105.5 33s74.833 45.333 103.5 70c23.333 -10 35 -26.667 35 -50c0 -16 -6 -31 -18 -45c-68.667 -64 -131.667 -113.667 -189 -149s-113.333 -53 -168 -53
c-26.667 0 -51 2.66699 -73 8s-43.5 14.666 -64.5 27.999s-36.833 31.166 -47.5 53.499s-17.834 50.666 -21.501 84.999s0.5 75.166 12.5 122.499l104 442c-91.333 -62.667 -176 -94 -254 -94c-116.667 0 -190.834 37.333 -222.501 112s-27.834 184.667 11.499 330l99 393
c-5.33301 1.33301 -14.333 2 -27 2c-86 0 -149.833 -19.667 -191.5 -59s-62.5 -86.333 -62.5 -141c0 -47.333 13.667 -87 41 -119c-30.667 -14 -60 -21 -88 -21c-50 0 -90.167 19.167 -120.5 57.5s-45.5 84.166 -45.5 137.499z" />
    <glyph glyph-name="afii10042" unicode="&#x428;" horiz-adv-x="1734" 
d="M66 1321c0 34 6.49512 66.6709 19.4951 98.0039s32.667 60.666 59 87.999s62 49.166 107 65.499s96.5 24.5 154.5 24.5c36.667 0 79 -4.5 127 -13.5s88 -17.5 120 -25.5s66.833 -13.333 104.5 -16s64.5 2 80.5 14c18.667 -11.333 28 -29 28 -53
c0 -21.333 -6.33301 -40 -19 -56s-30 -24 -52 -24h-15l-254 -1187l262 -33l261 1208c9.33301 44.667 30.333 77.667 63 99s70.334 32 113.001 32c38 0 70.667 -8.66699 98 -26l-303 -1342c140.667 -15.333 231.334 -24.333 272.001 -27l273 1264
c9.33301 44.667 30.333 77.667 63 99s70.334 32 113.001 32c38 0 70.667 -8.66699 98 -26l-342 -1516c-72.667 0 -245.667 4.16699 -519 12.5s-447.666 12.5 -522.999 12.5c-106 0 -186.667 -20 -242 -60c-24 8.66699 -42.667 23 -56 43s-20 42.167 -20 66.5
s4.66699 48.333 14 72s25 44.667 47 63s48 30.5 78 36.5l259 1220h-3c-86 0 -149.667 -19.667 -191 -59s-62 -86.333 -62 -141c0 -48.667 13.333 -88.334 40 -119.001c-31.333 -14 -60.666 -21 -87.999 -21c-50 0 -90 19.167 -120 57.5s-45 84.166 -45 137.499z" />
    <glyph glyph-name="afii10043" unicode="&#x429;" horiz-adv-x="1935" 
d="M66 1321c0 34 6.49609 66.6748 19.4961 98.0078s32.667 60.666 59 87.999s62 49.166 107 65.499s96.5 24.5 154.5 24.5c36.667 0 79 -4.5 127 -13.5s88 -17.5 120 -25.5s66.833 -13.333 104.5 -16s64.5 2 80.5 14c18.667 -11.333 28 -29 28 -53
c0 -21.333 -6.33301 -40 -19 -56s-30 -24 -52 -24h-15l-254 -1187l262 -33l261 1208c9.33301 44.667 30.333 77.667 63 99s70.334 32 113.001 32c38 0 70.667 -8.66699 98 -26l-303 -1342c140.667 -15.333 231.334 -24.333 272.001 -27l273 1264
c9.33301 44.667 30.333 77.667 63 99s70.334 32 113.001 32c38 0 70.667 -8.66699 98 -26l-309 -1373c62 1.33301 111 46.666 147 135.999c30 4 54.667 -6.33301 74 -31c3.33301 -90.667 -5 -174.5 -25 -251.5s-46.833 -140.667 -80.5 -191s-72.334 -93.5 -116.001 -129.5
s-87.334 -61.833 -131.001 -77.5s-85.834 -23.834 -126.501 -24.501c-61.333 0 -104.166 15.833 -128.499 47.5s-30.666 69.667 -18.999 114s36.834 86.833 75.501 127.5c13.333 -18.667 35.333 -31.834 66 -39.501s65.167 -7.83398 103.5 -0.500977s76 20.5 113 39.5
s70.833 47.667 101.5 86s51.667 82.833 63 133.5c-16 -25.333 -37.833 -45.333 -65.5 -60s-55.834 -22 -84.501 -22c-72.667 0 -245.667 4.16699 -519 12.5s-447.666 12.5 -522.999 12.5c-106 0 -186.667 -20 -242 -60c-24 8.66699 -42.667 23 -56 43s-20 42.167 -20 66.5
s4.66699 48.333 14 72s25 44.667 47 63s48 30.5 78 36.5l259 1220h-3c-86 0 -149.667 -19.667 -191 -59s-62 -86.333 -62 -141c0 -48.667 13.333 -88.334 40 -119.001c-31.333 -14 -60.666 -21 -87.999 -21c-50 0 -90 19.167 -120 57.5s-45 84.166 -45 137.499z" />
    <glyph glyph-name="afii10044" unicode="&#x42a;" horiz-adv-x="1271" 
d="M-29 1321c0 34 6.49902 66.668 19.499 98.001s32.667 60.666 59 87.999s62 49.166 107 65.499s96.5 24.5 154.5 24.5c45.333 0 97.833 -4.5 157.5 -13.5s109.167 -17.5 148.5 -25.5s82.333 -13.333 129 -16s80 2 100 14c18.667 -11.333 28 -29 28 -53
c0 -21.333 -6.33301 -40 -19 -56s-30 -24 -52 -24h-2l-121 -559c65.333 22 124 33 176 33c51.333 0 97.166 -6.83301 137.499 -20.5s72.666 -31 96.999 -52s44.333 -45.667 60 -74s26.5 -55.666 32.5 -81.999s9 -53.166 9 -80.499c0 -51.333 -10.333 -105 -31 -161
s-51.167 -110.167 -91.5 -162.5s-87.166 -99.5 -140.499 -141.5s-115.5 -75.667 -186.5 -101s-144.5 -38 -220.5 -38c-115.333 0 -213 14.333 -293 43s-120 66 -120 112c0 24 6.66699 45.667 20 65s33.666 33.333 60.999 42c24.667 -22 56.334 -44 95.001 -66l274 1276
c-43.333 6.66699 -83.666 10 -120.999 10c-86 0 -149.833 -19.667 -191.5 -59s-62.5 -86.333 -62.5 -141c0 -47.333 13.667 -87 41 -119c-31.333 -14 -60.666 -21 -87.999 -21c-50 0 -90.167 19.167 -120.5 57.5s-45.5 84.166 -45.5 137.499zM519.999 115.001h1.99902
c69.333 0 135.833 22.5 199.5 67.5s114.334 103.333 152.001 175s56.5 145.167 56.5 220.5c0 55.333 -15 99.5 -45 132.5s-74.333 49.5 -133 49.5c-32 0 -64.333 -4 -97 -12z" />
    <glyph glyph-name="afii10045" unicode="&#x42b;" horiz-adv-x="1845" 
d="M84 1321c0 34 6.50488 66.6689 19.5049 98.002s32.667 60.666 59 87.999s62 49.166 107 65.499s96.5 24.5 154.5 24.5c36.667 0 79 -4.5 127 -13.5s88 -17.5 120 -25.5s66.833 -13.333 104.5 -16s64.5 2 80.5 14c19.333 -11.333 29 -29 29 -53
c0 -21.333 -6.5 -40 -19.5 -56s-30.5 -24 -52.5 -24h-12l-281 -1308h2c46 0 90.667 9.66699 134 29s81.666 45 114.999 77s62.666 69.667 87.999 113s44.166 88 56.499 134s17.5 93.333 15.5 142s-12 93.667 -30 135c-50.667 -10 -106 -16 -166 -18
c-14.667 16.667 -22 38.667 -22 66c0 32.667 13.5 59.5 40.5 80.5s65.167 31.5 114.5 31.5c52.667 0 99.334 -7.33301 140.001 -22c185.333 136 373.666 336 564.999 600c35.333 48.667 86.333 73 153 73c38.667 0 71.667 -8.66699 99 -26l-256 -1200
c-21.333 -101.333 1 -152 67 -152c30 0 65.167 11 105.5 33s74.833 45.333 103.5 70c23.333 -10 35 -26.667 35 -50c0 -16 -6 -31 -18 -45c-68.667 -64 -131.667 -113.667 -189 -149s-113.333 -53 -168 -53c-26.667 0 -50.834 2.66699 -72.501 8s-42.834 14.5 -63.501 27.5
s-36.334 30.667 -47.001 53s-18 50.833 -22 85.5s-0.333008 75.667 11 123l207 995c-132 -179.333 -270.667 -329.666 -416 -450.999c60 -58 90 -137 90 -237c0 -51.333 -10.333 -105 -31 -161s-51.167 -110.167 -91.5 -162.5s-87.166 -99.5 -140.499 -141.5
s-115.5 -75.667 -186.5 -101s-144.5 -38 -220.5 -38c-115.333 0 -213 14.333 -293 43s-120 66 -120 112c0 24 6.66699 45.667 20 65s33.666 33.333 60.999 42c29.333 -25.333 61 -47.333 95 -66l276 1286h-10c-86 0 -149.833 -19.667 -191.5 -59s-62.5 -86.333 -62.5 -141
c0 -47.333 13.667 -87 41 -119c-31.333 -14 -60.666 -21 -87.999 -21c-50 0 -90.167 19.167 -120.5 57.5s-45.5 84.166 -45.5 137.499z" />
    <glyph glyph-name="afii10046" unicode="&#x42c;" horiz-adv-x="1271" 
d="M86 1321c0 34 6.50098 66.668 19.501 98.001s32.667 60.666 59 87.999s62 49.166 107 65.499s96.5 24.5 154.5 24.5c36.667 0 79 -4.5 127 -13.5s88 -17.5 120 -25.5s66.833 -13.333 104.5 -16s64.5 2 80.5 14c19.333 -11.333 29 -29 29 -53
c0 -21.333 -6.5 -40 -19.5 -56s-30.5 -24 -52.5 -24h-14l-121 -559c65.333 22 124 33 176 33c51.333 0 97.166 -6.83301 137.499 -20.5s72.666 -31 96.999 -52s44.333 -45.667 60 -74s26.5 -55.666 32.5 -81.999s9 -53.166 9 -80.499c0 -136 -54.667 -261 -164 -375
c-87.333 -91.333 -190 -157 -308 -197c-116.667 -39.333 -214 -42 -292 -8c-86.667 37.333 -127.667 114.333 -123 231c0.666992 28.667 4.66699 59.667 12 93l244 1134h-8c-86 0 -149.833 -19.667 -191.5 -59s-62.5 -86.333 -62.5 -141c0 -47.333 13.667 -87 41 -119
c-31.333 -14 -60.666 -21 -87.999 -21c-50 0 -90.167 19.167 -120.5 57.5s-45.5 84.166 -45.5 137.499zM551.001 252.001c-12 -55.333 -0.333984 -93 34.999 -113c34.667 -18.667 77.667 -13.667 129 15c68 38 122 104.333 162 199c28 66 45.667 141 53 225
c5.33301 54 -8.16699 97.833 -40.5 131.5s-78.166 50.5 -137.499 50.5c-32 0 -64.333 -4 -97 -12z" />
    <glyph glyph-name="afii10047" unicode="&#x42d;" horiz-adv-x="1138" 
d="M47 270c0 50 14.1689 92.9971 42.502 128.997s70.833 54 127.5 54c15.333 0 31.666 -4.16699 48.999 -12.5s29.666 -19.166 36.999 -32.499c-18 -28 -27 -61.667 -27 -101c0 -61.333 16.167 -108.333 48.5 -141s72.833 -49 121.5 -49c47.333 0 91.5 16 132.5 48
s76.333 76 106 132s55.167 120 76.5 192s38 150.667 50 236h-14c-28.667 0 -70.167 -7.16699 -124.5 -21.5s-95.5 -21.5 -123.5 -21.5c-25.333 0 -48.333 5.83301 -69 17.5s-35.834 26 -45.501 43s-15.167 35.167 -16.5 54.5s4.66699 37 18 53
c29.333 -14.667 60.5 -22 93.5 -22s72 3.66699 117 11s82.167 11 111.5 11c25.333 0 47 -4 65 -12c7.33301 83.333 11 150 11 200c0 126.667 -17.167 226.334 -51.5 299.001s-86.166 109 -155.499 109c-41.333 0 -77.666 -12.667 -108.999 -38s-47 -57.666 -47 -96.999
c0 -50.667 11 -95 33 -133c-32 -22 -66.333 -33 -103 -33c-36 0 -65.333 14.333 -88 43s-34 62.667 -34 102c0 42.667 8.66699 81 26 115s39.666 61.5 66.999 82.5s59 38.5 95 52.5s71 23.667 105 29s68 8 102 8c146.667 0 255 -47.833 325 -143.5
s105 -228.834 105 -399.501c0 -88.667 -6.83301 -176 -20.5 -262s-33.334 -168 -59.001 -246s-58.167 -150 -97.5 -216s-83.666 -123.167 -132.999 -171.5s-105.833 -86.166 -169.5 -113.499s-131.167 -41 -202.5 -41c-108 0 -197.5 24.5 -268.5 73.5
s-106.5 119.833 -106.5 212.5z" />
    <glyph glyph-name="afii10048" unicode="&#x42e;" horiz-adv-x="1937" 
d="M66 1321c0 34 6.49805 66.6719 19.498 98.0049s32.667 60.666 59 87.999s62 49.166 107 65.499s96.5 24.5 154.5 24.5c36.667 0 79 -4.5 127 -13.5s88 -17.5 120 -25.5s66.833 -13.333 104.5 -16s64.5 2 80.5 14c18.667 -11.333 28 -29 28 -53
c0 -21.333 -6.33301 -40 -19 -56s-30 -24 -52 -24h-19l-114 -542c46.667 0 112 2.66699 196 8c22.667 94 53.834 181.167 93.501 261.5s86.667 151.333 141 213s117.5 110 189.5 145s148.333 52.5 229 52.5c73.333 0 137.333 -15.5 192 -46.5s98.334 -74.667 131.001 -131
s56.167 -122.333 70.5 -198s19.833 -160.167 16.5 -253.5c-3.33301 -96.667 -16 -191.334 -38 -284.001s-53.333 -179.5 -94 -260.5s-88 -152.333 -142 -214s-117 -110.167 -189 -145.5s-148.333 -53 -229 -53c-102 0 -186 27.167 -252 81.5s-111.5 128 -136.5 221
s-31.5 201.833 -19.5 326.5c2 56 7 111.333 15 166c-74.667 -15.333 -143 -25 -205 -29l-133 -626c-9.33301 -44.667 -30.333 -77.667 -63 -99s-70.334 -32 -113.001 -32c-48 0 -84.333 8.66699 -109 26l330 1456h-11c-86 0 -149.667 -19.667 -191 -59s-62 -86.333 -62 -141
c0 -48.667 13.333 -88.334 40 -119.001c-31.333 -14 -60.666 -21 -87.999 -21c-50 0 -90 19.167 -120 57.5s-45 84.166 -45 137.499zM1120 530.005c0 -94 18.9971 -166.502 56.9971 -217.502s86.667 -76.5 146 -76.5c36.667 0 73.834 10 111.501 30s74.5 51.5 110.5 94.5
s68 94.5 96 154.5s50.667 133.5 68 220.5s26 181.167 26 282.5c0 123.333 -20 218 -60 284s-90.333 99 -151 99c-36 0 -72.667 -11.667 -110 -35s-73.666 -59.166 -108.999 -107.499s-66.666 -106.166 -93.999 -173.499s-49.333 -149 -66 -245s-25 -199.333 -25 -310z" />
    <glyph glyph-name="afii10049" unicode="&#x42f;" horiz-adv-x="1239" 
d="M-53 264c0 102.667 58.0029 154.001 174.003 154.001c38.667 0 72.667 -11.667 102 -35c-28.667 -65.333 -43 -135.666 -43 -210.999v-18c30 11.333 59.5 28.5 88.5 51.5s60.5 55.333 94.5 97s70 97.5 108 167.5s77 152.333 117 247
c-87.333 27.333 -152.166 69.333 -194.499 126s-63.5 122.334 -63.5 197.001c0 88 17.667 166.667 53 236s84 125.666 146 168.999s133.167 76.166 213.5 98.499s167.5 33.5 261.5 33.5c32 0 65.5 -1.66699 100.5 -5s74.167 -10.166 117.5 -20.499s81.5 -23.5 114.5 -39.5
s60.833 -38.333 83.5 -67s34 -61.667 34 -99c0 -24 -10 -46.833 -30 -68.5s-45.333 -35.834 -76 -42.501c-34.667 96 -79.334 161 -134.001 195l-235 -1100c-21.333 -101.333 1.33398 -152 68.001 -152c30 0 65 10.833 105 32.5s74.333 45.167 103 70.5
c23.333 -10 35 -26.667 35 -50c0 -16 -6 -31 -18 -45c-68.667 -64 -131.667 -113.667 -189 -149s-113.333 -53 -168 -53c-26.667 0 -50.834 2.66699 -72.501 8s-42.834 14.5 -63.501 27.5s-36.334 30.667 -47.001 53s-18 50.833 -22 85.5s-0.333008 75.667 11 123l84 403
c-27.333 0 -63 2.66699 -107 8c-99.333 -254.667 -194.833 -436.334 -286.5 -545.001s-187.834 -163 -288.501 -163c-52.667 0 -95.167 24.5 -127.5 73.5s-48.5 117.833 -48.5 206.5zM582.003 1057c0 -74.667 20 -136.999 60 -186.999s101.667 -78.667 185 -86l146 693
c-114 -2 -207.667 -39.333 -281 -112s-110 -175.334 -110 -308.001z" />
    <glyph glyph-name="afii10065" unicode="&#x430;" horiz-adv-x="1073" 
d="M-23 328c0 118.667 22.998 232.834 68.998 342.501s109.167 199 189.5 268s166.5 103.5 258.5 103.5c90 0 160.333 -22.333 211 -67c33.333 39.333 79.666 59 138.999 59c36.667 0 68.667 -8.66699 96 -26l-143 -678c-22 -101.333 -1.66699 -152 61 -152
c36 0 73.833 10.167 113.5 30.5s73.5 44.5 101.5 72.5c23.333 -10 35 -26.667 35 -50c0 -16 -6 -31 -18 -45c-50 -56.667 -108.167 -104.5 -174.5 -143.5s-126.5 -58.5 -180.5 -58.5c-55.333 0 -101 15.667 -137 47s-53.667 84.333 -53 159
c-45.333 -63.333 -94.666 -113.5 -147.999 -150.5s-108 -55.5 -164 -55.5c-40.667 0 -76.667 7.83301 -108 23.5s-56.166 35.5 -74.499 59.5s-33.166 52 -44.499 84s-19 62.167 -23 90.5s-6 57.166 -6 86.499zM230.998 342c0 -48.667 10.167 -85.333 30.5 -110
s47.166 -37 80.499 -37s69.333 12 108 36s71.667 55 99 93l115 548c-33.333 11.333 -65.666 17 -96.999 17c-58.667 0 -110.667 -17.667 -156 -53s-80.5 -81.333 -105.5 -138s-43.667 -115.167 -56 -175.5s-18.5 -120.5 -18.5 -180.5z" />
    <glyph glyph-name="afii10066" unicode="&#x431;" horiz-adv-x="802" 
d="M-61 334c0 71.333 12.6699 144.998 38.0029 220.998s59.5 145.667 102.5 209s96.5 115.333 160.5 156s131.333 61 202 61c25.333 0 48 -2 68 -6c-20 24 -44.333 48.167 -73 72.5s-53.834 43.666 -75.501 57.999l-81 52.5l-65.5 42c0 26 0.666992 47.5 2 64.5
s5.66602 37.333 12.999 61s17.5 42.5 30.5 56.5s32.333 26.167 58 36.5s56.834 15.5 93.501 15.5c46 0 106 -2.66699 180 -8s136.833 -8 188.5 -8s96.5 5.33301 134.5 16c16.667 -25.333 21.667 -59 15 -101c-9.33301 -40.667 -28.5 -76 -57.5 -106s-65.833 -45 -110.5 -45
c-49.333 0 -118.333 8.83301 -207 26.5s-154.334 27.834 -197.001 30.501c41.333 -30.667 75 -56.5 101 -77.5s57.5 -50 94.5 -87s66.167 -72.333 87.5 -106s40 -73.667 56 -120s24 -94.166 24 -143.499c0 -60 -6.83301 -122.833 -20.5 -188.5s-34.5 -130 -62.5 -193
s-61 -119.833 -99 -170.5s-83.333 -91.5 -136 -122.5s-108.334 -46.5 -167.001 -46.5c-51.333 0 -96.5 9.33301 -135.5 28s-70 44.334 -93 77.001s-40.167 69.5 -51.5 110.5s-17 85.833 -17 134.5zM201.003 394.998c0 -55.333 10.1699 -100.167 30.5029 -134.5
s50.5 -51.5 90.5 -51.5c42 0 81.167 18.333 117.5 55s65.666 82.667 87.999 138s39.666 113 51.999 173s18.5 116 18.5 168c0 38 -6.66699 76.333 -20 115c-22 5.33301 -52.333 8 -91 8c-42 0 -81.5 -15.167 -118.5 -45.5s-67.333 -69 -91 -116
s-42.334 -97.833 -56.001 -152.5s-20.5 -107 -20.5 -157z" />
    <glyph glyph-name="afii10067" unicode="&#x432;" horiz-adv-x="860" 
d="M0 377c4 90 15.1689 183.166 33.502 279.499s44.666 192.833 78.999 289.5s74.5 183 120.5 259s101.833 137.833 167.5 185.5s135.5 71.5 209.5 71.5c64 0 113.167 -17 147.5 -51s49.5 -83 45.5 -147c-2.66699 -56.667 -28.334 -124.334 -77.001 -203.001
s-124.667 -179.667 -228 -303c42.667 14.667 83.667 22 123 22c56.667 0 102 -19.667 136 -59s48.667 -91.333 44 -156c-8 -100 -41 -195.167 -99 -285.5s-129.5 -162.166 -214.5 -215.499s-169.833 -80 -254.5 -80c-78.667 0 -139 31.333 -181 94
s-59.333 162.334 -52 299.001zM238.002 409.999c-8.66699 -170.667 30.667 -256 118 -256c30 0 57.667 8.33301 83 25s46.5 38.167 63.5 64.5s31.5 56 43.5 89s20.5 66 25.5 99s7 64.333 6 94s-5.16699 54.5 -12.5 74.5c-20 50.667 -64.333 78 -133 82l-190 -221
c-2.66699 -24 -4 -41 -4 -51zM264.003 611.999c132.667 166.667 229.832 300.001 291.499 400.001s94.167 176.333 97.5 229c1.33301 32 -1.5 55.667 -8.5 71s-20.5 23 -40.5 23c-34.667 0 -70 -23 -106 -69s-68.667 -105.5 -98 -178.5s-55.666 -150.333 -78.999 -232
s-42.333 -162.834 -57 -243.501z" />
    <glyph glyph-name="afii10068" unicode="&#x433;" horiz-adv-x="694" 
d="M-109 264c0 46 8.33203 87.8291 24.999 125.496s38.167 68.667 64.5 93s55.5 46.666 87.5 66.999s63.833 38.833 95.5 55.5s60.667 33.667 87 51s47.833 37.5 64.5 60.5s25 48.5 25 76.5c0 36 -10.167 62.667 -30.5 80s-46.5 26 -78.5 26s-66.667 -9 -104 -27
s-68.666 -39 -93.999 -63c-23.333 10 -35 28.333 -35 55c0 18 4.66699 31.667 14 41c55.333 48.667 108.5 84.834 159.5 108.501s105.833 35.5 164.5 35.5c73.333 0 131.5 -22 174.5 -66s64.5 -99.333 64.5 -166c0 -47.333 -8 -90.333 -24 -129s-37 -71 -63 -97
s-54.5 -50 -85.5 -72s-62 -42.167 -93 -60.5s-59.5 -36.666 -85.5 -54.999s-47 -39.5 -63 -63.5s-24 -50 -24 -78c0 -28.667 12.5 -52.167 37.5 -70.5s60.5 -27.5 106.5 -27.5c86.667 0 168.5 23.333 245.5 70s137.833 113.334 182.5 200.001
c22.667 2 38.167 -2.5 46.5 -13.5s7.83301 -26.167 -1.5 -45.5c-35.333 -77.333 -82.833 -146.166 -142.5 -206.499s-122.667 -106.166 -189 -137.499s-130.833 -47 -193.5 -47c-104.667 0 -187.167 27.167 -247.5 81.5s-90.5 120.5 -90.5 198.5z" />
    <glyph glyph-name="afii10069" unicode="&#x434;" horiz-adv-x="1021" 
d="M-109 -537c0 48.667 12 96.834 36 144.501s55.333 91 94 130s84.5 76.167 137.5 111.5s106.5 66.333 160.5 93s110 50.667 168 72c5.33301 20 13.666 49.667 24.999 89s18 63 20 71c-94 -126.667 -193.667 -190 -299 -190c-40.667 0 -76.667 7.83301 -108 23.5
s-56.166 35.5 -74.499 59.5s-33.166 52 -44.499 84s-19 62.167 -23 90.5s-6 57.166 -6 86.499c0 118.667 23 232.834 69 342.501s109.167 199 189.5 268s166.5 103.5 258.5 103.5c88 0 157.333 -22.333 208 -67c33.333 39.333 80.666 59 141.999 59
c36.667 0 68.667 -8.66699 96 -26l-172 -811l-18 -84c128 62.667 225.333 122 292 178c16 -14 24.5 -30.667 25.5 -50s-6.83301 -37 -23.5 -53c-22 -19.333 -64.5 -48.333 -127.5 -87s-127.5 -73.667 -193.5 -105c-14.667 -60 -29 -114.667 -43 -164
s-31.333 -101.833 -52 -157.5s-42.167 -105 -64.5 -148s-48.5 -84.833 -78.5 -125.5s-62 -74.334 -96 -101.001s-72.833 -48 -116.5 -64s-90.167 -24 -139.5 -24c-67.333 0 -124.5 21.667 -171.5 65s-70.5 105.333 -70.5 186zM31 -510c0 -32 9.49902 -56 28.499 -72
s37.5 -24 55.5 -24c68.667 0 127.334 36.333 176.001 109s99.667 195.334 153 368.001c-117.333 -46.667 -215.5 -105.334 -294.5 -176.001s-118.5 -139 -118.5 -205zM230.999 342c0 -48.667 10.167 -85.333 30.5 -110s47.166 -37 80.499 -37s69.333 12 108 36
s71.667 55 99 93l115 548c-33.333 11.333 -65.666 17 -96.999 17c-58.667 0 -110.667 -17.667 -156 -53s-80.5 -81.333 -105.5 -138s-43.667 -115.167 -56 -175.5s-18.5 -120.5 -18.5 -180.5z" />
    <glyph glyph-name="afii10070" unicode="&#x435;" horiz-adv-x="849" 
d="M-23 350c0 45.333 4.99805 93.3291 14.998 143.996s24.333 101.834 43 153.501s43 101.167 73 148.5s63.333 89.333 100 126s79.667 65.834 129 87.501s101 32.5 155 32.5c44.667 0 82.834 -5.66699 114.501 -17s55.667 -27 72 -47s28.166 -40.667 35.499 -62
s11 -44.666 11 -69.999c0 -46 -7 -88.167 -21 -126.5s-38.667 -79 -74 -122s-85.166 -87.667 -149.499 -134s-145.166 -96.5 -242.499 -150.5c18 -100.667 81.333 -151 190 -151c72 0 149.5 22 232.5 66s146.833 95.667 191.5 155
c25.333 4.66699 43.333 -1.16602 54 -17.499s9.66699 -33.833 -3 -52.5c-68.667 -101.333 -156.5 -181.5 -263.5 -240.5s-211.5 -88.5 -313.5 -88.5c-102.667 0 -186.5 31 -251.5 93s-97.5 153 -97.5 273zM230.998 400.996c103.333 65.333 184.833 132.665 244.5 201.998
s89.5 136 89.5 200c0 23.333 -5.5 42.5 -16.5 57.5s-25.167 22.5 -42.5 22.5c-38.667 0 -74 -12.333 -106 -37s-57.833 -55.167 -77.5 -91.5s-36.5 -77.166 -50.5 -122.499s-24 -87.166 -30 -125.499s-9.66699 -73.5 -11 -105.5z" />
    <glyph glyph-name="afii10072" unicode="&#x436;" horiz-adv-x="1642" 
d="M-100 213c0 46 13.3359 79.3379 40.0029 100.005s61 31 103 31c30.667 0 58.667 -11 84 -33c-23.333 -24.667 -35 -55.334 -35 -92.001c0 -34.667 7.33301 -62.167 22 -82.5s33.334 -30.5 56.001 -30.5c20 0 40.833 6.5 62.5 19.5s43.5 34.5 65.5 64.5
s41.667 66.667 59 110s31.5 98.666 42.5 165.999s16.5 141.333 16.5 222c0 67.333 -11 119 -33 155s-49.333 54 -82 54c-62 0 -113.333 -36.333 -154 -109c-18 -4 -32.667 3.5 -44 22.5s-14.333 35.5 -9 49.5c14 34 31.667 62.833 53 86.5s45 41.667 71 54s52.5 21 79.5 26
s56.833 7.5 89.5 7.5c69.333 0 125.666 -28.333 168.999 -85s65 -127.334 65 -212.001c0 -52.667 -3 -101.667 -9 -147l164 334c21.333 42.667 42 71.667 62 87s46.667 23 80 23c30.667 0 55.667 -8.66699 75 -26l-147 -676l168 342c26 67.333 56.5 127.166 91.5 179.499
s77.167 95.5 126.5 129.5s100.666 51 153.999 51c73.333 0 128 -15.167 164 -45.5s54 -78.5 54 -144.5c0 -54.667 -14 -96.834 -42 -126.501s-62 -43.5 -102 -41.5c-28.667 2 -56 11.667 -82 29c22 46.667 33 91 33 133c0 47.333 -11.667 71 -35 71
c-60 0 -109.5 -49.5 -148.5 -148.5s-58.5 -224.833 -58.5 -377.5c0 -86 11.167 -150.167 33.5 -192.5s52.166 -63.5 89.499 -63.5c64 0 129.667 26.5 197 79.5s118.333 111.833 153 176.5c26.667 4.66699 45.334 -1.16602 56.001 -17.499s9.33398 -33.833 -3.99902 -52.5
c-52.667 -108.667 -119.834 -190.667 -201.501 -246s-164.834 -83 -249.501 -83c-39.333 0 -75.833 6.83301 -109.5 20.5s-64.334 34.5 -92.001 62.5s-49.5 66.167 -65.5 114.5s-24 104.5 -24 168.5c0 13.333 1.33301 36.666 4 69.999l-159 -326
c-21.333 -42.667 -42 -71.667 -62 -87s-46.667 -23 -80 -23c-30.667 0 -55.667 8.66699 -75 26l145 674l-170 -344c-45.333 -119.333 -109.5 -208.5 -192.5 -267.5s-169.833 -88.5 -260.5 -88.5c-56 0 -103.667 19.667 -143 59s-59 96 -59 170z" />
    <glyph glyph-name="afii10073" unicode="&#x437;" horiz-adv-x="737" 
d="M-326 -537c0 50 11.6709 99.333 35.0039 148s54 92.834 92 132.501s83 78 135 115s104.5 69.167 157.5 96.5s108.5 52.666 166.5 75.999c8 57.333 12 94.666 12 111.999c0 57.333 -16.667 103.833 -50 139.5s-79.333 53.5 -138 53.5c-5.33301 32.667 0 60.667 16 84
s39.333 35 70 35c63.333 0 119.833 32.333 169.5 97s74.5 130.667 74.5 198c0 47.333 -12.5 83.333 -37.5 108s-57.5 37 -97.5 37c-26 0 -53.333 -5.33301 -82 -16c-2.66699 -8 -4 -21.667 -4 -41c0 -43.333 10.667 -87.666 32 -132.999c-22 -19.333 -49.333 -29 -82 -29
c-36 0 -65.5 13.667 -88.5 41s-34.5 60.666 -34.5 99.999c0 28 6.66699 55.167 20 81.5s33.333 51 60 74s63.5 41.5 110.5 55.5s101.167 21 162.5 21c85.333 0 153.666 -24.167 204.999 -72.5s77 -107.5 77 -177.5c0 -100 -30.333 -186.167 -91 -258.5
s-143 -122.833 -247 -151.5c60.667 -19.333 107.667 -51.666 141 -96.999s50 -98.333 50 -159v-2c86 44.667 166 98 240 160c16 -14 24.5 -30.667 25.5 -50s-6.83301 -37 -23.5 -53c-19.333 -16.667 -53.333 -41.667 -102 -75s-99.334 -65 -152.001 -95
c-14.667 -89.333 -40.834 -188.5 -78.501 -297.5s-75.834 -196.167 -114.501 -261.5c-99.333 -164.667 -228.333 -247 -387 -247c-67.333 0 -124.5 21.667 -171.5 65s-70.5 105.333 -70.5 186zM-185.996 -510c0 -32 9.5 -56 28.5 -72s37.5 -24 55.5 -24
c76 0 142.667 49 200 147c44 78 87.667 194.667 131 350c-116.667 -46 -215 -106.667 -295 -182s-120 -148.333 -120 -219z" />
    <glyph glyph-name="afii10074" unicode="&#x438;" horiz-adv-x="1013" 
d="M-22 276.5c2.66699 33 8.00195 66.498 16.002 100.498l96 420c4 16 4 28.5 0 37.5s-10.667 13.5 -20 13.5c-8.66699 0 -22.334 -8.33301 -41.001 -25c-15.333 8.66699 -23.833 25.334 -25.5 50.001s6.83301 45.667 25.5 63c83.333 65.333 159.666 98 228.999 98
c38.667 0 66.834 -9.16699 84.501 -27.5s22.167 -46.5 13.5 -84.5l-125 -582c-17.333 -80.667 6 -121 70 -121c66 0 128.667 35.667 188 107l123 579c9.33301 44 30 76.5 62 97.5s68.667 31.5 110 31.5c37.333 0 69.666 -8.66699 96.999 -26l-144 -678
c-22 -101.333 -1.33301 -152 62 -152c36 0 73.833 10.167 113.5 30.5s73.5 44.5 101.5 72.5c23.333 -10 35 -26.667 35 -50c0 -15.333 -6.33301 -30.333 -19 -45c-50 -56.667 -108 -104.5 -174 -143.5s-126 -58.5 -180 -58.5c-26.667 0 -51.167 3.83301 -73.5 11.5
s-43.166 19.834 -62.499 36.501s-34 40.5 -44 71.5s-13.667 68.167 -11 111.5c-94.667 -154 -194.334 -231 -299.001 -231c-43.333 0 -80 8.83301 -110 26.5s-52 40 -66 67s-23.5 58.667 -28.5 95s-6.16699 71 -3.5 104z" />
    <glyph glyph-name="afii10075" unicode="&#x439;" horiz-adv-x="1013" 
d="M-22 276.5c2.66699 33 8.00195 66.498 16.002 100.498l96 420c4 16 4 28.5 0 37.5s-10.667 13.5 -20 13.5c-8.66699 0 -22.334 -8.33301 -41.001 -25c-15.333 8.66699 -23.833 25.334 -25.5 50.001s6.83301 45.667 25.5 63c83.333 65.333 159.666 98 228.999 98
c38.667 0 66.834 -9.16699 84.501 -27.5s22.167 -46.5 13.5 -84.5l-125 -582c-17.333 -80.667 6 -121 70 -121c66 0 128.667 35.667 188 107l123 579c9.33301 44 30 76.5 62 97.5s68.667 31.5 110 31.5c37.333 0 69.666 -8.66699 96.999 -26l-144 -678
c-22 -101.333 -1.33301 -152 62 -152c36 0 73.833 10.167 113.5 30.5s73.5 44.5 101.5 72.5c23.333 -10 35 -26.667 35 -50c0 -15.333 -6.33301 -30.333 -19 -45c-50 -56.667 -108 -104.5 -174 -143.5s-126 -58.5 -180 -58.5c-26.667 0 -51.167 3.83301 -73.5 11.5
s-43.166 19.834 -62.499 36.501s-34 40.5 -44 71.5s-13.667 68.167 -11 111.5c-94.667 -154 -194.334 -231 -299.001 -231c-43.333 0 -80 8.83301 -110 26.5s-52 40 -66 67s-23.5 58.667 -28.5 95s-6.16699 71 -3.5 104zM276.002 1305c0 48 15.332 89.001 45.999 123.001
s73 51 127 51c28.667 0 55.667 -7 81 -21c-9.33301 -16.667 -14 -37 -14 -61c0 -29.333 8.83301 -52 26.5 -68s40.167 -24 67.5 -24c36.667 0 73.167 14.167 109.5 42.5s64.166 69.166 83.499 122.499c21.333 3.33301 40 -1 56 -13s22 -30.667 18 -56
c-7.33301 -76.667 -48.166 -145 -122.499 -205s-164.166 -90 -269.499 -90c-67.333 0 -119 19.667 -155 59s-54 86 -54 140z" />
    <glyph glyph-name="afii10076" unicode="&#x43a;" horiz-adv-x="872" 
d="M-78 10l168.003 786.996c8 34 1.33301 51 -20 51c-8.66699 0 -22.334 -8.33301 -41.001 -25c-15.333 8.66699 -23.833 25.334 -25.5 50.001s6.83301 45.667 25.5 63c83.333 65.333 159.666 98 228.999 98c80 0 112.667 -37.333 98 -112l-71 -351l12 4
c51.333 16 105.833 66.5 163.5 151.5s98.167 180.167 121.5 285.5c30 14.667 62.667 22 98 22c33.333 0 59.333 -9.16699 78 -27.5s28 -41.166 28 -68.499c0 -57.333 -30.167 -124.666 -90.5 -201.999s-125.5 -139.666 -195.5 -186.999l12.5 -49
c2.33301 -9.33301 7.33301 -27.333 15 -54s14.5 -47 20.5 -61l24 -55.5c10 -23 20.167 -41 30.5 -54s22.166 -26.5 35.499 -40.5s28 -24.167 44 -30.5s33 -9.5 51 -9.5c18.667 0 38.667 7.16699 60 21.5s47.666 35.833 78.999 64.5c23.333 -10 35 -26.667 35 -50
c0 -16 -6 -31 -18 -45c-40.667 -50 -91 -96.167 -151 -138.5s-110 -63.5 -150 -63.5c-31.333 0 -60.166 7.33301 -86.499 22s-48.833 35.5 -67.5 62.5s-35.167 55.167 -49.5 84.5s-26.833 63.5 -37.5 102.5s-19 72.5 -25 100.5l-19 93c-2 10 -3.33301 17.333 -4 22l-37 -10
l-72 -348c-9.33301 -44 -30 -76.5 -62 -97.5s-68.667 -31.5 -110 -31.5c-36.667 0 -68.667 8.66699 -96 26z" />
    <glyph glyph-name="afii10077" unicode="&#x43b;" horiz-adv-x="1081" 
d="M-102 213c0 84.667 47.6719 127.002 143.005 127.002c27.333 0 55.333 -9.66699 84 -29c-23.333 -49.333 -35 -102.333 -35 -159c24.667 15.333 46 31.166 64 47.499s39.167 41.5 63.5 75.5s47.333 74.833 69 122.5s46 110.667 73 189s54.5 169.5 82.5 273.5
c-125.333 -18 -206.333 -48 -243 -90c-28.667 32.667 -43 67.334 -43 104.001c0 59.333 21.667 103.666 65 132.999s97.333 44 162 44c24.667 0 53.667 -0.5 87 -1.5s72.166 -2.83301 116.499 -5.5s87 -6.5 128 -11.5s78.833 -11 113.5 -18s62 -15.833 82 -26.5
s28.667 -22.667 26 -36l-131 -622c-22 -101.333 -1.66699 -152 61 -152c36 0 73.833 10.167 113.5 30.5s73.5 44.5 101.5 72.5c23.333 -10 35 -26.667 35 -50c0 -16 -6 -31 -18 -45c-50 -56.667 -108.167 -104.5 -174.5 -143.5s-126.5 -58.5 -180.5 -58.5
c-25.333 0 -48 1.83301 -68 5.5s-39.167 10 -57.5 19s-33.333 21.667 -45 38s-20.834 36.333 -27.501 60s-9.33398 53 -8.00098 88s6.66602 74.5 15.999 118.5l121 568c-42.667 -2 -85 -5 -127 -9c-71.333 -288 -149.333 -505 -234 -651
c-44 -76.667 -89.833 -135 -137.5 -175s-91.834 -60.667 -132.501 -62c-43.333 -1.33301 -78.333 18.167 -105 58.5s-40 97.166 -40 170.499z" />
    <glyph glyph-name="afii10078" unicode="&#x43c;" horiz-adv-x="1497" 
d="M-102 213c0 84.667 47.6709 127.001 143.004 127.001c27.333 0 55.333 -9.66699 84 -29c-23.333 -49.333 -35 -102.333 -35 -159c31.333 19.333 58.5 41 81.5 65s49.5 61.167 79.5 111.5s61.167 120.5 93.5 210.5s66.166 201 101.499 333
c-106.667 -12 -185 -46 -235 -102c-28.667 32.667 -43 67.334 -43 104.001c0 59.333 21.667 103.666 65 132.999s97.333 44 162 44c147.333 0 248.333 -11 303 -33l27 -696l317 577c27.333 50 54 85 80 105s57.667 30 95 30c36 0 68.667 -8.66699 98 -26l-94 -678
c-8 -55.333 -6.83301 -94.5 3.5 -117.5s29.5 -34.5 57.5 -34.5c36 0 73.833 10.167 113.5 30.5s73.5 44.5 101.5 72.5c23.333 -10 35 -26.667 35 -50c0 -15.333 -6.33301 -30.333 -19 -45c-50 -56.667 -108 -104.5 -174 -143.5s-126 -58.5 -180 -58.5
c-18.667 0 -36.167 1.66699 -52.5 5s-33.333 9.5 -51 18.5s-32.667 21.167 -45 36.5s-23.333 34.833 -33 58.5s-14.834 52.167 -15.501 85.5s1.66602 72.333 6.99902 117l53 350l-346 -663c-50 -13.333 -90.667 -11.833 -122 4.5s-48 47.5 -50 93.5l-15 569
c-55.333 -187.333 -114 -333.333 -176 -438c-44 -76.667 -89.833 -135 -137.5 -175s-91.834 -60.667 -132.501 -62c-43.333 -1.33301 -78.333 18.167 -105 58.5s-40 97.166 -40 170.499z" />
    <glyph glyph-name="afii10079" unicode="&#x43d;" 
d="M-80 10l169.999 786.998c4 16 4 28.5 0 37.5s-10.667 13.5 -20 13.5c-8.66699 0 -22.334 -8.33301 -41.001 -25c-15.333 8.66699 -23.833 25.334 -25.5 50.001s6.83301 45.667 25.5 63c83.333 65.333 159.666 98 228.999 98c38.667 0 66.834 -9.16699 84.501 -27.5
s22.167 -46.5 13.5 -84.5l-71 -328c82.667 2 167.334 7.33301 254.001 16l63 295c9.33301 44 28.833 76.5 58.5 97.5s64.834 31.5 105.501 31.5c36.667 0 68.667 -8.66699 96 -26l-143 -678c-22 -101.333 -1.66699 -152 61 -152c36 0 73.833 10.167 113.5 30.5
s73.5 44.5 101.5 72.5c23.333 -10 35 -26.667 35 -50c0 -16 -6 -31 -18 -45c-118.667 -134.667 -234.667 -202 -348 -202c-18.667 0 -36.5 1.83301 -53.5 5.5s-34.667 10 -53 19s-33.833 21.333 -46.5 37s-24 35.334 -34 59.001s-14.833 52 -14.5 85s4.5 71.5 12.5 115.5
l41 199c-90.667 -28.667 -177.334 -45 -260.001 -49l-74 -342c-9.33301 -44 -29.166 -76.5 -59.499 -97.5s-65.833 -31.5 -106.5 -31.5c-36.667 0 -68.667 8.66699 -96 26z" />
    <glyph glyph-name="afii10080" unicode="&#x43e;" horiz-adv-x="882" 
d="M-25 346c0 62 8.16504 125.665 24.498 190.998s40.333 127.833 72 187.5s68.334 113.334 110.001 161.001s90.167 85.667 145.5 114s113 42.5 173 42.5c54 0 101.667 -9.5 143 -28.5s74.5 -45.5 99.5 -79.5s43.667 -72.667 56 -116s18.5 -90.666 18.5 -141.999
c0 -61.333 -8.33301 -124.333 -25 -189s-41.167 -126.834 -73.5 -186.501s-69.833 -113.167 -112.5 -160.5s-92.834 -85.166 -150.501 -113.499s-117.5 -42.5 -179.5 -42.5c-51.333 0 -96.666 9.66699 -135.999 29s-70.666 46 -93.999 80s-41 72.333 -53 115
s-18 88.667 -18 138zM237.998 411.998c0 -84.667 12.334 -147.503 37.001 -188.503s56.667 -61.5 96 -61.5c51.333 0 100.166 29.333 146.499 88s82.333 128.834 108 210.501s38.5 158.834 38.5 231.501c0 58.667 -9.83301 105.834 -29.5 141.501s-49.5 53.5 -89.5 53.5
c-44.667 0 -86.667 -15.333 -126 -46s-71.833 -69.5 -97.5 -116.5s-46 -98.167 -61 -153.5s-22.5 -108.333 -22.5 -159z" />
    <glyph glyph-name="afii10081" unicode="&#x43f;" horiz-adv-x="980" 
d="M-78 10l168.001 786.997c4 16 4 28.5 0 37.5s-10.667 13.5 -20 13.5c-8.66699 0 -22.334 -8.33301 -41.001 -25c-15.333 8.66699 -23.833 25.334 -25.5 50.001s6.83301 45.667 25.5 63c83.333 65.333 159.666 98 228.999 98c38.667 0 66.834 -9.16699 84.501 -27.5
s22.167 -46.5 13.5 -84.5l-20 -93c43.333 62 95.333 111.667 156 149s120.667 56 180 56s102.833 -24.833 130.5 -74.5s30.5 -125.167 8.5 -226.5l-100 -471c-6 -28 -3.83301 -49 6.5 -63s26.5 -21 48.5 -21c36 0 73.833 10.167 113.5 30.5s73.5 44.5 101.5 72.5
c23.333 -10 35 -26.667 35 -50c0 -15.333 -6.33301 -30.333 -19 -45c-52 -59.333 -110.5 -107.833 -175.5 -145.5s-129.833 -56.5 -194.5 -56.5c-22 0 -42.167 2.33301 -60.5 7s-36.5 13.334 -54.5 26.001s-31.333 29.834 -40 51.501s-14.5 49.5 -17.5 83.5
s1.16699 74.667 12.5 122l86 408c8.66699 40.667 7.66699 71 -3 91s-28 30 -52 30c-26.667 0 -58 -10.833 -94 -32.5s-65.667 -46.5 -89 -74.5l-125 -583c-9.33301 -44 -30 -76.5 -62 -97.5s-68.667 -31.5 -110 -31.5c-36.667 0 -68.667 8.66699 -96 26z" />
    <glyph glyph-name="afii10082" unicode="&#x440;" horiz-adv-x="974" 
d="M-233 -745l323 1542c4 16 4 28.5 0 37.5s-10.667 13.5 -20 13.5c-8.66699 0 -22.334 -8.33301 -41.001 -25c-15.333 8.66699 -23.833 25.334 -25.5 50.001s6.83301 45.667 25.5 63c83.333 65.333 159.666 98 228.999 98c38.667 0 66.834 -9.16699 84.501 -27.5
s22.167 -46.5 13.5 -84.5l-10 -50c88 108 181 162 279 162c58 0 107 -15.5 147 -46.5s68.833 -71.333 86.5 -121s26.5 -106.5 26.5 -170.5c0 -78 -13.833 -158.333 -41.5 -241s-65.5 -159.167 -113.5 -229.5s-108.833 -128.166 -182.5 -173.499s-152.5 -68 -236.5 -68
c-52.667 0 -99.667 17.667 -141 53l-141 -680c-9.33301 -44 -29.166 -76.5 -59.499 -97.5s-65.833 -31.5 -106.5 -31.5c-36 0 -68 9 -96 27zM197 163.998c28.667 -15.333 62.6689 -23 102.002 -23c50 0 96.667 15.5 140 46.5s78.666 70.5 105.999 118.5
s48.833 99.833 64.5 155.5s23.5 109.5 23.5 161.5c0 68.667 -11 120.167 -33 154.5s-51.333 51.5 -88 51.5c-64.667 0 -132.334 -43.667 -203.001 -131z" />
    <glyph glyph-name="afii10083" unicode="&#x441;" horiz-adv-x="849" 
d="M-23 350c0 78.667 13.168 158.998 39.501 240.998s61.833 156.333 106.5 223s100.167 121.334 166.5 164.001s136.5 64 210.5 64c165.333 0 248 -66 248 -198c0 -54.667 -13.833 -96.334 -41.5 -125.001s-61.834 -43 -102.501 -43c-32.667 0 -60 9.66699 -82 29
c22 46.667 33 91 33 133c0 39.333 -25.333 59 -76 59c-28.667 0 -57.667 -13.167 -87 -39.5s-56 -61.666 -80 -105.999s-43.5 -99 -58.5 -164s-22.5 -133.167 -22.5 -204.5c0 -76.667 17.833 -132.667 53.5 -168s83.5 -53 143.5 -53c72 0 149.5 22 232.5 66
s146.833 95.667 191.5 155c25.333 4.66699 43.333 -1.16602 54 -17.499s9.66699 -33.833 -3 -52.5c-68.667 -101.333 -156.5 -181.5 -263.5 -240.5s-211.5 -88.5 -313.5 -88.5c-102.667 0 -186.5 31 -251.5 93s-97.5 153 -97.5 273z" />
    <glyph glyph-name="afii10084" unicode="&#x442;" horiz-adv-x="1460" 
d="M-78 10l167.999 786.997c4 16 4 28.5 0 37.5s-10.667 13.5 -20 13.5c-8.66699 0 -22.334 -8.33301 -41.001 -25c-15.333 8.66699 -23.833 25.334 -25.5 50.001s6.83301 45.667 25.5 63c83.333 65.333 159.666 98 228.999 98c38.667 0 66.834 -9.16699 84.501 -27.5
s22.167 -46.5 13.5 -84.5l-20 -93c94.667 136.667 195.667 205 303 205c47.333 0 88.5 -18.333 123.5 -55s51.167 -88.667 48.5 -156c98.667 140.667 201 211 307 211c20 0 39.333 -2.83301 58 -8.5s37.834 -15.167 57.501 -28.5s34.834 -31.5 45.501 -54.5
s18.167 -51.667 22.5 -86s0.5 -75.5 -11.5 -123.5l-100 -471c-6 -28 -3.83301 -49 6.5 -63s26.5 -21 48.5 -21c36 0 73.833 10.167 113.5 30.5s73.5 44.5 101.5 72.5c23.333 -10 35 -26.667 35 -50c0 -16 -6 -31 -18 -45c-52 -58.667 -110.667 -107 -176 -145
s-130.333 -57 -195 -57c-22 0 -42.167 2.33301 -60.5 7s-36.5 13.334 -54.5 26.001s-31.333 29.834 -40 51.501s-14.5 49.5 -17.5 83.5s1.16699 74.667 12.5 122l86 408c10.667 33.333 13 61.833 7 85.5s-24.667 35.5 -56 35.5c-60.667 0 -120 -31.333 -178 -94l-127 -596
c-9.33301 -44 -30 -76.5 -62 -97.5s-68.667 -31.5 -110 -31.5c-36.667 0 -68.667 8.66699 -96 26l143 672c10 33.333 12 61.833 6 85.5s-24.333 35.5 -55 35.5c-66.667 0 -129.667 -35.667 -189 -107l-125 -583c-9.33301 -44 -30 -76.5 -62 -97.5s-68.667 -31.5 -110 -31.5
c-36.667 0 -68.667 8.66699 -96 26z" />
    <glyph glyph-name="afii10085" unicode="&#x443;" horiz-adv-x="940" 
d="M-219 -537c0 36 5.66309 70.3291 16.9961 102.996s26.333 62.334 45 89.001s43.334 53 74.001 79s61.834 49.333 93.501 70s70 42.5 115 65.5l127.5 62.5l141 64c2 0.666992 3.66699 1.33398 5 2.00098l20 74c9.33301 34.667 17 62 23 82
c-89.333 -112 -180.666 -168 -273.999 -168c-39.333 0 -72.666 7.66699 -99.999 23s-47.666 35.333 -60.999 60s-22.5 54.334 -27.5 89.001s-6 69.667 -3 105s8.83301 73.333 17.5 114l96 420c4 16 4 28.5 0 37.5s-10.667 13.5 -20 13.5
c-8.66699 0 -22.334 -8.33301 -41.001 -25c-15.333 8.66699 -23.833 25.334 -25.5 50.001s6.83301 45.667 25.5 63c83.333 65.333 159.666 98 228.999 98c38.667 0 66.834 -9.16699 84.501 -27.5s22.167 -46.5 13.5 -84.5l-127 -590c-7.33301 -34 -5.5 -61.333 5.5 -82
s32.5 -31 64.5 -31c54 0 106.667 24.667 158 74l133 612c9.33301 44 30 76.5 62 97.5s68.667 31.5 110 31.5c36.667 0 68.667 -8.66699 96 -26l-174 -811l-18 -84c128 62.667 225.333 122 292 178c16 -14 24.667 -30.667 26 -50s-6.33398 -37 -23.001 -53
c-21.333 -19.333 -63.666 -48.333 -126.999 -87s-128.333 -73.667 -195 -105c-14.667 -59.333 -29.334 -114 -44.001 -164s-32.667 -102.5 -54 -157.5s-43.5 -104.167 -66.5 -147.5s-50.167 -85.333 -81.5 -126s-64.666 -74.334 -99.999 -101.001s-75.5 -48 -120.5 -64
s-92.833 -24 -143.5 -24c-29.333 0 -58.5 5.33301 -87.5 16s-55.5 25.834 -79.5 45.501s-43.5 46 -58.5 79s-22.5 69.833 -22.5 110.5zM-53.0039 -510.004c0 -32 9.49707 -56 28.4971 -72s37.5 -24 55.5 -24c68.667 0 126.834 35.5 174.501 106.5s98.5 191.833 152.5 362.5
c-69.333 -34 -125.666 -63.333 -168.999 -88s-85.166 -52.5 -125.499 -83.5s-69.833 -62.833 -88.5 -95.5s-28 -68 -28 -106z" />
    <glyph glyph-name="afii10086" unicode="&#x444;" horiz-adv-x="1425" 
d="M-111 -514c0 84.667 47.999 127.004 143.999 127.004c27.333 0 55.333 -9.66699 84 -29c-23.333 -26.667 -35 -57.334 -35 -92.001c0 -64 19 -96 57 -96c20.667 0 40.5 5.5 59.5 16.5s36.833 28.167 53.5 51.5s31.834 47.166 45.501 71.499s27.167 55.833 40.5 94.5
l34.5 102c9.66699 29.333 20 66.666 31 111.999s19.333 81.166 25 107.499l22.5 103.5l8 45c-71.333 -77.333 -150.666 -116 -237.999 -116c-37.333 0 -70.5 7.83301 -99.5 23.5s-51.833 35.334 -68.5 59.001s-30.167 51.667 -40.5 84s-17.333 62.666 -21 90.999
s-5.5 57.166 -5.5 86.499c0 110.667 19.5 219.667 58.5 327s94.5 195 166.5 263c81.333 77.333 168.666 116 261.999 116c70.667 0 124 -33.333 160 -100l35 164c28 132 81.667 235.667 161 311s169 113 269 113c52 0 90.833 -12.667 116.5 -38s38.5 -54.333 38.5 -87
c0 -25.333 -8.83301 -46.166 -26.5 -62.499s-38.834 -22.166 -63.501 -17.499c0 39.333 -25.333 59 -76 59c-43.333 0 -78 -24.5 -104 -73.5s-49.333 -121.5 -70 -217.5l-34 -167c71.333 77.333 151 116 239 116c37.333 0 70.5 -7.66699 99.5 -23s51.833 -34.833 68.5 -58.5
s30.334 -51.334 41.001 -83.001s17.834 -61.5 21.501 -89.5s5.5 -56.667 5.5 -86c0 -110.667 -19.667 -219.667 -59 -327s-95 -195 -167 -263c-84 -80 -171.333 -120 -262 -120c-73.333 0 -128 35.333 -164 106l-12 -65c-29.333 -140.667 -63.333 -261 -102 -361
s-81.834 -179.5 -129.501 -238.5s-98 -101.833 -151 -128.5s-111.167 -40 -174.5 -40c-68 0 -125.667 19.833 -173 59.5s-71 96.167 -71 169.5zM239.999 342.004c0 -109.333 38.6631 -163.999 115.996 -163.999c22.667 0 43.334 5 62.001 15s43.334 29.667 74.001 59
l112 545c-7.33301 25.333 -16.666 43.5 -27.999 54.5s-28.666 16.5 -51.999 16.5c-44 0 -83.333 -13.167 -118 -39.5s-62 -59.166 -82 -98.499s-36.667 -83.833 -50 -133.5s-22.333 -95.334 -27 -137.001s-7 -80.834 -7 -117.501zM732.995 229.005
c7.33301 -26.667 16.834 -45.834 28.501 -57.501s29.5 -17.5 53.5 -17.5c44 0 83.333 13.167 118 39.5s62.167 59.166 82.5 98.499s37.166 83.833 50.499 133.5s22.333 95.334 27 137.001s7 80.834 7 117.501c0 109.333 -39 164 -117 164
c-22.667 0 -43.667 -5.16699 -63 -15.5s-44 -30.5 -74 -60.5z" />
    <glyph glyph-name="afii10087" unicode="&#x445;" horiz-adv-x="983" 
d="M-102 213c0 84.667 47.665 127.005 142.998 127.005c27.333 0 55.333 -9.66699 84 -29c-23.333 -50.667 -35 -104.334 -35 -161.001c49.333 28 96.333 64 141 108s96 113 154 207l-43 346c-2 18.667 -8.5 34.167 -19.5 46.5s-25.167 20.166 -42.5 23.499
s-38.333 0.166016 -63 -9.50098s-50 -25.834 -76 -48.501c-16 14.667 -24.5 32.334 -25.5 53.001s7.5 40.667 25.5 60c81.333 70.667 154.333 106 219 106c69.333 0 120.666 -20.333 153.999 -61s56 -107 68 -199l18 -145c105.333 122 158 219 158 291
c0 26 -9.16699 48.667 -27.5 68s-46.166 28.666 -83.499 27.999c2 50 16.167 88.833 42.5 116.5s57.833 41.5 94.5 41.5c24.667 0 47.334 -3.5 68.001 -10.5s40.334 -18.333 59.001 -34s31.667 -39.334 39 -71.001s7.33301 -69.167 0 -112.5
c-12 -67.333 -44.167 -133.833 -96.5 -199.5s-132.166 -144.5 -239.499 -236.5l19 -145c16 -130 61 -195 135 -195c36 0 73.833 10.167 113.5 30.5s73.5 44.5 101.5 72.5c23.333 -10 35 -26.667 35 -50c0 -15.333 -6.33301 -30.333 -19 -45
c-50 -56.667 -108 -104.5 -174 -143.5s-126 -58.5 -180 -58.5c-65.333 0 -117.333 23 -156 69s-67.334 129.333 -86.001 250c-146.667 -212.667 -266.667 -319 -360 -319c-43.333 0 -78.333 20 -105 60s-40 96.333 -40 169z" />
    <glyph glyph-name="afii10088" unicode="&#x446;" horiz-adv-x="1026" 
d="M-22 276.5c2.66699 33 7.99902 66.4971 15.999 100.497l96 420c4 16 4 28.5 0 37.5s-10.667 13.5 -20 13.5c-8.66699 0 -22.334 -8.33301 -41.001 -25c-15.333 8.66699 -23.833 25.334 -25.5 50.001s6.83301 45.667 25.5 63c83.333 65.333 159.666 98 228.999 98
c38.667 0 66.834 -9.16699 84.501 -27.5s22.167 -46.5 13.5 -84.5l-125 -582c-17.333 -80.667 6 -121 70 -121c66 0 128.667 35.667 188 107l123 579c9.33301 44 30 76.5 62 97.5s68.667 31.5 110 31.5c37.333 0 69.666 -8.66699 96.999 -26l-144 -678
c-9.33301 -50.667 -10.333 -87.5 -3 -110.5s18.5 -35.667 33.5 -38s32 5.5 51 23.5s35.5 42.667 49.5 74c28 4 52.667 -6.33301 74 -31c3.33301 -90.667 -4.66699 -174.5 -24 -251.5s-45.5 -140.667 -78.5 -191s-71 -93.5 -114 -129.5s-86 -61.833 -129 -77.5
s-84.833 -23.834 -125.5 -24.501c-61.333 0 -104.166 15.833 -128.499 47.5s-30.666 69.667 -18.999 114s36.834 86.833 75.501 127.5c17.333 -23.333 47 -37.166 89 -41.499s86.167 0.333984 132.5 14.001s90.333 41.167 132 82.5s69.5 92 83.5 152
c-18 -25.333 -41.5 -46 -70.5 -62s-58.833 -24 -89.5 -24c-26.667 0 -51.167 3.83301 -73.5 11.5s-43.166 19.834 -62.499 36.501s-34 40.5 -44 71.5s-13.667 68.167 -11 111.5c-94.667 -154 -194.334 -231 -299.001 -231c-43.333 0 -80 8.83301 -110 26.5s-52 40 -66 67
s-23.5 58.667 -28.5 95s-6.16699 71 -3.5 104z" />
    <glyph glyph-name="afii10089" unicode="&#x447;" horiz-adv-x="976" 
d="M3.5 873c-1.66699 24.667 6.83496 45.665 25.502 62.998c83.333 65.333 159.666 98 228.999 98c38.667 0 66.834 -9.16699 84.501 -27.5s22.167 -46.5 13.5 -84.5l-57 -265c-17.333 -80 6 -120 70 -120c52 0 103.667 30 155 90l60 278c9.33301 44 28.833 76.5 58.5 97.5
s64.834 31.5 105.501 31.5c36.667 0 68.667 -8.66699 96 -26l-144 -678c-22 -101.333 -1.33301 -152 62 -152c36 0 73.833 10.167 113.5 30.5s73.5 44.5 101.5 72.5c23.333 -10 35 -26.667 35 -50c0 -15.333 -6.33301 -30.333 -19 -45
c-118.667 -134.667 -234.667 -202 -348 -202c-18.667 0 -36.5 1.83301 -53.5 5.5s-34.667 10 -53 19s-33.833 21.333 -46.5 37s-23.834 35.334 -33.501 59.001s-14.334 52 -14.001 85s4.5 71.5 12.5 115.5l35 166c-70.667 -86 -150 -129 -238 -129
c-177.333 0 -239.333 117.333 -186 352l22 103c4 16 4 28.5 0 37.5s-10.667 13.5 -20 13.5c-8.66699 0 -22.334 -8.33301 -41.001 -25c-15.333 8.66699 -23.833 25.334 -25.5 50.001z" />
    <glyph glyph-name="afii10090" unicode="&#x448;" horiz-adv-x="1521" 
d="M-22 276.5c2.66699 33 8.00293 66.498 16.0029 100.498l96 420c4 16 4 28.5 0 37.5s-10.667 13.5 -20 13.5c-8.66699 0 -22.334 -8.33301 -41.001 -25c-15.333 8.66699 -23.833 25.334 -25.5 50.001s6.83301 45.667 25.5 63c83.333 65.333 159.666 98 228.999 98
c80.667 0 113.334 -37.333 98.001 -112l-125 -582c-17.333 -80.667 6 -121 70 -121c66 0 128.667 35.667 188 107l123 579c9.33301 44 30 76.5 62 97.5s68.667 31.5 110 31.5c37.333 0 69.666 -8.66699 96.999 -26l-142 -668c-17.333 -80.667 6 -121 70 -121
c66 0 128.667 35.667 188 107l123 579c9.33301 44 30 76.5 62 97.5s68.667 31.5 110 31.5c37.333 0 69.666 -8.66699 96.999 -26l-144 -678c-22 -101.333 -1.33301 -152 62 -152c36 0 73.833 10.167 113.5 30.5s73.5 44.5 101.5 72.5c22.667 -10 34 -26.667 34 -50
c0 -16 -6 -31 -18 -45c-48.667 -59.333 -104 -107.833 -166 -145.5s-124.667 -56.5 -188 -56.5c-26.667 0 -51.167 3.83301 -73.5 11.5s-43.166 19.834 -62.499 36.501s-34 40.5 -44 71.5s-13.667 68.167 -11 111.5c-94.667 -154 -194.334 -231 -299.001 -231
c-72 0 -124.333 21.333 -157 64s-50 97.667 -52 165c-95.333 -152.667 -195 -229 -299 -229c-43.333 0 -80 8.83301 -110 26.5s-52 40 -66 67s-23.5 58.667 -28.5 95s-6.16699 71 -3.5 104z" />
    <glyph glyph-name="afii10091" unicode="&#x449;" horiz-adv-x="1533" 
d="M-22 276.5c2.66699 33 8.00098 66.4971 16.001 100.497l96 420c4 16 4 28.5 0 37.5s-10.667 13.5 -20 13.5c-8.66699 0 -22.334 -8.33301 -41.001 -25c-15.333 8.66699 -23.833 25.334 -25.5 50.001s6.83301 45.667 25.5 63c83.333 65.333 159.666 98 228.999 98
c38.667 0 66.834 -9.16699 84.501 -27.5s22.167 -46.5 13.5 -84.5l-125 -582c-17.333 -80.667 6 -121 70 -121c66 0 128.667 35.667 188 107l123 579c9.33301 44 30 76.5 62 97.5s68.667 31.5 110 31.5c37.333 0 69.666 -8.66699 96.999 -26l-142 -668
c-17.333 -80.667 6 -121 70 -121c66 0 128.667 35.667 188 107l123 579c9.33301 44 30 76.5 62 97.5s68.667 31.5 110 31.5c37.333 0 69.666 -8.66699 96.999 -26l-144 -678c-9.33301 -50.667 -10.333 -87.5 -3 -110.5s18.5 -35.667 33.5 -38s32 5.5 51 23.5
s35.5 42.667 49.5 74c28 4 52.667 -6.33301 74 -31c3.33301 -90.667 -4.66699 -174.5 -24 -251.5s-45.5 -140.667 -78.5 -191s-71 -93.5 -114 -129.5s-86 -61.833 -129 -77.5s-84.833 -23.834 -125.5 -24.501c-61.333 0 -104.166 15.833 -128.499 47.5
s-30.666 69.667 -18.999 114s36.834 86.833 75.501 127.5c17.333 -23.333 47 -37.166 89 -41.499s86 0.333984 132 14.001s89.833 41.167 131.5 82.5s69.5 92 83.5 152c-18 -25.333 -41.333 -46 -70 -62s-58.334 -24 -89.001 -24c-26.667 0 -51.167 3.83301 -73.5 11.5
s-43.166 19.834 -62.499 36.501s-34 40.5 -44 71.5s-13.667 68.167 -11 111.5c-94.667 -154 -194.334 -231 -299.001 -231c-72 0 -124.333 21.333 -157 64s-50 97.667 -52 165c-95.333 -152.667 -195 -229 -299 -229c-43.333 0 -80 8.83301 -110 26.5s-52 40 -66 67
s-23.5 58.667 -28.5 95s-6.16699 71 -3.5 104z" />
    <glyph glyph-name="afii10092" unicode="&#x44a;" horiz-adv-x="782" 
d="M-16 227c0 94 33.8311 197.328 101.498 309.995s151.167 220.334 250.5 323.001c-23.333 -3.33301 -57.833 -5.66602 -103.5 -6.99902s-84.167 -5.16602 -115.5 -11.499s-60 -18.5 -86 -36.5c-18 28.667 -27 58.667 -27 90c0 44 14.5 81.667 43.5 113s67.167 47 114.5 47
c20.667 0 44.834 -4 72.501 -12s52.334 -15.667 74.001 -23s50.667 -12.166 87 -14.499s73.166 2.5 110.499 14.5c18 -6.66699 31.667 -20 41 -40s14 -43 14 -69c0 -25.333 -8.66699 -45.666 -26 -60.999c-102.667 -90 -178.667 -171.333 -228 -244
c70.667 45.333 137.667 68 201 68c52 0 93.667 -17.167 125 -51.5s47 -88.833 47 -163.5c0 -56.667 -9.33301 -110.5 -28 -161.5s-43.5 -95.167 -74.5 -132.5s-66.167 -69.833 -105.5 -97.5s-80.166 -48.5 -122.499 -62.5s-83.833 -21 -124.5 -21
c-70.667 0 -128.5 20.5 -173.5 61.5s-67.5 101.5 -67.5 181.5zM208.998 323.995c0 -59.333 9.16602 -103.999 27.499 -133.999s41.166 -45 68.499 -45c38.667 0 75.334 24.5 110.001 73.5s52 109.167 52 180.5c0 36.667 -9.16699 66 -27.5 88s-46.833 33 -85.5 33
c-41.333 0 -80.666 -15.667 -117.999 -47c-18 -48.667 -27 -98.334 -27 -149.001z" />
    <glyph glyph-name="afii10093" unicode="&#x44b;" horiz-adv-x="1284" 
d="M-22 276.5c2.66699 33 8.00586 66.4961 16.0059 100.496l96 420c4 16 4 28.5 0 37.5s-10.667 13.5 -20 13.5c-8.66699 0 -22.334 -8.33301 -41.001 -25c-15.333 8.66699 -23.833 25.334 -25.5 50.001s6.83301 45.667 25.5 63c83.333 65.333 159.666 98 228.999 98
c38.667 0 66.834 -9.16699 84.501 -27.5s22.167 -46.5 13.5 -84.5l-125 -582c-12.667 -60 -11.667 -106 3 -138s37 -48 67 -48c17.333 0 35.666 5.83301 54.999 17.5s39 31.334 59 59.001s33.167 64.667 39.5 111s5.16602 104.5 -3.50098 174.5
c-33.333 -2 -69.666 -0.666992 -108.999 4c-22.667 50.667 -22.834 95.834 -0.500977 135.501s62.166 59.5 119.499 59.5c38 0 74.667 -11.667 110 -35c120 64 237.667 165 353 303c9.33301 12 25.666 23.5 48.999 34.5s50.666 16.5 81.999 16.5
c36.667 0 68.667 -8.66699 96 -26l-143 -678c-22 -101.333 -1.66699 -152 61 -152c36 0 73.833 10.167 113.5 30.5s73.5 44.5 101.5 72.5c23.333 -10 35 -26.667 35 -50c0 -15.333 -6.33301 -30.333 -19 -45c-52 -59.333 -110.5 -107.833 -175.5 -145.5
s-129.833 -56.5 -194.5 -56.5c-22 0 -43 2.5 -63 7.5s-39.667 13.167 -59 24.5s-34.833 26.333 -46.5 45s-20.167 41.667 -25.5 69s-3.66602 59.666 5.00098 96.999l119 566c-71.333 -77.333 -144.333 -139.666 -219 -186.999c22 -38.667 33 -81 33 -127
c0 -46.667 -5.83301 -92.667 -17.5 -138s-30.334 -89.666 -56.001 -132.999s-57.167 -81.5 -94.5 -114.5s-83.5 -59.5 -138.5 -79.5s-115.5 -30 -181.5 -30c-43.333 0 -80 8.83301 -110 26.5s-52 40 -66 67s-23.5 58.667 -28.5 95s-6.16699 71 -3.5 104z" />
    <glyph glyph-name="afii10094" unicode="&#x44c;" horiz-adv-x="776" 
d="M-22 276.5c2.66699 33 7.99902 66.5 15.999 100.5l96 420c4 16 4 28.5 0 37.5s-10.667 13.5 -20 13.5c-8.66699 0 -22.334 -8.33301 -41.001 -25c-15.333 8.66699 -23.833 25.334 -25.5 50.001s6.83301 45.667 25.5 63c83.333 65.333 159.666 98 228.999 98
c80.667 0 113.334 -37.333 98.001 -112l-59 -277c70.667 32.667 139 49 205 49c58.667 0 105.334 -17.167 140.001 -51.5s52 -88.833 52 -163.5c0 -36.667 -7.66699 -76.834 -23 -120.501s-38.166 -87.5 -68.499 -131.5s-65.5 -84.167 -105.5 -120.5
s-87.167 -65.833 -141.5 -88.5s-110.833 -34 -169.5 -34c-43.333 0 -80 8.83301 -110 26.5s-52 40 -66 67s-23.5 58.667 -28.5 95s-6.16699 71 -3.5 104zM230.999 340c-12.667 -60 -11.499 -107.833 3.50098 -143.5s37.167 -53.5 66.5 -53.5
c43.333 0 84.166 25.333 122.499 76s57.5 117.667 57.5 201c0 36.667 -9 66 -27 88s-46.333 33 -85 33c-34 0 -67.667 -7.66699 -101 -23z" />
    <glyph glyph-name="afii10095" unicode="&#x44d;" horiz-adv-x="784" 
d="M-106 213c0 84.667 47.665 127.003 142.998 127.003c26.667 0 54.667 -9.66699 84 -29c-23.333 -26.667 -35 -57.334 -35 -92.001c0 -30 10.667 -55.833 32 -77.5s46.333 -32.5 75 -32.5c62.667 0 118 30.5 166 91.5s80.667 153.167 98 276.5h-326
c-5.33301 32.667 0 60.667 16 84s39.333 35 70 35h252c1.33301 19.333 2 50 2 92c0 67.333 -12.5 118.666 -37.5 153.999s-57.5 53 -97.5 53c-30.667 0 -63 -7.5 -97 -22.5s-64.667 -36.167 -92 -63.5c-21.333 0 -34.166 11.5 -38.499 34.5s-1.5 39.5 8.5 49.5
c48.667 58 99.5 98.5 152.5 121.5s113.5 34.5 181.5 34.5c79.333 0 142.833 -30.333 190.5 -91s71.5 -134.334 71.5 -221.001c0 -88 -8.83301 -169.833 -26.5 -245.5s-41.5 -140.334 -71.5 -194.001s-64.167 -101.167 -102.5 -142.5s-79.333 -74.166 -123 -98.499
s-86.667 -42.5 -129 -54.5s-83.5 -18 -123.5 -18c-67.333 0 -124.666 19.667 -171.999 59s-71 96 -71 170z" />
    <glyph glyph-name="afii10096" unicode="&#x44e;" horiz-adv-x="1368" 
d="M-80 10l169.999 786.998c6 34 -0.666992 51 -20 51c-8.66699 0 -22.334 -8.33301 -41.001 -25c-15.333 8.66699 -23.833 25.334 -25.5 50.001s6.83301 45.667 25.5 63c83.333 65.333 159.666 98 228.999 98c38.667 0 66.834 -9.16699 84.501 -27.5
s22.167 -46.5 13.5 -84.5l-71 -332c90.667 0 167 13 229 39c44 118.667 107.5 217.167 190.5 295.5s176.5 117.5 280.5 117.5c106 0 185.5 -34.167 238.5 -102.5s79.5 -156.166 79.5 -263.499c0 -61.333 -8.33301 -124.333 -25 -189s-41.167 -126.834 -73.5 -186.501
s-69.833 -113.167 -112.5 -160.5s-92.834 -85.166 -150.501 -113.499s-117.5 -42.5 -179.5 -42.5c-51.333 0 -96.666 9.66699 -135.999 29s-70.666 46 -93.999 80s-41 72.333 -53 115s-18 88.667 -18 138c0 60.667 6.66699 118 20 172c-64 -38 -139 -59 -225 -63l-74 -342
c-9.33301 -44 -29.166 -76.5 -59.499 -97.5s-65.833 -31.5 -106.5 -31.5c-36.667 0 -68.667 8.66699 -96 26zM722.999 411.998c0 -84.667 12.334 -147.503 37.001 -188.503s56.667 -61.5 96 -61.5c51.333 0 100.166 29.333 146.499 88s82.333 128.834 108 210.501
s38.5 158.834 38.5 231.501c0 58.667 -9.83301 105.834 -29.5 141.501s-49.5 53.5 -89.5 53.5c-44.667 0 -86.667 -15.333 -126 -46s-71.833 -69.5 -97.5 -116.5s-46 -98.167 -61 -153.5s-22.5 -108.333 -22.5 -159z" />
    <glyph glyph-name="afii10097" unicode="&#x44f;" horiz-adv-x="1030" 
d="M-100 213c0 84.667 47.666 127.001 142.999 127.001c26.667 0 54.667 -9.66699 84 -29c-23.333 -50.667 -35 -104.334 -35 -161.001c28.667 16.667 53.667 34 75 52s45.833 46.5 73.5 85.5s54.834 87.167 81.501 144.5c-63.333 16.667 -111.666 48.167 -144.999 94.5
s-50 100.166 -50 161.499c0 60 13 113.5 39 160.5s60.167 84.333 102.5 112s87.666 48.5 135.999 62.5s97.833 21 148.5 21c48 0 91 -6.5 129 -19.5s71 -33.333 99 -61s46.167 -63.167 54.5 -106.5s6.83301 -95.666 -4.5 -156.999l-77 -370
c-22 -101.333 -1.66699 -152 61 -152c36 0 73.833 10.167 113.5 30.5s73.5 44.5 101.5 72.5c23.333 -10 35 -26.667 35 -50c0 -16 -6 -31 -18 -45c-50.667 -57.333 -108.5 -105.333 -173.5 -144s-125.5 -58 -181.5 -58c-18.667 0 -36.5 1.83301 -53.5 5.5
s-34.833 10 -53.5 19s-34.334 21.333 -47.001 37s-24 35.334 -34 59.001s-14.833 52 -14.5 85s4.5 71.5 12.5 115.5l24 115h-96c-22.667 -48.667 -46.334 -94.667 -71.001 -138s-54.167 -89 -88.5 -137s-71.166 -86.667 -110.499 -116s-77.666 -44.333 -114.999 -45
c-43.333 -1.33301 -78.333 18.167 -105 58.5s-40 97.166 -40 170.499zM361.999 688.001c-1.33301 -44 6.83398 -81.001 24.501 -111.001s43.167 -45 76.5 -45h86l51 236c11.333 52.667 10 91.834 -4 117.501s-35.333 38.5 -64 38.5c-50.667 0 -91.334 -24.333 -122.001 -73
s-46.667 -103 -48 -163z" />
    <glyph glyph-name="afii10071" unicode="&#x451;" horiz-adv-x="849" 
d="M-23 350c0 45.333 4.99805 93.3291 14.998 143.996s24.333 101.834 43 153.501s43 101.167 73 148.5s63.333 89.333 100 126s79.667 65.834 129 87.501s101 32.5 155 32.5c44.667 0 82.834 -5.66699 114.501 -17s55.667 -27 72 -47s28.166 -40.667 35.499 -62
s11 -44.666 11 -69.999c0 -46 -7 -88.167 -21 -126.5s-38.667 -79 -74 -122s-85.166 -87.667 -149.499 -134s-145.166 -96.5 -242.499 -150.5c18 -100.667 81.333 -151 190 -151c72 0 149.5 22 232.5 66s146.833 95.667 191.5 155
c25.333 4.66699 43.333 -1.16602 54 -17.499s9.66699 -33.833 -3 -52.5c-68.667 -101.333 -156.5 -181.5 -263.5 -240.5s-211.5 -88.5 -313.5 -88.5c-102.667 0 -186.5 31 -251.5 93s-97.5 153 -97.5 273zM230.998 400.996c103.333 65.333 184.833 132.665 244.5 201.998
s89.5 136 89.5 200c0 23.333 -5.5 42.5 -16.5 57.5s-25.167 22.5 -42.5 22.5c-38.667 0 -74 -12.333 -106 -37s-57.833 -55.167 -77.5 -91.5s-36.5 -77.166 -50.5 -122.499s-24 -87.166 -30 -125.499s-9.66699 -73.5 -11 -105.5zM237.998 1315c0 36 12.167 66.167 36.5 90.5
s54.5 36.5 90.5 36.5s66.167 -12.167 90.5 -36.5s36.5 -54.5 36.5 -90.5s-12.167 -66.167 -36.5 -90.5s-54.5 -36.5 -90.5 -36.5s-66.167 12.167 -90.5 36.5s-36.5 54.5 -36.5 90.5zM640.998 1315c0 36 12.333 66.167 37 90.5s54.667 36.5 90 36.5
c36 0 66.167 -12.167 90.5 -36.5s36.5 -54.5 36.5 -90.5s-12.167 -66.167 -36.5 -90.5s-54.5 -36.5 -90.5 -36.5c-35.333 0 -65.333 12.167 -90 36.5s-37 54.5 -37 90.5z" />
    <glyph glyph-name="uni2000" unicode="&#x2000;" horiz-adv-x="975" 
 />
    <glyph glyph-name="uni2001" unicode="&#x2001;" horiz-adv-x="1950" 
 />
    <glyph glyph-name="uni2002" unicode="&#x2002;" horiz-adv-x="975" 
 />
    <glyph glyph-name="uni2003" unicode="&#x2003;" horiz-adv-x="1950" 
 />
    <glyph glyph-name="uni2004" unicode="&#x2004;" horiz-adv-x="650" 
 />
    <glyph glyph-name="uni2005" unicode="&#x2005;" horiz-adv-x="487" 
 />
    <glyph glyph-name="uni2006" unicode="&#x2006;" horiz-adv-x="325" 
 />
    <glyph glyph-name="uni2007" unicode="&#x2007;" horiz-adv-x="325" 
 />
    <glyph glyph-name="uni2008" unicode="&#x2008;" horiz-adv-x="243" 
 />
    <glyph glyph-name="uni2009" unicode="&#x2009;" horiz-adv-x="390" 
 />
    <glyph glyph-name="uni200A" unicode="&#x200a;" horiz-adv-x="108" 
 />
    <glyph glyph-name="uni2010" unicode="&#x2010;" horiz-adv-x="686" 
d="M16 535c0 36.667 16.667 67.667 50 93s77.666 38 132.999 38c30 0 70.333 -3.16699 121 -9.5s87.334 -9.5 110.001 -9.5c42 0 79.667 10.333 113 31c16 -26 24 -50.667 24 -74c0 -39.333 -16.667 -74 -50 -104s-76 -45 -128 -45c-28 0 -67.833 7.83301 -119.5 23.5
s-93.167 23.5 -124.5 23.5c-46 0 -80 -13.667 -102 -41c-18 25.333 -27 50 -27 74z" />
    <glyph glyph-name="uni2011" unicode="&#x2011;" horiz-adv-x="686" 
d="M16 535c0 36.667 16.667 67.667 50 93s77.666 38 132.999 38c30 0 70.333 -3.16699 121 -9.5s87.334 -9.5 110.001 -9.5c42 0 79.667 10.333 113 31c16 -26 24 -50.667 24 -74c0 -39.333 -16.667 -74 -50 -104s-76 -45 -128 -45c-28 0 -67.833 7.83301 -119.5 23.5
s-93.167 23.5 -124.5 23.5c-46 0 -80 -13.667 -102 -41c-18 25.333 -27 50 -27 74z" />
    <glyph glyph-name="figuredash" unicode="&#x2012;" horiz-adv-x="686" 
d="M16 535c0 36.667 16.667 67.667 50 93s77.666 38 132.999 38c30 0 70.333 -3.16699 121 -9.5s87.334 -9.5 110.001 -9.5c42 0 79.667 10.333 113 31c16 -26 24 -50.667 24 -74c0 -39.333 -16.667 -74 -50 -104s-76 -45 -128 -45c-28 0 -67.833 7.83301 -119.5 23.5
s-93.167 23.5 -124.5 23.5c-46 0 -80 -13.667 -102 -41c-18 25.333 -27 50 -27 74z" />
    <glyph glyph-name="endash" unicode="&#x2013;" horiz-adv-x="808" 
d="M16 555c0 38.667 16.668 71.498 50.001 98.498s77.666 40.5 132.999 40.5c40 0 91 -5 153 -15s115.667 -15 161 -15s88 10 128 30c13.333 -17.333 21.333 -36.666 24 -57.999s0 -41.833 -8 -61.5s-19.5 -38 -34.5 -55s-34.5 -30.667 -58.5 -41s-49.667 -15.5 -77 -15.5
c-39.333 0 -96.333 9.83301 -171 29.5s-131.667 29.5 -171 29.5c-46 0 -80 -13.667 -102 -41c-18 24.667 -27 49.334 -27 74.001z" />
    <glyph glyph-name="emdash" unicode="&#x2014;" horiz-adv-x="1234" 
d="M16 548c0 25.333 7.66699 48.334 23 69.001s38.833 37.667 70.5 51s68.167 20 109.5 20c78.667 0 177.667 -5 297 -15s222.5 -15 309.5 -15s168.833 10 245.5 30c16.667 -25.333 24.834 -54 24.501 -86s-7.5 -61.667 -21.5 -89s-34.833 -50.333 -62.5 -69
s-58.834 -28 -93.501 -28c-70 0 -149.5 8.33301 -238.5 25l-273.5 50c-93.333 16.667 -180.333 25 -261 25c-46 0 -80 -13.667 -102 -41c-18 23.333 -27 47.666 -27 72.999z" />
    <glyph glyph-name="quoteleft" unicode="&#x2018;" horiz-adv-x="442" 
d="M57 1169c0 72 29.832 147.667 89.499 227s121.5 132.666 185.5 159.999c12 0 22.167 -4.83301 30.5 -14.5s12.5 -22.5 12.5 -38.5c-52 -59.333 -78 -116 -78 -170c0 -21.333 7.83301 -49.166 23.5 -83.499s23.5 -63.833 23.5 -88.5c0 -37.333 -13.667 -69.5 -41 -96.5
s-60.666 -40.5 -99.999 -40.5c-41.333 0 -76 14.333 -104 43s-42 62.667 -42 102z" />
    <glyph glyph-name="quoteright" unicode="&#x2019;" horiz-adv-x="442" 
d="M57 1077c52 59.333 78.001 116 78.001 170c0 21.333 -7.83301 49.166 -23.5 83.499s-23.5 63.833 -23.5 88.5c0 37.333 13.667 69.5 41 96.5s60.666 40.5 99.999 40.5c41.333 0 76 -14.333 104 -43s42 -62.667 42 -102c0 -72 -29.833 -147.667 -89.5 -227
s-121.5 -132.666 -185.5 -159.999c-12 0 -22.167 4.83301 -30.5 14.5s-12.5 22.5 -12.5 38.5z" />
    <glyph glyph-name="quotesinglbase" unicode="&#x201a;" horiz-adv-x="442" 
d="M4 -242c36 30.667 63.6689 64 83.002 100s30 69.5 32 100.5s0 59 -6 84s-15 45.5 -27 61.5c5.33301 38 21.833 70.167 49.5 96.5s61.167 39.5 100.5 39.5c40.667 0 73 -13 97 -39s36 -59 36 -99c0 -76 -31.333 -152.833 -94 -230.5s-141.334 -133.167 -236.001 -166.5
c-12.667 -4 -23.334 -0.5 -32.001 10.5s-9.66699 25.167 -3 42.5z" />
    <glyph glyph-name="quotedblleft" unicode="&#x201c;" horiz-adv-x="792" 
d="M57 1169c0 72 29.832 147.667 89.499 227s121.5 132.666 185.5 159.999c12 0 22.167 -4.83301 30.5 -14.5s12.5 -22.5 12.5 -38.5c-52 -59.333 -78 -116 -78 -170c0 -21.333 7.83301 -49.166 23.5 -83.499s23.5 -63.833 23.5 -88.5c0 -37.333 -13.667 -69.5 -41 -96.5
s-60.666 -40.5 -99.999 -40.5c-41.333 0 -76 14.333 -104 43s-42 62.667 -42 102zM421.999 1169c0 72 29.833 147.668 89.5 227.001s121.167 132.666 184.5 159.999c12 0 22.167 -4.83301 30.5 -14.5s12.5 -22.5 12.5 -38.5c-51.333 -58.667 -77 -115.334 -77 -170.001
c0 -21.333 7.83301 -49.166 23.5 -83.499s23.5 -63.833 23.5 -88.5c0 -37.333 -13.833 -69.5 -41.5 -96.5s-61.167 -40.5 -100.5 -40.5c-41.333 0 -75.833 14.167 -103.5 42.5s-41.5 62.5 -41.5 102.5z" />
    <glyph glyph-name="quotedblright" unicode="&#x201d;" horiz-adv-x="792" 
d="M57 1077c52 59.333 78.001 116 78.001 170c0 21.333 -7.83301 49.166 -23.5 83.499s-23.5 63.833 -23.5 88.5c0 37.333 13.667 69.5 41 96.5s60.666 40.5 99.999 40.5c41.333 0 76 -14.333 104 -43s42 -62.667 42 -102c0 -72 -29.833 -147.667 -89.5 -227
s-121.5 -132.666 -185.5 -159.999c-12 0 -22.167 4.83301 -30.5 14.5s-12.5 22.5 -12.5 38.5zM422.001 1077c52 59.333 78.001 116 78.001 170c0 21.333 -7.83301 49.166 -23.5 83.499s-23.5 63.833 -23.5 88.5c0 37.333 13.667 69.5 41 96.5s60.666 40.5 99.999 40.5
c41.333 0 75.833 -14.167 103.5 -42.5s41.5 -62.5 41.5 -102.5c0 -72 -29.833 -147.667 -89.5 -227s-121.167 -132.666 -184.5 -159.999c-12 0 -22.167 4.83301 -30.5 14.5s-12.5 22.5 -12.5 38.5z" />
    <glyph glyph-name="quotedblbase" unicode="&#x201e;" horiz-adv-x="792" 
d="M57 -242c52 59.333 78.001 116.001 78.001 170.001c0 21.333 -7.83301 49.166 -23.5 83.499s-23.5 63.833 -23.5 88.5c0 37.333 13.667 69.666 41 96.999s60.666 41 99.999 41c41.333 0 76 -14.333 104 -43s42 -63 42 -103c0 -72 -29.833 -147.667 -89.5 -227
s-121.5 -132.666 -185.5 -159.999c-12 0 -22.167 4.83301 -30.5 14.5s-12.5 22.5 -12.5 38.5zM422.001 -241.999c52 59.333 78.001 116.001 78.001 170.001c0 21.333 -7.83301 49.166 -23.5 83.499s-23.5 63.833 -23.5 88.5c0 37.333 13.667 69.666 41 96.999
s60.666 41 99.999 41c41.333 0 75.833 -14.333 103.5 -43s41.5 -63 41.5 -103c0 -72 -29.833 -147.667 -89.5 -227s-121.167 -132.666 -184.5 -159.999c-12 0 -22.167 4.83301 -30.5 14.5s-12.5 22.5 -12.5 38.5z" />
    <glyph glyph-name="bullet" unicode="&#x2022;" horiz-adv-x="538" 
d="M14 580c3.33301 60 26.833 110.833 70.5 152.5s95.5 62.5 155.5 62.5c59.333 0 109 -21 149 -63s58.333 -92.667 55 -152c-4 -60.667 -27.667 -111.667 -71 -153s-95.333 -62 -156 -62c-60 0 -109.833 20.833 -149.5 62.5s-57.5 92.5 -53.5 152.5z" />
    <glyph glyph-name="uni202F" unicode="&#x202f;" horiz-adv-x="390" 
 />
    <glyph glyph-name="uni205F" unicode="&#x205f;" horiz-adv-x="487" 
 />
    <glyph glyph-name="Euro" unicode="&#x20ac;" horiz-adv-x="1142" 
d="M-121 571c0 31.333 11.8369 59.9951 35.5039 85.9951s56.834 39 99.501 39h41c3.33301 33.333 8.33301 69.666 15 108.999h-82c-12.667 12.667 -19 30.334 -19 53.001c0 31.333 11.833 60 35.5 86s56.834 39 99.501 39h9c54 174 137.333 316.5 250 427.5
s236 166.5 370 166.5c48 0 90.667 -7.66699 128 -23s67.166 -35.5 89.499 -60.5s39.166 -52.5 50.499 -82.5s17 -61.333 17 -94c0 -56.667 -15.5 -105.667 -46.5 -147s-70.833 -62 -119.5 -62c-21.333 0 -44.166 7.16699 -68.499 21.5s-41.833 34.5 -52.5 60.5
c30 12 53.333 32 70 60s24.667 55.833 24 83.5s-11.334 52 -32.001 73s-50 31.5 -88 31.5c-61.333 0 -121.333 -42.833 -180 -128.5s-105.334 -194.5 -140.001 -326.5h287c10.667 -17.333 16 -37.666 16 -60.999c0 -31.333 -11.333 -58.666 -34 -81.999s-55.667 -35 -99 -35
h-203c-5.33301 -50.667 -8.66602 -87 -9.99902 -109h240c10.667 -17.333 16 -37.666 16 -60.999c0 -31.333 -11.333 -58.666 -34 -81.999s-55.667 -35 -99 -35h-121c10.667 -104.667 39.667 -188.167 87 -250.5s113.333 -93.5 198 -93.5c128.667 0 220 55.333 274 166
c19.333 0 34.5 -4.83301 45.5 -14.5s16.5 -23.167 16.5 -40.5c0 -46.667 -22 -93.5 -66 -140.5s-101.333 -85.5 -172 -115.5s-141.667 -45 -213 -45c-72.667 0 -137.834 14.167 -195.501 42.5s-104.834 67.333 -141.501 117s-65.334 106 -86.001 169
s-33.334 131.5 -38.001 205.5h-155c-12.667 12.667 -19 30.334 -19 53.001z" />
    <glyph glyph-name="uni25FC" unicode="&#x25fc;" horiz-adv-x="1177" 
d="M0 0v1178h1178v-1178h-1178z" />
    </font>
</defs>
</svg>
